<svg width="437" height="100" viewBox="0 0 437 100" fill="none" xmlns="http://www.w3.org/2000/svg">
<g transform="translate(20,0)">
<path d="M45 0C20.151 0 0 20.151 0 45C0 69.849 20.151 90 45 90C69.849 90 90 69.849 90 45C90 20.151 69.858 0 45 0ZM22.203 46.512L22.392 46.206L34.101 27.891C34.272 27.63 34.677 27.657 34.803 27.945C36.756 32.328 38.448 37.782 37.656 41.175C37.323 42.57 36.396 44.46 35.352 46.206C35.217 46.458 35.073 46.71 34.911 46.953C34.839 47.061 34.713 47.124 34.578 47.124H22.545C22.221 47.124 22.032 46.773 22.203 46.512ZM74.376 52.812C74.376 52.983 74.277 53.127 74.133 53.19C73.224 53.577 70.119 55.008 68.832 56.799C65.538 61.38 63.027 67.932 57.402 67.932H33.948C25.632 67.932 18.9 61.173 18.9 52.83V52.56C18.9 52.344 19.08 52.164 19.305 52.164H32.373C32.634 52.164 32.823 52.398 32.805 52.659C32.706 53.505 32.868 54.378 33.273 55.17C34.047 56.745 35.658 57.726 37.395 57.726H43.866V52.677H37.467C37.143 52.677 36.945 52.299 37.134 52.029C37.206 51.921 37.278 51.813 37.368 51.687C37.971 50.823 38.835 49.491 39.699 47.97C40.284 46.944 40.851 45.846 41.31 44.748C41.4 44.55 41.472 44.343 41.553 44.145C41.679 43.794 41.805 43.461 41.895 43.137C41.985 42.858 42.066 42.57 42.138 42.3C42.354 41.364 42.444 40.374 42.444 39.348C42.444 38.943 42.426 38.52 42.39 38.124C42.372 37.683 42.318 37.242 42.264 36.801C42.228 36.414 42.156 36.027 42.084 35.631C41.985 35.046 41.859 34.461 41.715 33.876L41.661 33.651C41.553 33.246 41.454 32.868 41.328 32.463C40.959 31.203 40.545 29.97 40.095 28.818C39.933 28.359 39.753 27.918 39.564 27.486C39.294 26.82 39.015 26.217 38.763 25.65C38.628 25.389 38.52 25.155 38.412 24.912C38.286 24.642 38.16 24.372 38.025 24.111C37.935 23.913 37.827 23.724 37.755 23.544L36.963 22.086C36.855 21.888 37.035 21.645 37.251 21.708L42.201 23.049H42.219C42.228 23.049 42.228 23.049 42.237 23.049L42.885 23.238L43.605 23.436L43.866 23.508V20.574C43.866 19.152 45 18 46.413 18C47.115 18 47.754 18.288 48.204 18.756C48.663 19.224 48.951 19.863 48.951 20.574V24.939L49.482 25.083C49.518 25.101 49.563 25.119 49.599 25.146C49.725 25.236 49.914 25.38 50.148 25.56C50.337 25.704 50.535 25.884 50.769 26.073C51.246 26.46 51.822 26.955 52.443 27.522C52.605 27.666 52.767 27.81 52.92 27.963C53.721 28.71 54.621 29.583 55.485 30.555C55.728 30.834 55.962 31.104 56.205 31.401C56.439 31.698 56.7 31.986 56.916 32.274C57.213 32.661 57.519 33.066 57.798 33.489C57.924 33.687 58.077 33.894 58.194 34.092C58.554 34.623 58.86 35.172 59.157 35.721C59.283 35.973 59.409 36.252 59.517 36.522C59.85 37.26 60.111 38.007 60.273 38.763C60.327 38.925 60.363 39.096 60.381 39.258V39.294C60.435 39.51 60.453 39.744 60.471 39.987C60.543 40.752 60.507 41.526 60.345 42.3C60.273 42.624 60.183 42.93 60.075 43.263C59.958 43.578 59.85 43.902 59.706 44.217C59.427 44.856 59.103 45.504 58.716 46.098C58.59 46.323 58.437 46.557 58.293 46.782C58.131 47.016 57.96 47.241 57.816 47.457C57.609 47.736 57.393 48.024 57.168 48.285C56.97 48.555 56.772 48.825 56.547 49.068C56.241 49.437 55.944 49.779 55.629 50.112C55.449 50.328 55.251 50.553 55.044 50.751C54.846 50.976 54.639 51.174 54.459 51.354C54.144 51.669 53.892 51.903 53.676 52.11L53.163 52.569C53.091 52.641 52.992 52.677 52.893 52.677H48.951V57.726H53.91C55.017 57.726 56.07 57.339 56.925 56.61C57.213 56.358 58.482 55.26 59.985 53.604C60.039 53.541 60.102 53.505 60.174 53.487L73.863 49.527C74.124 49.455 74.376 49.644 74.376 49.914V52.812V52.812Z" fill="white"/>
</g>
<path d="M148.723 73.9966C144.203 73.9966 140.048 72.9837 136.259 70.9579C132.515 68.932 129.524 66.1135 127.287 62.5023C125.096 58.847 124 54.7513 124 50.2153C124 45.6792 125.096 41.6055 127.287 37.9943C129.524 34.3831 132.515 31.5645 136.259 29.5387C140.048 27.5129 144.203 26.5 148.723 26.5C153.243 26.5 157.375 27.5129 161.119 29.5387C164.909 31.5645 167.876 34.3831 170.022 37.9943C172.214 41.6055 173.309 45.6792 173.309 50.2153C173.309 54.7513 172.214 58.847 170.022 62.5023C167.831 66.1135 164.863 68.932 161.119 70.9579C157.375 72.9837 153.243 73.9966 148.723 73.9966ZM148.723 63.6913C152.558 63.6913 155.617 62.4582 157.9 59.992C160.229 57.5258 161.393 54.2669 161.393 50.2153C161.393 46.1196 160.229 42.8607 157.9 40.4385C155.617 37.9723 152.558 36.7392 148.723 36.7392C144.842 36.7392 141.738 37.9503 139.409 40.3724C137.126 42.7946 135.985 46.0755 135.985 50.2153C135.985 54.3109 137.126 57.5919 139.409 60.0581C141.738 62.4803 144.842 63.6913 148.723 63.6913Z" fill="white"/>
<path d="M191.536 41.8918C192.677 40.1743 194.252 38.787 196.261 37.7301C198.27 36.6731 200.621 36.1446 203.315 36.1446C206.465 36.1446 209.319 36.9153 211.876 38.4567C214.432 39.9981 216.441 42.2001 217.902 45.0626C219.409 47.9252 220.162 51.2502 220.162 55.0376C220.162 58.825 219.409 62.172 217.902 65.0786C216.441 67.9412 214.432 70.1651 211.876 71.7506C209.319 73.292 206.465 74.0626 203.315 74.0626C200.667 74.0626 198.316 73.5342 196.261 72.4772C194.252 71.4203 192.677 70.0551 191.536 68.3815V84.5H179.825V36.6731H191.536V41.8918ZM208.246 55.0376C208.246 52.2191 207.424 50.0171 205.78 48.4317C204.182 46.8022 202.196 45.9875 199.822 45.9875C197.494 45.9875 195.508 46.8022 193.864 48.4317C192.266 50.0611 191.467 52.2851 191.467 55.1036C191.467 57.9222 192.266 60.1462 193.864 61.7756C195.508 63.4051 197.494 64.2198 199.822 64.2198C202.151 64.2198 204.137 63.4051 205.78 61.7756C207.424 60.1021 208.246 57.8561 208.246 55.0376Z" fill="white"/>
<path d="M262.329 54.5091C262.329 55.5661 262.261 56.667 262.124 57.8121H235.62C235.803 60.1021 236.556 61.8637 237.88 63.0968C239.25 64.2859 240.916 64.8804 242.88 64.8804C245.802 64.8804 247.833 63.6913 248.975 61.3132H261.439C260.8 63.7354 259.636 65.9153 257.946 67.8531C256.303 69.7908 254.225 71.3102 251.714 72.4112C249.203 73.5121 246.395 74.0626 243.291 74.0626C239.547 74.0626 236.214 73.292 233.292 71.7506C230.37 70.2092 228.087 68.0072 226.443 65.1446C224.8 62.2821 223.978 58.9351 223.978 55.1036C223.978 51.2722 224.777 47.9252 226.375 45.0626C228.018 42.2001 230.301 39.9981 233.223 38.4567C236.145 36.9153 239.501 36.1446 243.291 36.1446C246.989 36.1446 250.276 36.8933 253.152 38.3907C256.029 39.888 258.266 42.0239 259.864 44.7984C261.508 47.5729 262.329 50.8098 262.329 54.5091ZM250.345 51.5364C250.345 49.5987 249.66 48.0573 248.29 46.9123C246.92 45.7673 245.208 45.1948 243.154 45.1948C241.19 45.1948 239.524 45.7453 238.154 46.8462C236.83 47.9472 236.008 49.5106 235.689 51.5364H250.345Z" fill="white"/>
<path d="M291.793 36.2768C296.267 36.2768 299.828 37.686 302.476 40.5046C305.17 43.279 306.517 47.1105 306.517 51.9989V73.5342H294.874V53.5182C294.874 51.052 294.212 49.1363 292.888 47.7711C291.564 46.4058 289.784 45.7232 287.547 45.7232C285.309 45.7232 283.529 46.4058 282.205 47.7711C280.881 49.1363 280.219 51.052 280.219 53.5182V73.5342H268.508V36.6731H280.219V41.5615C281.406 39.932 283.004 38.6549 285.013 37.7301C287.021 36.7612 289.281 36.2768 291.793 36.2768Z" fill="white"/>
<path d="M332.05 73.9966C328.535 73.9966 325.384 73.4461 322.599 72.3451C319.814 71.2441 317.577 69.6147 315.888 67.4567C314.244 65.2988 313.376 62.7005 313.285 59.6617H325.749C325.932 61.3793 326.548 62.7005 327.599 63.6253C328.649 64.5061 330.018 64.9465 331.708 64.9465C333.443 64.9465 334.812 64.5721 335.817 63.8235C336.821 63.0308 337.324 61.9518 337.324 60.5866C337.324 59.4415 336.913 58.4947 336.091 57.746C335.315 56.9973 334.333 56.3808 333.146 55.8964C332.004 55.4119 330.361 54.8614 328.215 54.2449C325.11 53.32 322.576 52.3952 320.613 51.4704C318.65 50.5456 316.961 49.1803 315.545 47.3747C314.13 45.5691 313.422 43.213 313.422 40.3064C313.422 35.9905 315.043 32.6215 318.285 30.1993C321.526 27.7331 325.749 26.5 330.954 26.5C336.251 26.5 340.519 27.7331 343.761 30.1993C347.003 32.6215 348.738 36.0125 348.966 40.3724H336.296C336.205 38.8751 335.634 37.708 334.584 36.8713C333.534 35.9905 332.187 35.5501 330.543 35.5501C329.128 35.5501 327.987 35.9244 327.119 36.6731C326.252 37.3777 325.818 38.4127 325.818 39.7779C325.818 41.2752 326.548 42.4423 328.01 43.279C329.471 44.1158 331.753 45.0186 334.858 45.9875C337.963 47.0004 340.474 47.9692 342.391 48.8941C344.355 49.8189 346.044 51.1621 347.459 52.9237C348.875 54.6853 349.582 56.9533 349.582 59.7278C349.582 62.3702 348.875 64.7703 347.459 66.9282C346.09 69.0862 344.081 70.8037 341.433 72.0809C338.785 73.358 335.657 73.9966 332.05 73.9966Z" fill="white"/>
<path d="M392.813 54.5091C392.813 55.5661 392.744 56.667 392.607 57.8121H366.103C366.286 60.1021 367.039 61.8637 368.363 63.0968C369.733 64.2859 371.4 64.8804 373.363 64.8804C376.285 64.8804 378.317 63.6913 379.458 61.3132H391.922C391.283 63.7354 390.119 65.9153 388.43 67.8531C386.786 69.7908 384.709 71.3102 382.197 72.4112C379.686 73.5121 376.878 74.0626 373.774 74.0626C370.03 74.0626 366.697 73.292 363.775 71.7506C360.853 70.2092 358.57 68.0072 356.926 65.1446C355.283 62.2821 354.461 58.9351 354.461 55.1036C354.461 51.2722 355.26 47.9252 356.858 45.0626C358.501 42.2001 360.784 39.9981 363.706 38.4567C366.628 36.9153 369.984 36.1446 373.774 36.1446C377.472 36.1446 380.759 36.8933 383.636 38.3907C386.512 39.888 388.749 42.0239 390.347 44.7984C391.991 47.5729 392.813 50.8098 392.813 54.5091ZM380.828 51.5364C380.828 49.5987 380.143 48.0573 378.773 46.9123C377.403 45.7673 375.691 45.1948 373.637 45.1948C371.674 45.1948 370.007 45.7453 368.637 46.8462C367.313 47.9472 366.491 49.5106 366.172 51.5364H380.828Z" fill="white"/>
<path d="M396.662 55.0376C396.662 51.2502 397.393 47.9252 398.854 45.0626C400.36 42.2001 402.392 39.9981 404.949 38.4567C407.506 36.9153 410.359 36.1446 413.51 36.1446C416.203 36.1446 418.555 36.6731 420.564 37.7301C422.618 38.787 424.193 40.1743 425.289 41.8918V36.6731H437V73.5342H425.289V68.3155C424.148 70.033 422.55 71.4203 420.495 72.4772C418.486 73.5342 416.135 74.0626 413.441 74.0626C410.336 74.0626 407.506 73.292 404.949 71.7506C402.392 70.1651 400.36 67.9412 398.854 65.0786C397.393 62.172 396.662 58.825 396.662 55.0376ZM425.289 55.1036C425.289 52.2851 424.467 50.0611 422.824 48.4317C421.226 46.8022 419.262 45.9875 416.934 45.9875C414.605 45.9875 412.619 46.8022 410.976 48.4317C409.378 50.0171 408.579 52.2191 408.579 55.0376C408.579 57.8561 409.378 60.1021 410.976 61.7756C412.619 63.4051 414.605 64.2198 416.934 64.2198C419.262 64.2198 421.226 63.4051 422.824 61.7756C424.467 60.1462 425.289 57.9222 425.289 55.1036Z" fill="white"/>
</svg>
