<?xml version="1.0" encoding="utf-8"?>
<!-- Generator: Adobe Illustrator 24.3.0, SVG Export Plug-In . SVG Version: 6.00 Build 0)  -->
<svg version="1.1" id="text_black" xmlns="http://www.w3.org/2000/svg" xmlns:xlink="http://www.w3.org/1999/xlink" x="0px" y="0px"
	 viewBox="0 0 1300 1300">
<style type="text/css">
	.st1{fill:#BA0022;}
</style>
<g>
	<g>
		<path class="st1" d="M 874.7 1142.3 c -2.5 -3.9 -6 -4.6 -10.5 -5 c -3.8 -0.4 -7.5 -2.8 -11 -4.9 c -6.2 -3.7 -12.2 -8 -18.4 -11.8 c -1.3 -0.8 -3.4 -0.9 -5.1 -0.7 c -5.6 0.6 -7.4 -1.1 -6.4 -6.4 c 0.1 -0.4 -0.4 -0.8 -1 -1.9 c -0.8 1.6 -1.4 2.8 -1.9 3.7 c -9.1 -3.9 -18.2 -7.7 -27.3 -11.7 c 8.7 -2.4 15.4 1.8 22.2 6.1 c 1.9 0.5 3.9 1 5.8 1.5 c 0 -0.5 0.1 -0.9 0.1 -1.4 c -2 0 -4 0 -5.9 0 c -0.4 -2.5 -4.9 -5.9 -7.9 -6.4 c -11.8 -2 -23.5 -4.1 -35.3 -6.2 c -1.2 -0.2 -2.8 -0.5 -3.5 -1.4 c -3.7 -4.6 -8.7 -4.5 -13.9 -4.5 c -1.3 0 -3.3 -1.1 -3.6 -2.1 c -1.7 -5.4 -5.4 -7.1 -10.6 -6.8 c -1 0.1 -2 0 -2.5 0 c -2.4 -7.4 -11.2 -1.6 -13.8 -7.9 c 0.7 -0.4 1.8 -1.1 2.9 -1.8 c 0.1 -0.4 0.2 -0.8 0.2 -1.2 c -6.1 -0.9 -12.1 -1.9 -18.4 -2.8 c 1.6 -1 3.3 -2 4.9 -3 c -3 -0.7 -6.3 -3.3 -7.5 1.3 c -2.2 -0.7 -4.5 -1.4 -7.5 -2.3 c 1.8 -1.6 2.8 -2.5 3.8 -3.4 c -7.7 -5.4 -15.2 -10.7 -22.8 -16.1 c 1.8 -0.1 3.6 -0.3 6.5 -0.5 c -5.7 -5.6 -15.1 -4.8 -17.2 -13.5 c 1.4 -0.1 3 -0.3 6.2 -0.6 c -5.3 -2.9 -9.6 -5.3 -14.2 -7.8 c 0.9 -1.8 1.7 -3.2 2.4 -4.6 c 7 1.7 13.7 3.4 20.5 4.9 c 3 0.6 6.2 0.8 9.3 0.6 c 0.6 0 1 -2.5 1.9 -5 c 5.9 0.5 13.1 1.5 20.2 1.5 c 9.2 0 18.5 -0.4 27.7 -1.2 c 3.4 -0.3 7.3 -1.4 5.5 -6.8 c -0.5 -1.4 0.6 -3.4 1.1 -5.7 c 3.6 -0.7 8.2 -1.4 12.7 -2.5 c 1.5 -0.4 3.4 -1.3 4 -2.5 c 2.8 -6.2 8.3 -8.4 14.2 -9.4 c 12 -2 18.6 -9 20.9 -20.7 c 1.8 -9.4 6 -19 5.3 -28.2 c -0.7 -9.3 4.6 -16.5 4.7 -25.1 c 0 -1.5 0 -3 0 -5.8 c -2.4 2.1 -4.1 3.5 -7 6 c -0.3 -3 -1 -5.1 -0.6 -6.9 c 4.1 -20.6 9 -41 12.3 -61.8 c 1.4 -8.7 -0.3 -17.9 -1 -26.8 c -0.6 -8 -2.2 -15.9 -2.7 -23.9 c -1.2 -17.5 -2 -34.9 -3.1 -52.4 c -0.2 -2.8 -0.9 -5.6 -1.4 -8.4 c 0.4 -0.4 0.9 -0.7 1.3 -1.1 c -2.9 0 -5.8 0 -8.8 0 c 0 -0.3 -0.1 -0.6 -0.1 -0.9 c 2.7 -1.4 5.4 -2.8 9.6 -4.9 c -2.5 -1 -4 -2.2 -4.7 -1.8 c -8 4.2 -17.8 4.9 -24.9 10.8 c 0.3 0.7 0.6 1.4 0.8 2.2 c 4 -1.1 8.1 -2.3 12.1 -3.4 c 0.2 0.4 0.3 0.7 0.5 1.1 c -1.8 1.1 -3.6 2.4 -5.6 3.2 c -5.1 2.1 -10.3 3.8 -15.3 6.1 c -1.6 0.8 -2.5 3.1 -4.2 5.4 c -0.3 -0.9 -0.8 -2.6 -1 -3.3 c -7.3 2.3 -15 4.5 -22.5 7.1 c -2.5 0.8 -4.6 2.7 -6.8 4.1 c 0.2 0.6 0.5 1.1 0.7 1.7 c 4.8 -1.3 9.5 -2.7 14.3 -4 c 0.2 0.5 0.3 1.1 0.5 1.6 c -7.2 2.3 -14.5 4.6 -21.7 7 c -0.2 -0.3 -0.3 -0.7 -0.5 -1 c 0.9 -1.2 1.9 -2.5 2.8 -3.7 c -0.1 -0.4 -0.3 -0.7 -0.4 -1.1 c -2.5 0.6 -5.1 1.1 -7.5 1.8 c -1.9 0.6 -3.5 2 -5.4 2.3 c -4.8 0.8 -3.4 3.1 -1.7 5.7 c -4.4 1.3 -8.8 2.6 -12.9 3.8 c -1.1 -1.1 -2.3 -2.5 -3.6 -3.8 c -0.4 0.3 -0.8 0.6 -1.2 1 c 0.2 1 0.4 2.1 0.6 3.3 c -0.5 0 -1.1 0.2 -1.4 0 c -2.8 -1.6 -4.6 -0.5 -7 1.3 c -6.5 4.9 -13.1 12 -20.4 13.1 c -11.6 1.8 -21.2 7.2 -31.4 11.6 c -8.4 3.6 -16.8 6.9 -25.2 10.5 c -5.2 2.2 -8.6 5.8 -10.4 11.5 c -2.5 7.6 -9.8 9 -16.6 10.1 c -6.6 1 -12 -1.6 -16.2 -7 c -0.8 -1.1 -3.4 -1.9 -4.6 -1.5 c -3.4 1.1 -4.8 0 -7.4 -2.4 c -5.2 -4.8 -8.4 -10.1 -9.6 -16.9 c -0.2 -0.9 -1.3 -1.7 -2.1 -2.4 c -3.2 -2.6 -6 -5.2 -3.7 -10 c 0.5 -1.1 -0.2 -3.7 -1.2 -4.5 c -5 -3.8 -5.4 -9.4 -6.6 -14.8 c -1.6 -7.1 -2.7 -14.3 -5.1 -21 c -2.3 -6.3 -5.7 -12.3 -9.3 -18 c -1.5 -2.4 -1.6 -4.2 0.2 -5.4 c 2.6 -1.7 4.3 -6.3 8.5 -3.7 c 8.7 5.4 16.2 0.4 23.7 -2.1 c 8.8 7 18.3 9.9 29.2 5.7 c 3.2 -1.2 5.5 -1 2.9 4 c 2.1 -0.3 3.8 -0.2 5.2 -0.7 c 17.1 -6.1 34.2 -12.4 51.4 -18.4 c 3 -1.1 7.2 -3.8 9.2 1.9 c 0.2 0.6 1.7 1 2.6 1 c 2.4 -0.1 5 -0.1 7.2 -1 c 2.1 -0.9 3.9 -2.8 5.8 -4.2 c -0.7 -0.3 -1.5 -0.6 -3.7 -1.5 c 13 -5.1 24.7 -9.6 36.4 -14.2 c 0.3 0.3 0.6 0.5 1 0.8 c -2.9 1.8 -5.8 3.6 -9.6 5.9 c 2 0.2 3.8 0.9 5.2 0.4 c 14.1 -4.9 28.2 -9.9 42.2 -15.2 c 5.9 -2.2 11.4 -5.5 17.2 -7.8 c 6.8 -2.6 13.9 -4.5 20.7 -7.1 c 8.2 -3 16.2 -6.2 24.3 -9.6 c 4.4 -1.9 1.4 -6.1 2.3 -9.2 c 0.7 -2.5 -0.2 -5.4 -0.3 -8.1 c -0.3 -6.8 -0.1 -13.6 -1.1 -20.2 c -0.5 -3.3 -2.7 -6.7 -5.1 -9.2 c -12.5 -13.2 -25.2 -26 -37.9 -39.1 c -1.2 -1.3 -2.2 -2.8 -3.7 -4.6 c -19.8 8.5 -39.6 17 -59.4 25.5 c 0.1 1.9 0.2 3.3 0.4 5.2 c -1.8 -1 -2.9 -1.7 -4.3 -2.4 c -6.9 7.6 -16.3 11 -25.2 15.3 c -2.9 1.4 -5.5 3.5 -8.4 5.1 c -17.9 10.2 -35.9 20.2 -53.7 30.6 c -6.7 3.9 -11.3 10 -15.4 16.6 c -1.5 2.4 -4.6 4.7 -7.2 5.1 c -11.5 1.9 -22.7 1.8 -32.5 -6.5 c -3.1 -2.6 -7.4 -4.1 -11.2 -5.6 c -6.8 -2.8 -9.9 -8.7 -13.7 -14.5 c -6.1 -9.4 -13.2 -18.3 -19.3 -27.7 c -7.4 -11.5 -14 -23.5 -21.4 -34.9 c -5 -7.7 -10.9 -14.8 -11.9 -24.3 c -0.5 -5.3 -0.1 -10.7 0.5 -16 c 0.1 -1.1 2.8 -2 4.3 -2.8 c 5.6 -3 11.1 -3.1 17.5 -1.7 c 3.4 0.7 7.7 3 11.8 0.2 c 1.4 -0.9 4 0.2 5.9 -0.4 c 19.3 -5.6 38.7 -10.8 57.7 -17.3 c 16.8 -5.7 33 -13 49.5 -19.5 c 13.6 -5.4 27.3 -10.5 40.8 -16 c 2.8 -1.2 5 -4 7.7 -5.4 c 6.5 -3.2 5.4 -10.7 9 -15.5 c 0.8 -1 -0.2 -3.4 -0.5 -5.2 c -0.3 -1.9 -0.7 -3.8 -1.3 -5.6 c -0.7 -1.8 -1.7 -3.6 -2.6 -5.3 c -0.4 -0.7 -1.1 -1.3 -1.2 -2 c -1.2 -7.8 -5.4 -12 -13.5 -12.9 c -2.8 -0.3 -5.4 -2.9 -7.8 -4.7 c -12 -8.7 -24.1 -17.4 -36 -26.2 c -3.8 -2.8 -6.9 -6.7 -10.9 -9.3 c -10.1 -6.9 -18.3 -16 -27.7 -23.8 c -4.1 -3.4 -4.1 -8.1 -4.9 -12.4 c -0.2 -1.2 3.7 -4.3 5.8 -4.4 c 5.5 -0.3 11.1 0.7 16.7 1 c 3.2 0.1 6.5 0.1 9.6 -0.3 c 8.4 -1.3 17.3 -1.6 25.1 -4.5 c 10.4 -3.9 19.8 -10.2 29.8 -15.1 c 4.1 -2 8.8 -2.9 13.3 -4.1 c 5.9 -1.5 8.3 -5.3 8.4 -11.1 c 0 -0.4 0.3 -0.9 0.7 -1.3 c 0.4 -0.4 1 -0.7 2.2 -1.4 c 0.2 3.8 0.3 7 0.5 10.2 c 7.1 -0.1 8.4 -1.4 8.6 -7.7 c 0.1 -2.6 0.2 -5.4 1.1 -7.7 c 2.8 -7 0.5 -13.8 0.2 -20.8 c -0.5 -10.3 -0.2 -20.6 0 -30.9 c 0.1 -4.5 0.6 -8.9 0.8 -13.4 c 0.7 -14 1.2 -28.1 1.9 -42.1 c 0.6 -11.4 1.1 -22.8 2 -34.2 c 1.1 -14.9 2.7 -29.8 3.9 -44.7 c 0.1 -1.5 -1 -3.2 -1.5 -4.8 c -1.1 1.2 -2.5 2.2 -3.1 3.5 c -1.5 3.4 -1 7.3 -4.6 10.2 c -1.6 1.3 -0.1 6.1 -0.5 9.2 c -0.2 1.6 -1.5 3.1 -2.2 4.7 c -0.5 -1.5 -1.2 -3.1 -1.5 -4.6 c -1 -5.8 0.2 -12.1 -4.5 -16.9 c -0.4 -0.4 -1 -1.3 -0.8 -1.7 c 3.2 -8.1 -3.4 -14.4 -3.8 -21.9 c -0.2 -3.6 -1.7 -7.1 3.9 -8.2 c 4.2 -0.8 6.3 -9 4.4 -13.8 c -1.8 -4.5 0 -6.8 1.6 -9.8 c 2 0 4 0 6 0 c 1 1.3 1.7 3 3 3.7 c 1.8 1 4.1 1 6.1 1.8 c 13.3 5.7 26.7 10.6 41.6 9.4 c 3.8 -0.3 8.3 1.1 11.4 -0.4 c 3.3 -1.6 5.4 -1 8.2 0 c 1.5 0.5 3.1 1.1 4.7 1.3 c 11.1 1.8 22.3 3.3 33.4 5.2 c 3.9 0.7 7.9 1.7 11.6 3.3 c 2.8 1.2 5 3.7 7.6 5.3 c 9.2 5.3 10.2 7.7 6.9 17.8 c -1.5 4.6 0.3 6.5 5.4 7.6 c 2.9 0.6 5.5 2.7 8.2 4.2 c -2.1 2 -4.2 4.1 -6.4 6 c -1.3 1.2 -3.3 1.8 -4.3 3.2 c -1.1 1.6 -2.5 4.1 -2 5.6 c 1.3 3.7 -0.4 3.9 -3.2 4.1 c -5.5 0.4 -9.9 5 -8.9 10.6 c 0.8 4.5 -0.6 8.2 -1.6 12.2 c -0.8 3.5 -1.8 7 -2.5 10.5 c -2.8 13.5 -0.7 27.9 -7.9 40.5 c -0.2 0.4 0 1 -0.1 1.5 c -0.5 6.9 -1.1 13.8 -1.6 20.7 c -0.6 7.8 -1.2 15.6 -1.8 24.1 c 11.8 -6.6 20.5 -14.9 27.4 -25.4 c -1.9 -0.8 -3.5 -1.5 -5.3 -2.2 c 4.4 -2.8 6.7 -2.5 10.2 2.5 c 2.6 3.8 4.5 2.6 7.1 -0.2 c -1.2 -1 -2.1 -1.8 -3.1 -2.7 c 4.3 -2.9 8.5 -5.7 12.6 -8.5 c -0.4 -0.7 -0.7 -1.3 -1.1 -2 c -2.8 0.7 -5.6 1.3 -8.5 2 c 2 -2.2 4.7 -3.3 6.8 -5 c 3.1 -2.5 5.9 -5.5 8.7 -8.4 c 1.4 -1.5 2 -3.9 3.6 -5.1 c 2.6 -2.1 5.6 -3.5 8.4 -5.2 c 0 0.5 0 0.9 0 1.4 c 2.5 0.3 5 0.6 7.5 0.8 c 1.9 0.2 3.9 0 5.7 0.6 c 6.1 2.2 12 5.2 18.3 6.8 c 12.1 3.1 24.6 3.1 36.7 7.5 c 7.7 2.8 14.9 6 21.9 10 c 1.8 1 3.6 2.8 4.3 4.6 c 1.5 4.2 2.1 8.8 3.4 13.1 c 1.1 3.8 0.7 8.7 6.2 10 c 0.8 0.2 1.3 2.4 1.6 3.7 c 0.3 1.3 -0.2 3 0.4 3.9 c 2.8 3.8 1.4 7 -0.4 10.6 c -0.9 1.7 -1.7 4 -1.4 5.8 c 0.7 3.9 -0.8 6.5 -3.7 8.7 c -3.7 3 -7.3 6.1 -11 9.3 c 2.2 1.1 4.2 2 6.3 3 c -2 2.2 -3.5 4 -5.6 6.4 c 3.1 0 5.1 0 8.4 0 c -5.1 2.7 -8.9 6.2 -12.8 6.4 c -6.9 0.3 -10.8 6 -17.1 7.7 c -4.8 1.3 -9 4.8 -14.7 3.9 c -5.8 -0.8 -9.4 6.9 -15.8 4.7 c -0.1 0 -0.2 0.2 -0.4 0.3 c -2.1 2.2 -4 5 -7.7 2.9 c -0.4 -0.2 -1.2 0.4 -1.8 0.6 c -6.7 2.8 -13.3 6.2 -20.3 8.3 c -10.8 3.2 -12.2 3.3 -16.1 6.9 c -0.2 0.2 -0.6 0 -0.1 0 c -1.2 -1.6 -2.5 -3.7 -2.9 -3.5 c -4.8 1.8 -9.4 3.9 -14 6 c -0.6 0.3 -0.9 1.3 -1.4 1.9 c -0.4 0.6 -1.2 1.6 -1.3 1.6 c -4 -2.5 -3.1 2.3 -5 2.8 c -2.3 0.2 -4.4 0.8 -6.5 1.5 c -3.8 1.3 -6.2 4.6 -10.5 6 c -9.5 3.1 -18.3 8.3 -27.3 12.8 c -2.1 1 -3.7 3 -5.3 4.3 c -0.2 -0.2 -1.2 -1.2 -1.4 -1.1 c -4 2.6 -9.4 4.5 -11.4 8.2 c -2.6 4.8 -2.4 11.1 -3.4 16.7 c -0.2 0.9 -0.4 1.9 -0.7 2.7 c -0.7 2 -1.7 3.9 -2.3 5.9 c -0.5 1.9 -0.7 3.9 -0.8 5.8 c -0.3 4.7 -0.6 9.3 -0.9 14.5 c 11.7 -4.4 22.4 -8.4 33.2 -12.5 c 0.2 2.6 -0.5 5.2 3.4 3.7 c 3.7 -1.4 5.9 0 5.4 4.2 c 3.8 0.4 7.3 1.4 10.6 1.1 c 3 -0.3 5.7 -2.6 8.7 -3.3 c 8.4 -2 17 -3.4 25.3 -5.7 c 7.5 -2.1 14.8 -5 22.2 -7.5 c 4.6 -1.5 9.2 -2.9 13.8 -4.3 c -0.4 0.8 -0.6 1.9 -1.2 2.2 c -3.6 1.8 -7.2 3.5 -10.9 5 c -6.1 2.5 -12.3 4.7 -18.4 7.1 c -0.6 0.2 -0.9 1.3 -1.5 2.2 c 4.3 1 8.5 -5.1 11 0.8 c 7.1 -2 13.9 -3.7 20.6 -5.9 c 1.9 -0.6 3.5 -2.6 5.1 -4.1 c 1.3 -1.2 2.4 -2.7 3.4 -4.1 c 0.9 -1.2 1.6 -2.6 2.4 -3.9 c -1.7 -0.3 -3.4 -0.9 -5 -0.8 c -1.9 0.1 -3.7 1 -5.6 1.5 c 7.4 -5.4 15.6 -8.3 25.7 -9.2 c -2.5 2.6 -4.3 4.4 -6 6.2 c 0.4 0.5 0.9 1 1.3 1.5 c 6.3 -3.1 12.7 -6.1 19 -9.2 c -0.2 -0.6 -0.3 -1.3 -0.5 -1.9 c -3.4 0.5 -6.8 0.9 -9.8 1.3 c 0.1 -1.3 0.5 -2.8 0.1 -4 c -0.4 -1.4 -1.4 -2.7 -2.1 -3.9 c 5.4 0.4 10.5 0.8 15.6 1.3 c 0.1 -0.6 0.3 -1.1 0.4 -1.7 c -3.5 -3.5 -7.2 -6.9 -10.5 -10.5 c -1 -1.1 -2.5 -3.7 -2.1 -4.1 c 4.2 -4.6 0.3 -8.2 -1.5 -12.5 c 6.7 -3.4 13.8 -3.2 20.3 -1.5 c 8.7 2.2 17 6 25.4 9.4 c 4.6 1.9 8.9 4.8 13.6 6.7 c 2.4 0.9 5.5 -0.2 7.9 0.7 c 4.9 1.9 9.5 4.7 14.3 6.9 c 2.4 1.1 5 1.6 8.4 2.6 c -0.4 2.9 2.8 1.9 5.3 2.1 c 1.9 0.2 4.1 0.1 5.6 1 c 6.4 4 11.5 10 18.5 13.2 c 4.5 2 6.2 6.3 9.2 9.5 c 4.9 5.3 10.4 10.2 16.1 14.7 c 4.3 3.4 7.3 9 14.1 8.9 c 1.6 0 3.2 3.4 4.7 5.4 c 0.9 1.2 1.6 2.7 2.5 4 c 0.8 1.1 2.1 2 2.5 3.2 c 2.1 5.5 0.1 10.8 -1.1 16.1 c -0.5 2.2 -1.6 4.5 -3.1 6.1 c -3 3.3 -7.2 5.7 -9.6 9.3 c -3.6 5.4 -7.4 9.5 -14.5 8.9 c -0.2 0 -0.5 0.4 -0.8 0.8 c 0.3 1.2 0.7 2.4 0.7 2.5 c -2.3 2.5 -4.1 4.5 -5.5 6 c -2.7 0.2 -5.1 0.1 -7.3 0.6 c -6.1 1.5 -12.2 4.6 -18.6 2.8 c -7.2 -2 -14.3 -0.8 -21.4 -0.7 c -4.2 0.1 -8.5 0.9 -12.6 1.8 c -9.3 2.2 -18.5 4.9 -27.8 7.2 c -3.3 0.8 -6.9 0.6 -10.3 1.3 c -12.6 2.4 -24 9.8 -37.3 9.1 c -6.3 -0.3 -11.8 7.9 -18.6 1.6 c -0.1 -0.1 -0.3 0 -0.5 0 c -9.8 2.7 -19.7 5.2 -29.4 8.2 c -7.6 2.3 -15 5.2 -22.6 7.6 c -1.5 0.5 -3.4 -0.2 -5.7 -0.3 c 5 -4.1 9.1 -7.5 13.6 -11.2 c -3.9 -1.5 -6.5 1.3 -9.4 2.6 c -2.9 1.4 -5.6 3 -9 4.9 c 0.6 -1.2 0.9 -2 1.3 -2.7 c -0.3 -0.1 -0.6 -0.1 -0.9 -0.2 c -0.4 1.3 -0.9 2.7 -1.2 3.7 c -2.2 -0.4 -5.1 -1.9 -6.3 -1 c -10.3 6.8 -22.6 7.7 -33.7 12.3 c -3.7 1.5 -7.6 2.5 -11.3 4 c -0.9 0.4 -1.3 1.8 -1.9 2.7 c 1.1 0.7 2.4 2.2 3.1 1.9 c 5.4 -2 10.3 0.8 15.4 0.9 c 12.6 0.2 24.2 4 35.5 8.7 c 8.4 3.4 17.4 5.8 23.8 13.2 c 2.3 2.6 5.6 5 8.8 5.9 c 11 2.9 19.3 10 28.1 16.4 c 7.4 5.4 7.4 5.6 15.2 0 c 2.2 -1.6 3.7 -4.5 6 -5.5 c 5.3 -2.2 10.9 -3.9 16.5 -5.4 c 4.2 -1.1 7.4 -3.1 9.8 -6.7 c 0.6 -1 1.8 -1.7 2.8 -2.3 c 2.2 -1.1 4.7 -1.7 6.7 -3.1 c 3.6 -2.6 8.7 -2.2 9.6 1.2 c 0.9 3.4 1.2 7 1.9 10.8 c 1.2 0 2.9 -0.1 4.5 0 c 3.7 0.4 8.9 -2.2 9.2 4.8 c 0 0.4 1.4 0.7 2 1.2 c 4.2 3.3 8.3 6.6 12.4 9.9 c 0.2 0.1 0 0.7 0.1 1 c 0.8 1.4 1.6 2.9 2.4 4.2 c 2.8 4.4 6 8.7 8.5 13.3 c 1.2 2.3 1.1 5.3 1.6 8.5 c -0.6 0.7 -1.6 2 -2.9 3.5 c 2.1 3.8 4.4 7.4 6 11.3 c 1 2.4 1 4.9 -2.3 6.5 c -4.4 2.2 -7.5 5.9 -6.3 11.1 c 1.3 5.5 -1 6.6 -5.8 7 c -9.8 0.7 -12 3.9 -8.5 12.3 c -2.7 -0.5 -5.1 -1.1 -7.4 -1.4 c -2.9 -0.4 -5.9 -0.9 -8.8 -0.7 c -5.7 0.3 -11.3 1.2 -17 1.7 c -2 0.2 -4.5 -0.6 -5.9 0.3 c -3.3 2.2 -7 1.1 -10.3 1.9 c -8.2 1.9 -16.4 4.2 -24.5 6.5 c -0.8 0.2 -1.8 1.5 -1.9 2.3 c -1.1 7.7 -2.1 15.5 -3 23.2 c -0.8 6.9 -0.7 13.9 -2.3 20.6 c -1.2 4.9 -1.3 6.4 4.3 4.2 c -0.5 3.9 -2.7 7.8 1.7 10.5 c 0.3 0.2 0.3 1.7 -0.1 2.2 c -3.8 5 1.9 9.9 0.2 15.2 c -0.7 2.2 0.3 5 -0.7 8.5 c -0.5 1.6 0.1 3.6 0.3 5.4 c 0.2 2.4 0.9 4.9 0.6 7.2 c -1.1 8.2 -2.6 16.3 -3.9 24.4 c -0.1 0.6 -0.2 1.6 0.2 1.9 c 4.4 3.9 2.6 8.6 1.8 13.3 c -0.4 2.3 -0.1 4.7 -0.1 7.1 c 0.4 0 0.9 0 1.3 0.1 c 0.8 -3.6 1.6 -7.1 2.5 -11.3 c 4.2 9.3 0.4 18.6 3.9 27.1 c 0.3 0.7 -0.1 2.3 -0.6 2.7 c -3.1 1.8 -1.3 4.1 -1 6.3 c -0.7 -0.2 -1.4 -0.4 -2.1 -0.6 c 0 0.3 -0.1 0.5 -0.1 0.8 c 0.7 -0.1 1.5 -0.2 2.2 -0.3 c 0.2 0 0.3 0 0.5 0 c 0.1 0 0.2 0.2 0.2 0.3 c -0.3 2.1 -0.4 4.2 -0.8 6.3 c -0.4 2.1 -1 4.2 -1.6 6.7 c 2.5 1.3 2.6 8.3 -1.2 13 c 1 0.7 1.9 1.5 2.8 2.2 c -4.3 8 -4.1 10.6 0.5 12.7 c -4.8 5.9 -4.8 5.8 0.6 10.5 c 0.7 0.6 0.9 2.1 0.7 3.1 c -0.8 3.5 -2.6 7 -2.7 10.5 c -0.6 12.4 -1 24.9 -1 37.4 c -0.1 7.9 0.7 15.9 0.8 23.8 c 0 7.6 -0.7 15.2 -0.7 22.8 c 0 2.2 1.3 4.4 2.1 6.8 c -1.2 3.1 -2.8 6.6 -3.9 10.2 c -0.3 1.1 0.4 3.5 1.2 3.8 c 4.4 1.6 1.6 4 1.4 6.5 c -0.3 3.8 -0.5 9.2 1.7 11.2 c 2.6 2.4 2.2 3.4 1.4 5.8 c -0.5 1.4 -0.3 3 -0.3 4.5 c -0.1 7.8 0.8 15.5 -3.9 22.7 c -2.7 4.1 -5 8.8 -4.9 14.3 c 0.1 3.3 -1.3 7.1 -3.1 10 c -4.6 7.4 -9.9 14.4 -14.9 21.5 C 886.7 1142.3 880.7 1142.3 874.7 1142.3 z M 834 525.9 c -6.1 2.3 -11.8 4.5 -17.5 6.5 c -1.2 0.4 -2.7 0.2 -4 0.3 c -2.7 -0.4 -5.4 -1.1 -7.6 -0.3 c -6.7 2.7 -13.2 5.9 -19.7 9 c -1.9 0.9 -3.7 2.2 -5.6 3.3 c -2.7 1.6 -5.6 4.6 -8.2 4.5 c -5.4 -0.2 -7.2 3.9 -11.8 6.4 c 4.3 2.2 7.5 3.8 10 5.1 c 1.4 -2 2.4 -3.5 3.5 -5 c 0.4 0.3 0.8 0.5 1.2 0.8 c 0 0.9 0 1.8 0 3.2 c 1.7 -1 3.3 -2.5 3.7 -2.2 c 4.4 3.1 8.1 0.4 11.6 -1.4 c 8.6 -4.4 16.8 -9.8 25.7 -13.7 c 7.5 -3.2 15.6 -4.9 23.4 -7.3 c 5.4 -1.6 11.1 -2.7 16.4 -4.4 c 17.9 -5.9 35.2 -13.7 53.3 -19.1 c 2.9 -0.9 5.2 -3.7 7.9 -5.7 c -1 -0.9 -2.3 -1.5 -2.5 -2.3 c -0.9 -4.1 -0.8 -4.1 -4.6 -3.1 c -4.1 1.1 -8.2 1.7 -12.2 3 c -7.6 2.5 -15.1 5.3 -22.4 7.9 c 0.8 0.9 1.6 1.7 1.8 1.9 c 3 -0.4 5.7 -1 8.4 -1 c 2.3 0 5 -4.6 7.3 0.3 c -0.6 0.3 -0.9 0.7 -1.4 0.8 c -9.1 3 -18.3 5.9 -27.4 9 c -2.9 1 -5.4 2.9 -8.3 3.8 c -5.9 1.8 -12 3.1 -18 4.6 c -1.2 0.3 -2.4 0.6 -3.7 0.8 C 833.5 530.2 833.7 528.8 834 525.9 z M 717 578.5 c 11.1 -4.2 21.7 -7.7 31.8 -12.3 c 3.4 -1.5 5.5 -5.7 8.5 -9.1 C 749.4 556.2 718.9 572.4 717 578.5 z M 704.3 303.5 c -0.4 -6.9 -0.8 -12.9 -1.1 -19 c -0.1 -2.9 0.3 -5.8 0.2 -8.6 c 0 -0.8 -1.2 -1.5 -1.9 -2.3 c -0.5 0.7 -1.5 1.5 -1.5 2.2 c -0.2 3.3 -0.1 6.6 -0.2 9.9 c -0.3 12.4 -0.8 24.8 -1.1 37.2 c 0 1 0.3 2.8 0.6 2.8 c 1.2 0.2 2.6 0 3.6 -0.6 c 0.6 -0.3 0.6 -1.7 0.7 -2.7 c 0.1 -1.2 -0.1 -2.4 0 -3.5 C 703.8 313.5 704.1 308.1 704.3 303.5 z M 841 526 c 8.4 -0.1 15.3 -3 21.9 -7.1 c -0.7 -0.3 -1.4 -0.6 -2.2 -0.9 c 1 -0.7 1.7 -1.3 2.4 -1.8 c -2.5 0.5 -4.6 1.6 -6.8 2.5 c -2.7 1.1 -5.4 2.6 -8.2 2.7 C 843.8 521.3 843.8 520.9 841 526 z M 709.5 110 c -4.3 -4.9 -4.3 -4.9 -11.1 2.4 c 1.6 1.9 3.2 3.8 4.8 5.8 C 705.1 114.1 707.6 110.8 709.5 110 z M 842.5 442.3 c 0.2 0.5 0.3 1 0.5 1.5 c 5.6 0.6 12.2 -2.8 11.9 -6.9 C 850.7 438.8 846.6 440.6 842.5 442.3 z M 805.6 711.2 c -0.1 -0.4 -0.3 -0.8 -0.4 -1.3 c -5.6 0 -11.3 -0.4 -15.4 6 C 795.6 714.2 800.6 712.7 805.6 711.2 z M 804.2 691.7 c -9.4 3.5 -11.1 4.8 -11.4 8.3 C 799.4 698 803.7 694.8 804.2 691.7 z M 762.3 746.4 c 0.4 0.8 0.7 1.5 1.1 2.3 c 3.4 -1.8 6.8 -3.6 10.2 -5.4 c -0.3 -0.6 -0.5 -1.1 -0.8 -1.7 C 769.3 743.2 765.8 744.8 762.3 746.4 z M 933.3 697.2 c 2.7 -1.2 4.9 -2.2 7.1 -3.2 c -0.1 -0.5 -0.3 -1 -0.4 -1.4 c -4.2 0.8 -8.3 1.6 -12.5 2.5 c 0.1 0.4 0.1 0.7 0.2 1.1 c 2 -0.6 4 -1.1 6.3 -1.7 C 933.7 695.5 933.6 696.1 933.3 697.2 z M 897.8 526.1 c -0.3 -0.6 -0.6 -1.3 -0.8 -1.9 c -3 1.3 -6 2.6 -9 3.9 c 0.3 0.6 0.5 1.2 0.8 1.8 C 891.8 528.5 894.8 527.3 897.8 526.1 z M 701.5 249.9 c 0.7 0 1.5 0.1 2.2 0.1 c 0.3 -2.7 0.5 -5.5 0.8 -8.2 c -0.8 -0.1 -1.6 -0.1 -2.4 -0.2 C 701.9 244.4 701.7 247.2 701.5 249.9 z M 740.3 1071.5 c -3.6 -0.4 -6.4 -0.7 -9.1 -1.1 c -0.1 0.5 -0.1 0.9 -0.2 1.4 C 733.9 1071.3 736.1 1076.9 740.3 1071.5 z"/>
		<path class="st1" d="M 462.9 424.4 c -1.2 1.3 -2.4 2.7 -3.9 4.4 c -2.5 -4 -4.8 -2.2 -6.2 0.3 c -2.3 3.9 -4 8.2 -6 12.3 c -0.4 0.9 -1.2 1.6 -1.8 2.3 c -3.3 3.3 -6.6 6.7 -10 10 c -0.5 0.5 -1.5 0.5 -2.3 0.7 c -2.6 -2.6 -3.7 -5.2 0.3 -7.6 c 0.7 -0.5 1.4 -1 2.1 -1.5 c 0 0.8 0.1 1.6 0.1 2.4 c 4.5 -4.5 5.7 -7.9 3.8 -10.1 c -1.7 2 -3.5 4 -5.1 6.1 c -0.6 0.8 -0.7 2 -1 3 c -1.3 1 -3.7 2.4 -3.6 2.9 c 0.6 1.7 -0.4 5.1 3.3 4.5 c 1 3.4 1.8 6.9 3.1 10.2 c 2.9 7.5 5.1 15.4 9.1 22.2 c 8 13.5 14 27.7 18.9 42.5 c 1.5 4.6 3.4 9.1 4.9 13.8 c 1.3 3.9 2.1 7.8 -0.5 11.8 c -0.9 1.4 -0.6 3.9 -0.4 5.9 c 0.9 7.2 -4 12.1 -6.8 17.9 c -0.2 0.5 -1.6 0.9 -2 0.7 c -4.9 -2.8 -5.6 1.5 -6 4.2 c -1.4 7.6 -2.4 15.4 -3.1 23.1 c -1.5 15.4 -3.2 30.8 -3.9 46.3 c -0.6 13.7 -1.6 27.6 0.4 41 c 1.4 9.5 0.9 18.5 -0.1 27.7 c -0.4 3.3 -1.1 6.5 -1.2 9.7 c 0 1.2 1.6 2.5 2.5 3.8 c -2.1 3.6 -3.9 7.3 1.5 10.3 c 0.5 0.3 0.8 1.4 0.8 2.1 c 0.7 11.8 1.9 23.7 2 35.5 c 0.1 16.9 -0.7 33.7 -1 50.6 c -0.1 6.5 0 13.1 0 19.6 c 0.5 0 0.9 0 1.4 -0.1 c -0.2 -1.4 -0.4 -2.8 -0.7 -4.4 c 3.7 1.2 3.7 3.9 2.9 6.6 c -0.7 2.5 -2.1 4.9 -3.4 8.1 c 2.2 -0.4 2.9 -0.5 3.9 -0.6 c 0 6.6 0.1 13.1 0 19.6 c -0.1 4.4 -0.4 8.9 -0.7 13.3 c 0 0.5 -0.2 1.1 0 1.4 c 6 7.5 0.4 15.8 1.4 23.7 c 0.7 5.8 -0.6 11.8 -0.6 17.8 c 0 2 -4.3 7.8 3.4 5.2 c 0 0 1.2 2.1 0.9 2.7 c -3.1 6.3 -1.6 13 -2.3 19.6 c -0.7 5.7 -0.9 11.5 -1.1 17.3 c -0.1 1.7 0.8 3.5 1 5.2 c 0.2 1.8 0.7 4.2 -0.2 5.3 c -2.5 2.9 -2.1 5.3 0.8 8 c -1.7 0.7 -2.9 1.3 -4.1 1.8 c 0.4 2.5 3.8 5 -0.6 7 c -0.5 0.2 -0.3 2.6 -0.1 4 c 0.8 5.7 2.1 11.3 -0.6 16.8 c -3.2 6.5 -6.3 13.1 -9.9 19.4 c -1.6 2.8 -4.2 5.1 -6.6 7.4 c -0.3 0.3 -2 -0.5 -2.8 -1.1 c -1 -0.8 -1.7 -1.9 -3.3 -3.6 c -0.2 2.3 -0.7 3.4 -0.3 4.1 c 1.8 3.4 -0.5 4.9 -3 5 c -3.8 0.1 -4.6 2 -4.5 5.1 c 0.1 3.6 -1.5 5.3 -5.3 5.1 c -2.5 -0.1 -4.9 0.7 -6.3 0.9 c -3.7 -0.9 -6.7 -1.5 -9.6 -2.3 c -0.4 -0.1 -0.9 -0.5 -1.2 -0.8 c -5.6 -6.3 -12.9 -10.8 -16.7 -19.1 c -3.9 -8.5 -9.5 -16.3 -13.8 -24.7 c -2.3 -4.5 -3.4 -9.6 -5 -14.4 c -0.3 -1 -0.3 -2.6 -1 -3.1 c -8.1 -5.8 -8.9 -14.9 -11.2 -23.4 c -0.9 -3.4 -3.8 -6.2 -4.7 -9.6 c -1.8 -7.2 -2.7 -14.7 -4.3 -22 c -0.5 -2.3 -2.1 -4.3 -2.9 -5.8 c 0.9 -6.6 1.7 -12.8 2.6 -19 c -0.3 0.1 -0.5 0.1 -0.8 0.2 c 1.9 -3.1 3.5 -6.3 5.7 -9.1 c 1.5 -2 3.4 -4.2 5.7 -5 c 3.3 -1.1 3.6 -3 3.9 -5.9 c 0.4 -3.7 1.5 -7.3 2.2 -10.9 c 0.9 -4.8 2.2 -9.6 2.6 -14.4 c 0.4 -6.8 -0.2 -13.7 0.2 -20.6 c 0.7 -11.2 2.1 -22.3 2.8 -33.4 c 0.4 -5.7 0.1 -11.5 0.1 -16.7 c 0.1 0.6 0.4 1.7 0.8 3.1 c 0.1 -0.3 0.3 -0.5 0.3 -0.7 c 1.3 -16.1 2.8 -32.1 4 -48.2 c 1.1 -15 2.3 -29.9 3 -44.9 c 0.9 -20.1 1.3 -40.3 2.2 -60.5 c 0.7 -14.7 2 -29.3 2.8 -43.9 c 0.3 -6.2 -0.2 -12.4 0.2 -18.6 c 0.7 -12.5 1.7 -25.1 2.5 -37.6 c 0.1 -1 0.3 -1.9 0.4 -2.9 c 0.3 -12.8 0.8 -25.5 0.9 -38.3 c 0.1 -5.1 -0.7 -10.2 -0.8 -15.3 c 0 -1.2 1.1 -2.4 1.5 -3.6 c 0.5 -1.9 1.3 -4 1.1 -5.9 c -0.1 -1 -2 -2 -3.2 -2.5 c -0.4 -0.1 -1.5 1.6 -2.1 2.6 c -0.7 1.1 -1.2 2.3 -1.8 3.4 c -0.4 -0.1 -0.8 -0.3 -1.2 -0.4 c 0.6 -3.2 0.9 -6.6 1.9 -9.6 c 0.4 -1.3 2.6 -1.9 4.5 -3.3 c 0.3 2.2 0.5 3.4 0.8 5 c 0.7 -0.4 1.5 -0.6 1.7 -1 c 0.6 -1.4 1.6 -4 1.3 -4.2 c -2.2 -1.3 -4.7 -2.2 -7.1 -3.2 c 1.2 -2.8 2.6 -6.3 4.1 -9.8 c -0.6 -0.4 -1.3 -0.7 -1.9 -1.1 c -1.6 2 -3.3 3.9 -4.9 5.9 c -0.3 -0.2 -0.7 -0.4 -1 -0.5 c 1.1 -2.4 2.2 -4.7 3.2 -7.1 c 0.4 -0.9 0.2 -2 0.4 -3 c -1.2 0.1 -2.6 -0.3 -3.4 0.3 c -1.7 1.3 -3.9 2.7 -4.4 4.6 c -3 10 -11.6 16.4 -16.1 25.4 c -3.9 7.7 -8.5 15.1 -13.1 22.5 c -1.4 2.3 -3.7 4 -5.9 6.3 c 0.5 0.8 1.2 1.9 2.4 3.8 c -5.6 -0.7 -7.3 2.9 -8.8 6.5 c -0.3 0.3 -0.7 0.5 -1 0.8 c -2.2 1.8 -4.7 3.2 -6.4 5.3 c -7.2 8.6 -14.2 17.4 -21.3 26.1 c -3.5 4.3 -7.2 8.6 -11.2 13.4 c -1.3 -3.4 -2.1 -5.3 -4.8 -1.6 c -3.3 4.6 -7.7 8.4 -11.8 12.7 c -1.2 -4.1 0.3 -6.5 2.9 -9.3 c 7.9 -8.6 15.5 -17.5 22.7 -26.6 c 9.3 -11.8 18.1 -24 27.1 -36.1 c 0.5 -0.7 0.5 -1.8 0.7 -2.7 c 0.4 0.2 0.8 0.5 1.3 0.7 c 0.1 -0.2 0.1 -0.5 0.2 -0.7 c -0.5 0 -1 0.1 -1.4 0.1 c -2.8 0.8 -5.9 0.8 -6.7 4.8 c -0.3 1.5 -2.1 2.6 -3.2 3.9 c -1.3 1.6 -2.5 3.3 -3.6 5 c -0.5 0.8 -0.1 2.1 -0.6 2.8 c -5.8 7.3 -11.1 15 -17.7 21.5 c -11.5 11.4 -22.5 23.4 -35.6 33 c -1 0.8 -1.3 2.5 -2.2 4.3 c -0.6 0.2 -2 0.6 -3.4 0.9 c -0.3 -0.3 -0.5 -0.7 -0.8 -1 c 1.5 -7.5 3.8 -14.2 9.4 -20.2 c 5.4 -5.7 9 -13.1 13.6 -19.6 c 3.6 -5.1 7.6 -10 11.4 -14.9 c -0.4 -0.4 -0.8 -0.9 -1.2 -1.3 c -1.5 1.2 -3.4 2.1 -4.4 3.5 c -3.8 5.2 -7.1 10.8 -11.2 15.9 c -1.8 2.2 -4.9 3.2 -8 4 c 8.2 -12.3 17.2 -23.6 27.3 -33.9 c 0.6 0.5 1.3 0.9 1.9 1.4 c -1.2 2 -2.4 3.9 -4 6.4 c 0.9 0 2.3 0.3 2.7 -0.2 c 8.9 -12.1 17.7 -24.2 26.5 -36.3 c 1.4 -2 3 -3.8 4.5 -5.7 c 0.4 0.2 0.7 0.4 1.1 0.7 c -5 9 -9.9 18 -14.9 27 c 0.4 0.5 0.7 0.9 1.1 1.4 c 1.4 -0.5 3.4 -0.5 4.1 -1.5 c 3 -4.2 5.6 -8.8 8.5 -13 c 1.3 -1.8 3.3 -3.1 4.5 -4.9 c 4.1 -6.2 8.1 -12.5 12 -18.8 c 0.7 -1.2 1 -2.8 1.2 -4.2 c 0.2 -1.8 0.1 -3.7 0.2 -5.5 c -1.5 0 -3 0.2 -4.4 -0.1 c -1.5 -0.3 -3.1 -0.9 -4.2 -1.9 c -0.6 -0.5 -0.8 -2.4 -0.4 -3.2 c 2.6 -4.9 5.1 -9.9 8.2 -14.4 c 3.6 -5.3 4.4 -12.1 9.2 -16.7 c 1.1 -1.1 1.2 -3.4 1.3 -5.1 c 0 -1 -1.1 -2.1 -1.7 -3.2 c -0.8 0.6 -1.7 1.1 -2.4 1.8 c -5.1 6 -10.2 12 -14.5 17 c -7.2 0.7 -7.3 -5.1 -10 -7.7 c 10 -15.1 20 -30.2 29.9 -45.3 c 0.4 -0.7 1.1 -1.4 1.2 -2.1 c 0.4 -10.6 8.7 -17.2 13.1 -25.7 c 4.4 -8.5 9.2 -16.5 9.5 -26.3 c 0 -1.4 0.8 -2.8 1.5 -4 c 6 -10.1 12.3 -20 18 -30.2 c 3.3 -5.9 5.6 -12.4 8.8 -18.5 c 5 -9.7 10.7 -19.1 15.4 -28.9 c 5.1 -10.7 9.4 -21.7 14.3 -32.5 c 1.4 -3.1 3.7 -5.8 4.9 -9 c 2.5 -7 4.6 -14.1 6.8 -21.2 c 3.3 -11.2 7.1 -22.3 9.7 -33.7 c 2.3 -10.3 4.3 -20.8 -1 -31.1 c -0.6 -1.2 -0.4 -2.9 -0.6 -5.3 c 5.9 0.5 11.4 1 17 1.3 c 7.6 0.4 15.3 1.3 22.9 0.9 c 8.7 -0.5 16.4 2.5 24.4 4.7 c 8.6 2.3 17.2 4.7 25.7 7.5 c 6.3 2 12.4 4.6 18.5 7.2 c 0.9 0.4 1.3 1.9 2.1 2.5 c 2.4 2 4.9 3.8 7.5 5.6 c 5.2 3.6 10.8 6.7 15.5 10.9 c 5.8 5.1 10.9 11 16 16.8 c 1.1 1.2 0.7 3.7 1.1 5.7 c 0.2 0.9 0.1 2.1 0.7 2.7 c 1.3 1.4 2.6 2.5 0.5 4.4 c -0.5 0.4 -0.3 1.9 -0.1 2.9 c 1.9 8 -2.7 15 -3.9 22.5 c -0.4 2.4 -4.3 4.6 -7.1 6.1 c -7 3.8 -12.9 8.5 -18.7 14.2 c -8.8 8.7 -14.4 19.3 -21.4 28.9 c -6.3 8.7 -14.4 16 -19.9 25.3 c -4 6.8 -7.5 13.9 -11.3 20.8 c -2 3.6 -4.2 7 -6.1 10.6 c -0.4 0.7 -0.1 1.7 -0.1 2.6 c -0.3 0.3 -0.7 0.5 -1 0.8 c -7.5 11.7 -15 23.4 -22.3 35.2 c -0.6 0.9 -1.9 3.6 1.5 4.4 c 0.8 0.2 1.1 2.9 1.8 4.8 c 0.8 -0.3 1.8 -0.7 3.2 -1.2 c -0.1 1.3 0.2 2.7 -0.3 3.5 c -2.6 3.7 -4.9 7.3 -5.9 11.8 c -0.9 3.9 -4.1 6.3 -7.6 8.8 c -4.5 3.2 -7.6 8.4 -11.1 12.8 c -2.5 3.2 -4.7 6.6 -7 9.9 c -0.3 -0.3 -0.6 -0.6 -0.9 -0.9 c 0.1 -0.9 0.2 -1.8 0.3 -2.7 c -0.9 0.1 -2.1 -0.1 -2.6 0.4 c -1.5 1.7 -2.8 3.6 -4.1 5.5 c 0.4 0.4 0.8 0.7 1.2 1.1 c 1.1 -0.4 2.2 -0.8 3.2 -1.2 C 462.2 423.9 462.5 424.1 462.9 424.4 z M 341.2 487.3 c -0.4 -0.3 -0.8 -0.5 -1.3 -0.8 c -4.2 5.1 -8.9 9.7 -11.2 16.1 c 0.5 0.4 1 0.8 1.5 1.2 c 3.2 -4.1 6.3 -8.3 9.5 -12.4 c 0.2 0.2 0.5 0.4 0.7 0.5 c -0.5 3.1 -0.9 6.2 -1.4 9.4 c 0.3 0 0.7 0.1 1 0.1 c 4 -6.7 8 -13.4 12 -20.1 c -0.6 -0.4 -1.2 -0.7 -1.8 -1.1 c -2.7 3.9 -5.5 7.8 -8.2 11.7 c -0.3 -0.1 -0.6 -0.3 -0.9 -0.4 C 341.2 490 341.2 488.6 341.2 487.3 z M 320.9 516.9 c 3 -4.1 5.2 -7.2 7.7 -10.6 C 324 506.3 321.5 509.6 320.9 516.9 z"/>
		<path class="st1" d="M 607.7 943.3 c -2.4 -0.7 -4.4 -1.3 -6.3 -1.9 c -4.3 -1.3 -8.7 -2.4 -12.8 -4.1 c -4.3 -1.7 -8.3 -4.6 -12.7 -5.7 c -2.4 -0.7 -5.5 1.7 -8.2 1.6 c -2.4 -0.2 -2.2 -5.7 -6.5 -4.1 c -0.6 0.2 -1.6 -0.2 -2.2 -0.7 c -11.8 -8.6 -26.1 -9.1 -39.6 -12.1 c -5.1 -1.1 -10.2 -1.9 -15.3 -3 c -2.8 -0.6 -3.5 -2.3 -1.5 -4.7 c 1.6 -1.9 2.9 -4.1 4.7 -5.6 c 2.6 -2.1 4.5 -4 3.1 -6.1 c 3.9 -3.2 7.8 -5.8 10.9 -9.1 c 9.9 -10.6 23.1 -15 36.2 -19.7 c 6.9 -2.4 13.9 -4.3 20.9 -6.4 c 13.8 -4 27.6 -8.6 41.6 -11.6 c 8.7 -1.8 17.9 -0.9 26.9 -1.2 c 9.3 -0.3 18.3 1.4 26.5 6.1 c 3.3 1.9 6 4.8 8.6 7.7 c 3.2 3.5 6 7.4 9.2 10.9 c 1.3 1.4 3.2 2.2 4.9 3.2 c 6.5 3.9 13.3 7.5 19.6 11.8 c 4.2 2.9 6.9 7.5 11.2 10.7 c 3.3 2.5 4.1 8.3 6.1 12.5 c 1.1 2.4 2.6 4.7 3.5 7.3 c 0.5 1.3 0.6 3.6 -0.2 4.3 c -3.1 3 -6.1 5.6 -1.8 10.1 c 0.6 0.6 -0.4 3.3 -1.2 4.6 c -1 1.6 -3.4 2.6 -3.7 4.2 c -2.2 10.4 -11.4 10.7 -18.9 12.9 c -14.2 4.3 -27.7 -1 -41.5 -3.2 c -7 -1.1 -14.2 -1.6 -20.8 -3.9 c -6.6 -2.3 -13.6 -1.1 -20.5 -4.4 C 622.2 941.1 614.1 939.2 607.7 943.3 z"/>
		<path class="st1" d="M 240.8 576 c 2.8 -10.6 11.4 -18.3 16.2 -27.9 c -0.5 -0.4 -1 -0.8 -1.5 -1.2 c -3.2 3.2 -6.4 6.5 -10 10.2 c 0.3 -1.3 0.3 -2.2 0.7 -2.8 c 5.3 -7.8 10.7 -15.5 16.1 -23.3 c 0.4 -0.6 1 -1.8 1.4 -1.7 c 8.3 0.9 8.1 -8.7 13.8 -11.2 c 0.7 -0.3 0.5 -3 0.5 -3.5 c 3.7 -2.2 6.9 -4 10.2 -6 c -4 -5.6 5.5 -0.8 5 -4.2 C 279.8 531.2 262 554.7 240.8 576 z"/>
		<path class="st1" d="M 681.6 1003.5 c -7.8 -0.4 -15.6 -0.7 -24 -1.1 c 0.8 1.5 1.3 2.4 1.8 3.4 c -0.3 0.2 -0.5 0.5 -0.7 0.6 c -4.3 0.7 -8.5 1.7 -12.8 1.9 c -2.4 0.1 -4.9 -1.3 -7.3 -1.8 c -4.5 -1 -9.1 -2 -13.7 -2.9 c 4.3 -2.2 8.2 -4.6 12.5 -6.1 c 2.1 -0.7 4.8 0.2 7.2 0.7 c 10.4 2.5 20.8 2.5 31.4 1.2 c 1.9 -0.2 4 1.6 6 2.5 C 681.8 1002.4 681.7 1003 681.6 1003.5 z"/>
		<path class="st1" d="M 306.4 483.3 c -3.9 6.9 -7.8 13.9 -11.8 21 c -1.2 -3.9 -2.9 -7.3 -3.2 -10.8 c -0.2 -2.2 1 -5.1 2.5 -6.6 c 1.4 -1.4 4.2 -1.4 6.4 -2.1 c 0.2 0.4 0.3 0.9 0.5 1.3 c 1.4 -1.2 2.9 -2.5 4.3 -3.7 C 305.5 482.6 306 483 306.4 483.3 z"/>
		<path class="st1" d="M 320.4 447.1 c 1.5 0.5 2.7 0.9 5.1 1.8 c -3.8 3.8 -7.2 7.2 -10.6 10.6 c -0.2 -0.2 -0.4 -0.3 -0.6 -0.5 c 3 -1.3 6 -2.5 9 -3.8 c 0.3 0.3 0.5 0.5 0.8 0.8 c -1.6 2.1 -3.3 4.2 -5.2 6.7 c -2.3 -3.6 -3.7 -1.8 -4.7 0.9 c -5.6 -3.3 -2.7 -6 0 -8.8 C 316.3 452.5 318.2 449.8 320.4 447.1 z"/>
		<path class="st1" d="M 504 367.9 c -2.6 2.6 -4.7 4.6 -6.8 6.7 c -2.7 -3.9 1.1 -6 2.4 -8.9 c 0.9 -1.9 1.8 -3.8 2.9 -5.6 c 1.5 -2.6 3.2 -5.2 4.8 -7.8 c 0.5 0.2 0.9 0.5 1.4 0.7 C 507.1 358.1 505.5 363.3 504 367.9 z"/>
		<path class="st1" d="M 726.8 1014.4 c -4.4 4.3 -4.4 4.3 -16.8 -2.5 C 716.8 1010.9 725.1 1012.1 726.8 1014.4 z"/>
		<path class="st1" d="M 360.8 495.1 c 4.4 -5.9 8.7 -11.8 13.1 -17.6 c 0.5 0.4 1 0.7 1.6 1.1 c -1.9 2.8 -3.8 5.6 -5.7 8.4 c -0.9 1.3 -2.3 2.5 -2.7 3.9 C 366.1 494.4 365.1 495.3 360.8 495.1 z"/>
		<path class="st1" d="M 492 370.1 c 3.2 -5.4 6.3 -10.7 9.5 -16.1 c 0.6 0.4 1.2 0.7 1.9 1.1 c -3 5.4 -6.1 10.8 -9.1 16.3 C 493.4 370.9 492.7 370.5 492 370.1 z"/>
		<path class="st1" d="M 700.6 1008.1 c 0.7 -0.6 1.3 -1.2 2.3 -2.1 c -1.3 -1 -2.3 -1.8 -4.5 -3.6 c 4.4 0.4 7.3 0.7 10.3 1 c 0.2 0.5 0.4 0.9 0.7 1.4 c -2.6 1.4 -5.3 2.9 -7.9 4.3 C 701.1 1008.8 700.8 1008.5 700.6 1008.1 z"/>
		<path class="st1" d="M 714.5 1000.5 c -4.3 0 -8.5 0 -12.8 0 c 0 -0.5 0 -1.1 0 -1.6 c 4.3 0 8.5 0 12.8 0 C 714.4 999.4 714.5 1000 714.5 1000.5 z"/>
		<path class="st1" d="M 240.4 561.5 c 1.2 -1.3 2.4 -2.6 3.6 -3.9 c 0.4 0.3 0.8 0.6 1.2 1 c -1.1 1.4 -2.2 2.8 -3.3 4.3 C 241.3 562.4 240.8 561.9 240.4 561.5 z"/>
		<path class="st1" d="M 508.5 352.6 c 0.2 -1.3 0.5 -2.7 0.7 -4 c 0.5 0.1 0.9 0.2 1.4 0.2 c -0.2 1.3 -0.4 2.7 -0.6 4 C 509.5 352.8 509 352.7 508.5 352.6 z"/>
		<path class="st1" d="M 701.3 1009.1 c -0.8 0.7 -1.6 1.4 -2.4 2 c -0.4 -0.5 -0.7 -1 -1.1 -1.5 c 0.9 -0.5 1.8 -1 2.8 -1.6 C 700.8 1008.5 701.1 1008.8 701.3 1009.1 z"/>
		<path class="st1" d="M 464.9 421.5 c -0.7 1 -1.3 2 -2 3 c -0.3 -0.3 -0.6 -0.6 -0.9 -0.9 c 0.7 -1 1.3 -2 2 -3 C 464.2 420.9 464.5 421.2 464.9 421.5 z"/>
		<path class="st1" d="M 702.5 698.1 c 0.9 -0.6 1.9 -1.2 2.8 -1.7 c 0.2 0.3 0.4 0.6 0.6 0.9 c -0.8 0.5 -1.7 1.1 -2.5 1.6 C 703.2 698.7 702.9 698.4 702.5 698.1 z"/>
		<path class="st1" d="M 252.3 595.1 c -0.3 0.7 -0.7 1.4 -1 2 c -0.3 -0.1 -0.6 -0.2 -0.9 -0.3 c 0.4 -0.9 0.7 -1.8 1.1 -2.8 C 251.8 594.5 252.1 594.8 252.3 595.1 z"/>
		<path class="st1" d="M 513.6 330.7 c 0.3 0.5 0.6 1 0.8 1.5 c -0.6 -0.2 -1.3 -0.5 -1.9 -0.7 C 512.9 331.2 513.2 331 513.6 330.7 z"/>
		<path class="st1" d="M 328.6 536.7 c 0.3 0.5 0.6 1 0.9 1.4 c -0.6 -0.2 -1.3 -0.4 -1.9 -0.7 C 327.9 537.2 328.2 536.9 328.6 536.7 z"/>
		<path class="st1" d="M 377.3 485.2 c -0.5 0.4 -0.9 0.6 -1.2 0.9 c -0.2 -0.4 -0.4 -0.8 -0.4 -1.2 c 0 -0.2 0.6 -0.6 0.7 -0.6 C 376.7 484.4 377 484.8 377.3 485.2 z"/>
		<path class="st1" d="M 821.6 1116.6 c -0.1 0.1 -0.1 0.2 -0.2 0.4 c -0.2 -0.1 -0.3 -0.2 -0.5 -0.4 c 0.1 -0.1 0.2 -0.3 0.4 -0.3 C 821.4 1116.3 821.5 1116.5 821.6 1116.6 z"/>
	</g>
</g>
</svg>
