<?xml version="1.0" encoding="utf-8"?>
<!-- Generator: Adobe Illustrator 24.3.0, SVG Export Plug-In . SVG Version: 6.00 Build 0)  -->
<svg version="1.1" id="text_black" xmlns="http://www.w3.org/2000/svg" xmlns:xlink="http://www.w3.org/1999/xlink" x="0px" y="0px"
	 viewBox="0 0 7000 1319" style="enable-background:new 0 0 7000 1319;" xml:space="preserve">
<style type="text/css">
	.st1{fill:#BA0022;}
</style>
<g>
	<g>
		<path d="M5593,298c10.3,0,20.7,0,31,0c0.8,4.9,5,4.6,8.1,4.4c5.5-0.4,12,2,15.9-4.4c0.7,0,1.3,0,2,0c1.1,4.3,3.8,7.2,8.2,7.5
			c6.4,0.4,12.2,2.2,17.9,5.2c4.5,2.3,5.6,4.4,4,8.9c-0.5,1.3,0.1,3.1,0.2,4.7c1.5-0.3,3.3-0.1,4.5-0.8c3.7-2.3,7-2.5,10.7,0.1
			c1.3,0.9,3,1.6,4.6,1.9c3.5,0.7,5.4,2.7,6.6,6c0.4,1.3,3,3,3.9,2.7c5.3-2,7.3,0.9,8.8,5.2c0.7,1.9,1.9,4.1,3.5,5.1
			c9.9,6.2,18.3,13.6,23.1,24.6c1.1,2.5,2.9,5,5,6.8c6.8,5.9,12,12.6,15.4,21.1c6.2,15.4,10.3,31,8.6,47.7
			c-2.6,25.6-13.5,48.1-28.8,68.1c-21.4,28-46.1,53.1-72.2,76.7c-16.5,15-33.4,29.5-50.2,44.2c-1,0.9-2.2,1.4-3.3,2.2
			c-8,5.6-16.8,10.3-23.7,16.9c-10.6,10.1-19.8,21.8-32.2,30.1c-1.1,0.8-2.2,2.9-1.9,4.1c0.2,1.1,2.3,2,3.6,2.6
			c1,0.4,2.3,0.4,3.5,0.3c18.9-1.5,37.8-2.9,56.7-4.5c1.8-0.1,3.5-1.2,5.2-1.8c3.8-1.4,7.2-1.5,10.9,0.9c2,1.3,5.1,1.6,7.5,1.1
			c11.8-2.2,23.7-4.5,35.3-7.6c5.6-1.5,10.8-4.6,16.1-7.1c2.7-1.3,5.3-3.4,8.2-3.9c11.5-2.3,23.2-4,34.8-6.1
			c9.7-1.8,19.2-3.3,28.8,1.5c3.5,1.7,8.4,1.2,12.6,0.6c2-0.3,4.4-2.6,5.3-4.6c6.5-14.6,12.4-29.4,19-43.9
			c8.1-17.9,16.4-35.6,25-53.2c10-20.3,20.3-40.4,30.6-60.6c9.8-19.1,19.3-38.3,29.7-57c9.4-17,20.2-33.3,29.8-50.1
			c6-10.6,13.2-20.8,13.6-33.8c0.2-6.6,5.2-10.2,11.9-11.1c2.5-0.3,5.5-1.2,7.2-2.8c4.6-4.3,10.2-5.8,15.9-6.1
			c5.7-0.3,12.3-1.1,16.2,5c5,7.7,9.8,15.4,14.7,23.2c6.3,10,12.2,20.2,18.9,29.9c1.6,2.3,5.2,4.5,8,4.7c9.6,0.7,17.7,6.3,20,15.6
			c1.5,6,2.7,12.1,2.9,18.2c1,29.3,2.1,58.6,2.2,87.9c0.1,27.2-1.1,54.3-1.8,81.5c-0.2,8.2,0.3,8.6,8.7,8.7c5,0.1,10.7-0.7,14.8,1.4
			c6.5,3.3,11.5,0.8,17.5-0.6c15.4-3.7,30.9-6.4,46.5-9.3c2-0.4,4.3,0.1,6.4,0.6c4.1,1,8.2,2.3,12.2,3.6c0.7,0.2,1.4,0.8,1.8,1.5
			c3.5,5.5,0.2,12.6-6.2,13.1c-3.2,0.2-5.5,1.1-6.3,4.5c-1,4.1-3.6,6.6-7.7,7.6c-3.4,0.8-6.7,2-10.1,2.7c-3.4,0.7-5.7,1.3-2.7,5.4
			c0.7,1,0.2,3.8-0.7,4.9c-3,3.7-6.3,7.2-9.9,10.3c-3.1,2.7-6.4,5.4-10,7c-8,3.6-16.5,6.2-24.4,10c-11.6,5.4-22.9,11.5-34.2,17.4
			c-2.3,1.2-4.2,3-6.3,4.6c0.3,0.5,0.6,1.1,0.8,1.6c5.6-0.7,11.3-1.4,16.9-2.1c0.1,0.5,0.1,0.9,0.2,1.4c-3.8,1.8-7.5,4-11.5,5.2
			c-6.9,2.1-10.7,7-12,13.4c-2.9,14.2-4.8,28.5-7.4,42.7c-2,11.1-4.4,22.1-6.7,33.2c-0.1,0.3-0.1,0.7-0.3,0.9
			c-0.7,0.8-1.5,1.6-2.3,2.4c-0.9-0.9-2.4-1.6-2.5-2.6c-0.5-3.4-0.2-7-0.8-10.4c-0.3-1.7-2.7-4.6-3.2-4.4c-2.5,0.9-5.2,2.3-6.7,4.4
			c-0.9,1.3-0.6,4.7,0.5,6.1c2.5,3.2,1.3,5.2-1.1,7.2c-1,0.8-2.3,1.3-3.5,1.9c-3.2,1.7-4,3.8-1.4,6.7c6.9,7.7,5.7,17,5,26.1
			c-0.1,1.3-1.3,2.7-2.4,3.6c-4.9,4-5.2,5.2,0.1,9.1c4.6,3.4,6.5,7.6,6.2,13.3c-0.7,10.8,2,20.6,7.7,30c4.8,7.9,8.6,16.3,12.7,24.6
			c0.7,1.5,1.6,3.1,1.6,4.7c0.2,8,3.4,14.4,9.3,19.7c1.1,1,2.2,2.2,2.7,3.5c0.5,1.3,0.4,2.9,0.5,4.4c-1.4-0.2-3.3,0.1-4-0.6
			c-6.7-7.1-14.3-13.4-16.2-23.9c-0.7-3.9-3.4-7.5-5.4-11.1c-1.7-3-3.9-5.8-5.5-8.9c-2.1-4.2-3.9-8.5-6.3-13.8c-0.4,2-0.9,3-0.9,4.1
			c-0.1,11.7,3.3,22.5,9.8,32c8.5,12.3,17.9,24,26.6,36.2c1.6,2.3,1.7,5.6,2.6,8.5c-3,0.3-6.1,0.8-9.1,0.8c-1.4,0-2.7-1.2-4.1-1.8
			c-2.9-1.3-5.7-3.3-8.7-3.6c-8.9-0.9-15.3-6-21.5-11.7c-12.9-11.9-24.5-24.9-33-40.5c-4.3-7.9-9.5-15.4-12.8-23.7
			c-6.1-15.3-10.9-31-16.7-46.4c-1.9-5.1-4.4-10.1-7.6-14.5c-2.2-3.1-3.1-5.8-1.7-9.1c1.8-4.4,1.4-8.6-1.6-12.2
			c-5.2-6.2-6.1-13.4-6.3-21c-0.4-14.2-0.9-28.3-1.3-42.5c-0.1-3.6-1.6-5.3-5.3-4.8c-1.8,0.3-4.3,0-5.3,1.1
			c-5.5,5.8-12.5,5-19.4,5.4c-11.2,0.7-19,8.2-27.1,14.8c-2.4,1.9-5.1,4.3-7.9,4.7c-4.6,0.6-6.7,2.8-8.1,6.8c-0.6,1.7-2,3.1-3.1,4.7
			c-0.7-0.3-1.5-0.7-2.2-1c0.8-2.9,1.9-5.7,2.3-8.6c0.3-2.6,0.6-6.1-0.8-7.7c-1.4-1.5-5-1.5-7.6-1.3c-1.6,0.1-3.4,1.4-4.7,2.6
			c-10.5,10.2-20.8,20.6-27.3,34c-0.6,1.3-1.8,2.4-2.7,3.5c-12.4,14.8-24.8,29.5-33.5,47c-0.8,1.5-2.4,2.7-3.7,3.9
			c-2.6,2.6-5.4,4.9-7.7,7.7c-3.1,3.9-5.7,8.2-8.6,12.3c-10.2,14.7-20.4,29.4-30.6,44.1c-0.8,1.2-1.4,2.6-2,4
			c-3.3,8.1-5.3,16.9-13.3,22.2c-1,0.7-1.7,2.1-2.3,3.2c-3.6,7.7-7.7,15.2-10.4,23.2c-1.8,5.4-5.6,11.5-0.2,17.4
			c0.3,0.3-1.5,3.5-2.8,3.9c-1.7,0.6-4,0-5.8-0.6c-2.8-1-5.4-2.5-8.5-0.4c-0.4,0.3-3.3-1.6-3.5-2.7c-0.6-3.6-0.3-7.3-0.6-10.9
			c-0.1-1.3-0.8-2.6-1.2-3.9c-1.3,0.9-3.1,1.5-3.7,2.6c-0.8,1.7-0.8,3.8-1.1,5.8c-0.4,2.6-0.5,5.3-1.1,7.9c-0.2,0.9-1.5,1.5-2.2,2.2
			c-0.7-0.8-1.7-1.6-1.9-2.6c-0.3-1.2-0.3-2.7,0-4c1.3-7,2.3-14.1,4-21.1c4.2-16.4,8.2-32.9,13.2-49.1c4.5-14.8,10-29.2,15.1-43.8
			c1.7-4.8,2.7-9.9,7.2-13.4c1.6-1.3,2.3-3.9,3.1-6.1c1.8-5.2,3-10.6,5.2-15.6c10.6-23.8,21.6-47.5,32.3-71.3
			c2.4-5.3,4-10.9,5.5-16.5c0.7-2.8-0.4-5.8-4.2-4.7c-3.6,1-7.4,2.4-10.5,4.5c-11.4,7.6-23,15.1-33.8,23.5
			c-8.2,6.3-16.3,12.2-26.4,15.5c-17,5.6-33.4,12.9-50.5,18.4c-7.3,2.4-15.4,2.1-23.1,3.3c-7,1.1-13.9,3.4-21,4
			c-24.2,2-48.5,3.3-72.8,5.4c-12.1,1-24.1,3.2-36.1,5c-4.1,0.6-7.8,1.7-9.5,6.2c-0.5,1.3-2.2,2.2-3.5,3.4c-1.2-1.8-2-3-2.8-4.1
			c-0.2-0.6-0.5-1.2-0.7-1.8c-3.6,8.6-9.9,5.6-15.6,5.9c-2.1,0.1-4.2,0.9-6.1,1.8c-7,3.6-7,10.3-5.9,16.6c1.1,6.8-0.8,12.3-3.8,18.1
			c-2.6,4.9-4,10.4-5.9,15.7c-1.5,4.2-2.3,8.7-4.5,12.5c-3.7,6.2-5.3,12.8-6.1,19.9c-0.4,4-0.4,8.2-1.9,11.8
			c-1.9,4.6-4.5,9.2-8,12.7c-3.7,3.8-5.4,7.6-5.2,12.8c0.2,4.8,0.3,9.7-0.8,14.3c-2.8,11.4-6.3,22.6-9.6,33.8
			c-0.4,1.3-1.5,2.6-2.5,3.6c-4.9,4.3-5.4,7.3-3.1,13.1c0.8,1.9,1.1,5.5,0,6.5c-2.5,2.2-5.3,0.6-7.3-1.7c-0.3-0.4-0.6-0.9-1-1.1
			c-1.2-0.7-2.7-2.1-3.7-1.8c-1,0.3-1.7,2.2-2.3,3.5c-1.6,3.4-3.1,6.8-4.6,10.3c-0.4,1-0.7,2.1-1,3.2c-2.3,0-4.7,0-7,0
			c-0.1-0.8,0.1-1.8-0.3-2.4c-6.3-10.9-7.3-23.1-7.9-35.3c-1.7-35.8,2.8-71.2,7.3-106.6c2.4-19,6.3-37.8,0-56.6
			c-0.4-1.3-1.2-3.1-2.2-3.4c-1-0.3-2.7,0.7-3.8,1.6c-1.1,0.9-2,2.2-2.7,3.6c-2,4.1-4.3,6.8-9.3,3.8c-0.8-0.5-2.3,0.1-3.3-0.2
			c-2.7-0.7-6.4-0.7-7.8-2.5c-3-3.8-5.2-8.4-7-12.9c-1.8-4.8-2.2-10.1-4.1-14.9c-3.7-9.5-10.3-16.9-19.6-20.7
			c-7.6-3.2-9.1-5.3-4.5-12.2c0.5-0.7,0.9-1.4,1.2-2.2c2.8-7,5.6-14,8.3-21.1c1.2-3.2,2.5-6.5,3-9.9c0.6-4.4,2.5-6.7,6.9-7.1
			c6.1-0.5,12.3-1.1,18.4-1.5c10-0.7,19.4-2.6,27.2-9.5c13.2-11.7,20.8-27,28-42.6c0.3-0.7,0.3-1.6,0.4-2.5
			c6.5-45.3,12.8-90.7,19.7-135.9c4.9-31.8,10.7-63.4,16.2-95c1.2-6.9,0.1-7.6-6.9-7.4c-20.8,0.7-41.6,1.2-62.4,1.5
			c-5.3,0.1-10.6-0.7-16-0.7c-5.3,0-6.6,2-4.4,6.9c0.6,1.3,1.9,2.3,2.5,3.7c0.5,1.2,1.1,3.3,0.5,3.9c-2.9,2.9-1.8,6-1.2,9.3
			c0.5,2.7,0.3,5.7-0.4,8.3c-3.1,11.7-6.7,23.2-9.9,34.9c-1.1,4-1.8,8.2-1.9,12.3c-0.4,13.7-5.6,25.3-14.5,35.4
			c-3.4,3.9-2.3,7.9,2.4,10.1c1.4,0.7,2.8,2.7,3.1,4.3c0.9,5.3-1.4,9.4-4.8,13.5c-2.4,2.9-4.4,7.6-3.8,11.1c1.1,6.9-1.2,12.5-4.3,18
			c-7.7,13.9-8.3,29.2-9,44.5c-0.2,4.1,0.9,8.4,0.1,12.4c-4.2,20.8-4.8,42-6.4,63.1c-1.2,15.7-3.7,31.4-5.8,47
			c-1.6,12.2-3.5,24.3-5.1,36.5c-1.6,12.5-3.5,24.9-10.6,35.5c-4.9,7.3-8.4,14.6-6,23.6c0.3,1.2-0.1,2.7-0.4,3.9
			c-1.7,7-3.4,13.9-5.1,20.8c-0.4,1.5-1.2,2.9-1.8,4.5c-2.1-1-3.5-1.7-5.7-2.7c-0.3,2.4-0.5,4.3-0.7,6.2c-0.6,5.8-0.3,11.8-2,17.2
			c-2.4,7.3-5.4,14.3-4.8,22.2c0.2,2.2-1.2,4.5-1.9,6.8c-0.5-0.1-1.1-0.1-1.6-0.2c-0.4-1.2-1.1-2.3-1.3-3.5
			c-0.5-2.6-0.3-5.5-1.2-7.9c-0.9-2.1-3-3.8-4.6-5.7c-1.3,1.9-2.7,3.8-3.8,5.8c-0.6,1.1-0.2,2.7-0.7,3.9c-0.7,1.5-1.9,2.8-2.9,4.2
			c-0.8-1.4-2.4-2.9-2.3-4.3c0.2-3.2,1.2-6.4,1.7-9.6c0.3-1.8,0-3.6,0-5.4c-1.8,0.7-4.8,0.8-5.4,2.1c-2.2,4.9-7,9.2-4.7,15.6
			c0.4,1-0.7,2.8-1.6,3.8c-2.3,2.8-4.7,5.5-7.2,8.1c-0.7,0.7-2.2,1.6-2.7,1.3c-0.8-0.4-1.5-1.8-1.5-2.8c0-1.6,0.8-3.2,1-4.8
			c0.2-1.5,0-3.1,0-5.9c-4.6,4.2-7.8,7.4-6.4,12.8c0.9,3.5-1,5.3-4.2,5c-5.9-0.6-11.9-1.6-17.7-2.6c-2.9-0.5-4.4-2.4-4.6-5.6
			c-0.2-2.8-0.6-5.7-1.8-8.2c-2.6-5.3-2.4-6,3.7-6.1c1.3,0,2.7,0.1,4-0.1c3.7-0.4,5.1-2.5,3.3-5.9c-1.2-2.3-3-4.4-4.6-6.5
			c-2.6-3.4-3.2-9-0.4-10.9c3.6-2.4,2.8-5.2,1.9-8.3c-1.5-5.2-4.8-10-3.3-15.9c0.2-0.8-1.2-2.5-2.2-2.9c-4.5-1.7-4.7-5.1-4.1-9
			c0.7-4.9,1.8-9.9,2-14.8c0.8-16.9,3.3-33.4,7.6-49.8c2.1-8.2,3.2-16.6,4.8-25c0.7-3.7,1.7-7.4,2.4-11.2c0.4-2.2,0.5-4.5,0.8-6.7
			c-0.6-0.1-1.3-0.2-1.9-0.3c-0.4,1.6-0.7,3.2-1.3,4.8c-1.2,3.2-1.7,7.6-4.1,9.2c-4.9,3.5-7,8.2-9.6,13.3
			c-3.4,6.8-8.7,12.6-12.5,19.2c-5.8,9.9-10.5,20.3-16.5,30.1c-16.7,27.4-33.6,54.7-50.8,81.8c-2.5,3.9-7,7.4-11.3,8.9
			c-5.5,1.9-10.1,4.1-13.1,9c-1.8,2.9-2.9,7.2-8,4.6c-0.4-0.2-2.1,1.4-2.8,2.4c-3.7,5.3-7.3,10.8-11.1,16c-3.6,5-8.7,5.6-11.6,1.6
			c-3.8-5.2-4.8-5.5-9.6-1.4c-4.7,4-9.1,8.2-13.7,12.4c-6.4,5.9-11.4,4.6-14.3-3.4c-0.6-1.7-1.7-3.1-2.8-5.2c-3.9,7.1-3.9,7.1-9.9,3
			c-1.1-0.7-2.2-1.5-3.2-2.3c-2.9-2.6-5.8-2.6-9-0.4c-1.5,1-3.7,1.7-5.4,1.3c-3.5-0.7-7-1.9-10.2-3.4c-2.3-1.1-4.1-3.1-6.1-4.8
			c-1.2-1-2.1-2.3-3.1-3.5c-1.1,1.3-2.7,2.5-3.2,4c-1.5,4.5-4.5,6-8.5,4.1c-5.7-2.7-11.7-5.2-16.4-9.2
			c-15.3-13.3-23.5-43.4-18.1-63.2c0.5-1.8,0.5-3.7,1.1-5.4c0.9-2.8,1.7-5.7,3.3-8.1c1.9-2.7,1.7-4.9,0.6-7.9
			c-1.4-3.6-3-7.6-2.8-11.4c0.8-20,2-39.9,3.4-59.9c1.2-18.1,2.9-36.2,4-54.3c0.3-5.6-2.1-11.6,3-16.4c0.6-0.6,0.6-1.9,0.8-2.9
			c3.8-23.7,7.9-47.3,11.4-71c3.4-23.6,6.3-47.2,9.4-70.8c1.5-11.7,3-23.5,4.7-35.2c2.2-15.2,4.5-30.3,6.8-45.4
			c0.6-3.9,1.4-7.9,2.1-11.8c0.6-3.2,1.5-6,5.4-7c1.2-0.3,2.6-2.8,2.6-4.3c-0.2-9.7,6-14.1,13.7-17.5c4.5-2,8.7-4.5,13.2-6.5
			c2.4-1.1,5-2.1,7.5-2.1c3.8,0,7.6,1,11.3,1.5c8.5,1.1,16.7,5.3,25.5,2c1.2-0.4,3.1,0.1,4.2,0.9c3.7,2.5,7.3,5.1,10.7,8
			c1.4,1.2,2.8,3.1,3.1,4.9c0.8,4.3,2.9,5.9,7.4,6.2c8.4,0.5,12.8,7,11,14.9c-0.3,1.5,0.3,3.2,0.5,4.8c0.2,1.8,0.6,3.6,0.6,5.4
			c0.1,5.4,0,10.9,0.2,16.3c0,1,0.9,2,1.3,3.1c1.6-1.9,1.5-4.4,2.6-5.1c5.3-3.6,2.4-7.8,1.4-11.9c-0.8-3-1.5-6.1-1.7-9.3
			c-0.1-1.6,1.1-3.3,1.6-5c0.5,0.1,1.1,0.1,1.6,0.2c0.4,1.8,0.8,3.6,1.3,5.4c0.6,2,0.9,4.4,2.1,6c3,4,3.4,8,1.5,12.6
			c-3.9,9.6-7.6,19.3-11.2,29c-1.1,2.9-2.1,6-2.8,9c-2.3,9.2-4.5,18.4-6.5,27.6c-3.3,14.9-6.4,29.9-9.6,44.9c-0.9,4.3-3.7,5.9-8,7
			c-3.3,0.8-6.9,3.4-8.7,6.3c-3.2,5.4-5,11.6-7.7,17.3c-1,2.1-3,3.8-4.5,5.6c-0.5-0.2-0.9-0.5-1.4-0.7c-0.6-3.4-1.2-6.7-1.8-10.1
			c-0.5-0.1-1.1-0.1-1.6-0.2c-0.8,1.9-1.8,3.6-2.3,5.6c-3,11.8-6.3,23.5-8.8,35.4c-3.9,18.9-7.3,37.9-10.6,56.9
			c-1.8,10.3-2.5,20.8-4.3,31.1c-1.8,10.4-4.4,20.7-6.4,31.1c-0.4,1.9-0.6,4.3,0.3,5.9c3.9,7.2,2.7,14.9,2.7,22.5
			c-0.1,12-0.4,24-0.4,36c0,1.6,1.4,3.1,2.1,4.7c1.5-0.9,3.4-1.4,4.3-2.7c4.7-6.5,9.2-13,13.6-19.7c9.2-14,18.1-28.3,27.6-42.2
			c4.6-6.7,10.6-12.3,15.4-18.9c6.1-8.5,11-17.9,17.4-26.2c14.1-18.3,24.9-38.5,36.1-58.5c11.2-20,21.8-40.4,32.7-60.6
			c10.9-20.2,21.9-40.3,32.8-60.5c12.8-23.7,25.4-47.5,38.1-71.2c2.6-4.9,4.9-9.8,7.5-14.9c-8.4-2.3-8.7-3.1-4.8-9.8
			c0.2-0.3,0.4-0.5,0.5-0.8c4.5-11.4,10.4-22.5,13.2-34.3c4-17.1,5.6-34.8,8.3-52.2c0.4-2.5,1-4.9,1.6-7.3c1.3-5,2.8-9.9,4-14.9
			c1.4-5.7,2.8-11.4,8.7-14.4c5.2-2.7,5.1-3.5,2-8.7c-1.4-2.3-1.7-5.3-2.5-7.9c2.4,1,4.8,2.2,7.3,3.1c4.7,1.7,9.8,5.3,14.1,4.5
			c5.8-1,11.6-4.7,16.5-8.4c7.4-5.6,14-12.4,21.1-18.3c3.7-3.1,7.5-1.7,8.6,3.1c1,4.3,0.7,8.6-2.4,12.3c-1.9,2.3-3.9,4.7-5,7.4
			c-0.9,2.1-1.4,6-0.3,6.8c2.5,1.9,7.4,4.2,8.8,3.1c4.6-3.5,12.6-3.5,12.8-12.1c0.1-4.7,2.7-5.5,7.3-4.4c3,0.7,6.3,1.2,9.3,0.8
			c20.2-3,40-7.2,57.9-17.7c0.8-0.5,1.8-0.7,2.8-1c13.9-3.5,27.7-6.9,41.7-10.3c3.4-0.8,6.9-1.3,10.3-1.7
			c11.6-1.3,23.2-2.2,34.7-3.8c7.7-1.1,15.3-3.1,22.9-4.9c3.2-0.8,6.3-2,9.4-3c11.5-3.7,22.8-8.4,34.5-11
			c14.6-3.2,29.6-4.7,44.4-6.8c4.8-0.7,9.7-0.7,14.4-1.7C5589.4,301.4,5591.1,299.3,5593,298z M5524.4,545.5
			c0.3,0.7,0.6,2.7,1.6,3.1c1,0.4,2.9-0.2,3.9-1c2.1-1.6,3.9-3.6,5.6-5.6c7.2-8.5,14.6-16.9,21.4-25.7c17.9-22.9,38-44.1,50.6-70.8
			c3.2-6.7,6.9-13.2,10.2-19.8c2.3-4.7,4.4-9.6,6.6-14.4c1.2-2.7,2.3-5.4,3.5-8.1c-3.3-0.6-6.5-1.3-9.8-1.8c-0.6-0.1-1.3,0.2-2,0.2
			c-17.5,2.3-34.9,4.6-52.4,6.9c-12.4,1.6-17.7,7.7-18.6,20.3c-0.7,10.1-1.2,20.5-3.9,30.1c-2.7,9.7,0.6,20.4-5.8,29.2
			c-0.4,0.5-0.3,1.3-0.4,1.9c-2.2,11.9-4.5,23.8-6.7,35.7C5527.1,532.1,5525.8,538.4,5524.4,545.5z M5952.7,495.3
			c-1.6,2.2-2.3,3.1-2.8,4c-4.5,8.9-9.1,17.8-13.5,26.7c-7.1,14.1-14.1,28.2-21.2,42.3c-7.2,14.2-14.4,28.4-21.7,42.6
			c-1.8,3.4-1.1,5,2.7,5.2c4.2,0.2,8.3,0,12.5,0c11.2,0,11.2,0,11.1,11.1c0,5,1.7,6.2,6,3.8c4.8-2.7,9.8-5.1,14-8.6
			c2.5-2.1,4.6-5.9,4.9-9.1c3.2-37,6-74,8.8-111.1C5953.6,500.4,5953.1,498.6,5952.7,495.3z M4943.8,840.4c0.5,0,0.9,0.1,1.4,0.1
			c0.5,1.6,1.5,3.2,1.3,4.8c-0.7,8.6-1.5,17.2-2.5,25.8c-0.6,5.1-1.9,10.2-2.3,15.3c-0.1,1.7,1.6,3.5,2.5,5.2c1-1.5,2.6-2.9,2.8-4.6
			c1.4-8,2.5-16.1,3.5-24.2c1-8.4,1.9-16.8,2.4-25.3c0.2-3.7-0.8-7.2-4.7-9.2c-0.9-0.5-1.6-2.5-1.4-3.7c1.3-8,2.8-16,4.3-24
			c2-10.8,4.2-21.6,6-32.4c1.2-7.6,1.9-15.2,2.6-22.8c0.1-1.3-1.2-2.7-1.8-4.1c-1.1,0.8-2.8,1.5-3.2,2.6c-2.8,8.1-6.5,16.2-7.9,24.6
			c-3.2,20-5,40.3-10.1,60c-1.3,4.9-0.8,10.3-0.7,15.4c0,1.4,1.9,2.7,2.9,4.1c1-1.1,2.1-2.2,2.9-3.4
			C4942.6,843.3,4943.1,841.8,4943.8,840.4z M5532.3,690.3c5.8-0.3,10.4-0.5,15-0.8c1.1-0.1,2.4-0.6,3.1-1.4
			c5.7-5.8,11.2-11.8,16.9-17.5c4.4-4.4,8.7-8.9,13.5-12.9c4.3-3.5,6.5-8,7.2-13.2c0.5-3.6-2.3-5.4-5.4-3.6
			c-4.3,2.5-8.8,4.9-12.3,8.2c-11.7,11.5-23.1,23.4-34.5,35.2C5534.5,685.7,5533.8,687.7,5532.3,690.3z M4891.8,784
			c-0.5,0-0.9,0-1.4,0c-0.5,2.2-1.2,4.3-1.3,6.5c-1.4,20.7-2.9,41.5-3.9,62.2c-0.7,13.1-0.3,26.2-1.1,39.3
			c-0.4,6.2-1.3,12.8-3.9,18.3c-2.4,4.8-2.2,8.4-0.1,12.6c0.7,1.3,2.2,2.2,3.3,3.2c0.9-1.3,2.1-2.4,2.6-3.8c1-2.4,0.9-5.8,2.5-7.3
			c3.2-2.9,3.4-5.7,2-9.3c-0.6-1.7-0.9-3.6-1-5.4c-0.4-15.5-1-30.9-1.1-46.4c0-7.3-0.1-14.9,1.7-21.8c3.8-14.1,3.4-28.3,2.9-42.6
			C4892.9,787.6,4892.2,785.8,4891.8,784z M4926.2,847.3c0.4-1.2,0.8-2,0.9-3c1.2-13.6,2.5-27.2,3.6-40.7c0.1-1.3,0-3-0.8-3.8
			c-4-4.6-2.3-9.3-0.9-14.1c1.4-5,3.2-9.9,4.2-14.9c0.3-1.6-1.1-3.6-1.7-5.5c-1.5,1.3-3.7,2.4-4.2,4c-1.9,6.5-3.8,13.2-4.6,19.9
			c-1.8,13.7-2.9,27.5-4.2,41.2C4917.7,837.4,4920.2,843,4926.2,847.3z M5168.7,728.7c3.5,2.7,2.2,5.3,1.6,8
			c-0.4,1.8,0.1,3.7,0.3,5.6c1.3-1.5,3.1-2.9,3.6-4.7c1.2-4,1.8-8.1,2.5-12.2c1.3-7.2,2.9-14.3,3.6-21.6c0.3-3.2-1.2-6.7-1.9-10
			c-0.5,0.1-1,0.1-1.6,0.2c-4.3,12.2-8.6,24.5-12.8,36.8c-0.2,0.6,0.6,1.6,1.2,3C5166.6,732,5167.5,730.6,5168.7,728.7z
			 M4902.2,953.2c1.1,0.8,3.3,2.5,5.4,4.1c0.6-0.4,1.2-0.8,1.9-1.2c-1.4-3.5-2.5-7.2-4.3-10.4c-1.9-3.3-3.7-8.8-8.2-7
			c-2.9,1.2-4.9,6.4-5.7,10.1c-0.5,2.3,2.2,5.3,3.5,8C4896.9,955.8,4898.9,954.8,4902.2,953.2z M5168.2,910.2
			c0.8,3.4,1.1,6.3,2.2,8.8c0.9,2.2,3.5,3.1,4.5,0.6c2.2-5.4,3.8-11.1,5.1-16.8c0.3-1.2-1.8-4-3.1-4.2c-1.7-0.2-4.5,0.9-5.3,2.4
			C5169.8,903.9,5169.1,907.4,5168.2,910.2z M5201,654.9c-6.1,6.5-11.4,28.1-8.2,33.7C5198.1,678.1,5203.2,668,5201,654.9z
			 M5549.3,657.2c-0.8-0.8-1.7-1.6-2.5-2.3c-8.3,9.1-16.7,18.2-25,27.4c-0.5,0.6,0,2,0,3c1-0.3,2.5-0.2,3.1-0.8
			C5533.1,675.4,5541.2,666.3,5549.3,657.2z M5208.9,619.7c-1.2-2.1-2.2-3.8-3.2-5.4c-0.9,0.8-2.2,1.5-2.5,2.5
			c-1.7,6-3.3,12-4.6,18.1c-0.2,1.1,0.8,2.6,1.3,3.8c1.1-0.8,2.8-1.3,3.2-2.4C5205.1,630.9,5206.9,625.4,5208.9,619.7z M4922.3,956
			c2.4-3.3,4.4-5,4.8-7.1c0.7-3.3-2.8-6.1-6.9-6c-2.9,0-6.7,1-5.7,4.3C4915.4,950.1,4918.8,952.2,4922.3,956z M5183.3,653.4
			c0.2-0.1,0.4-0.1,0.7-0.2c-0.9-2.5-1.9-5.1-2.9-7.6c0-0.1-2.3,0.4-2.4,0.8c-0.6,3-1,6-1.4,9c-0.1,0.4,0.2,1.1,0.5,1.4
			c1.1,1,2.4,1.9,3.5,2.9c0.7-1.3,1.4-2.5,1.9-3.8C5183.6,655.1,5183.3,654.2,5183.3,653.4z M4930.3,902.3c1.8-4,0.1-11.5-3.4-13.7
			c-0.6-0.4-2.8,0.5-3.1,1.2C4922.8,892.6,4927.3,901.1,4930.3,902.3z M5010,957.7c0.4,0.4,0.8,0.8,1.2,1.2c2.6-1.7,5.4-3.1,7.7-5.1
			c0.8-0.7,0.6-2.7,0.4-4.1c0-0.3-2-1-2.4-0.7C5013.8,951.2,5010.5,953.5,5010,957.7z M4908.7,828c4.1-5.9,4.2-9.7,0-13.9
			C4908.7,819,4908.7,822.9,4908.7,828z M5193.9,907.3c-0.1,0.7-0.3,1.4-0.4,2.1c1.3,0.9,2.6,1.9,4,2.6c1.3,0.5,2.7,0.5,4.1,0.8
			c-0.6-1.4-0.7-3.5-1.8-4.1C5198.2,907.7,5195.9,907.7,5193.9,907.3z M5235.9,870.8c-3.8,3.9-3.7,6.3,0,10.6
			C5235.9,877.1,5235.9,873.9,5235.9,870.8z"/>
		
		
		<path d="M4323,928c1-1.4,2.7-2.6,2.9-4.1c4-29.2,8.1-58.3,11.7-87.5c1.9-15.3,2.9-30.8,4.7-46.2c0.9-7.5,3.3-14.9,4-22.5
			c1.8-19.5,2.8-39.1,4.6-58.7c1.2-12.9,3.3-25.7,5.1-38.6c2.1-15.2,4.3-30.3,6.5-45.5c3.9-26.8,7.7-53.7,11.8-80.5
			c3.6-23.2,7.4-46.3,11.3-69.5c2.1-12.3,4.4-24.5,6.6-36.8c0.2-1.3,0.8-2.8,0.5-3.9c-1.8-6.2,1.1-11.1,4-16.2
			c6-10.7,7.9-22.8,10.6-34.6c0.9-3.9,2.2-8.4,4.9-11c7.7-7.4,15.5-15.4,24.6-20.7c14.5-8.4,28.8-5,41,5.8
			c6.8,6,12.6,13.2,19.2,19.6c5.3,5.2,11.1,10,16.6,15.1c3.7,3.5,7.1,7.2,10.8,10.8c2.8,2.7,5.6,5.4,8.4,8.1
			c0.8,0.8,1.7,1.6,2.2,2.6c3.2,7.6,6.7,15.1,9.5,22.8c5,13.6,10.1,27.1,14.2,41c5.2,17.5,9.4,35.3,14,53c0.6,2.4,0.7,5,1.3,7.3
			c0.4,1.4,1.4,2.7,2.1,4c1.2-0.9,2.9-1.6,3.6-2.9c3-5.1,5.5-10.6,8.8-15.5c5.3-7.8,11.5-15.1,16.7-23
			c11.7-17.7,25.1-33.9,40.3-48.7c3.1-3,6.5-5.7,9.6-8.7c1.1-1,2-2.4,3-3.6c-0.3-0.5-0.6-1-0.8-1.5c-2.4,0.8-4.8,1.5-7.2,2.3
			c0.1-6.9,5.5-10.5,11.5-8.1c1.3,0.5,3.8,0.1,4.8-0.9c8.1-7.7,16.5-15.3,23.8-23.8c7.1-8.3,12.9-17.6,19.5-26.3
			c2.4-3.2,5.2-6,8-8.8c1.6-1.6,3.7-2.8,5.4-4.5c8-7.6,18.2-11.1,27.9-15.7c3-1.4,6-3.2,8.2-5.5c7-7.3,16.2-10.5,25.3-13.3
			c7.2-2.2,14.9-3,22.5-4.1c2.2-0.3,5.2-0.2,6.6,1.1c4.1,3.6,8.1,3.6,12.9,2.1c3.4-1.1,7.2-1.5,10.8-1.4c6.5,0.1,10.1,4,12.2,9.9
			c1.4,3.9,2.7,8.4,5.6,11c5.6,5,12.6,8.2,17.3,14.4c0.7,0.9,2.8,1,4.2,1.2c4.1,0.6,6.5,2.7,7.2,7c0.3,1.6,1.8,2.9,2.6,4.5
			c1.6,3.5,3.4,6.9,4.4,10.6c0.3,1.1-1.5,3.4-2.8,4.1c-3,1.5-4.4,3.4-2.5,6.2c1.6,2.4,2.6,6.4,7.1,3.7c3.4-2.1,5.4,0.1,7.6,2.5
			c2,2.3,4.8,4,6.7,6.4c2.1,2.6,4.1,5.5,5,8.6c0.9,2.9,0.1,6.3,0.5,9.4c0.4,3,0.9,6.3,2.3,8.9c3.9,7.3,3.6,14.1-0.5,21.3
			c-2,3.6-5.8,8-0.3,12.3c0.3,0.2-0.8,3-1.9,3.9c-1.9,1.6-4.2,2.7-6.2,3.9c0.5,1.2,0.6,1.7,0.8,1.8c6.4,2.9,6.1,2.8,4.6,10.2
			c-0.8,3.9-1.2,8.3-0.4,12.2c2.4,12.1-0.1,23.1-6.4,33.5c-0.5,0.8-1,2-1.8,2.4c-8.3,3.4-7.4,11.1-8.4,17.7
			c-2.8,17.7-5.2,35.6-8.3,53.2c-2.6,14.8-5.7,29.4-9.1,44c-1.9,8-4.9,15.8-7.5,23.7c-0.3,1-1.2,1.7-3,2.4c0-1.6-0.3-3.3,0-4.9
			c3.3-17.3,6.7-34.7,10-52c0.2-1.3,0.6-2.7,0.3-4c-0.3-1.3-1-3.5-1.9-3.6c-1.3-0.2-3.6,0.5-4.2,1.6c-2,3.4-3.9,7-5,10.8
			c-1.7,5.4-2.6,11-4.1,16.4c-0.5,1.8-1.5,3.8-2.8,5.1c-5.3,5.5-8,12.1-9.2,19.5c-0.3,1.7-2.3,3.1-3.4,4.7c-0.9-1.9-2.7-3.8-2.6-5.6
			c0.6-7.6,1.9-15.2,2.8-22.8c0.2-2.3-0.2-4.6-0.4-6.9c-0.6-0.1-1.2-0.2-1.7-0.3c-0.7,1.5-1.7,2.9-2.2,4.5c-3.9,15-7.6,30-11.7,44.9
			c-1.1,3.9-3.7,7.5-4.6,11.5c-3.6,14.8-7.1,29.7-9.9,44.7c-3.3,18-5.8,36.1-8.7,54.2c-0.4,2.5-0.8,4.9-1.2,7.4
			c-0.6,3.5-2.3,5.5-6.1,6.3c-1.6,0.3-3.6,2.4-4,4.1c-1.8,7.4-2.2,15.1-7.4,21.4c-0.7,0.9-0.6,2.6-0.6,3.9c0.4,17.8-4.6,34-13,49.5
			c-2.6,4.8-4.7,9.9-6.4,15.1c-3.9,11.8-14.1,15.3-24.3,8c-13.5-9.6-20.5-22.1-20.5-39.3c0-13.5-3.1-27-4-40.6
			c-1.1-17.6-1.7-35.2-1.9-52.8c0-4.6,3-9.2,3.2-13.9c0.2-5.8-1.1-11.6-1.6-17.4c-0.3-4.1-0.7-8.3-0.3-12.4c0.2-1.7,2.3-3.2,3.6-4.8
			c1.4,1.4,3.6,2.7,3.9,4.3c0.9,4.4,1,8.9,1.2,13.4c0.3,5.4-0.2,10.6,2.6,16c2.5,4.9,2.6,11,3.9,16.6c0.3,1.4,1.3,2.7,1.9,4.1
			c1.2-1,2.6-1.8,3.6-3c0.7-0.8,1-2.1,1.1-3.3c0.8-7.8,2.4-15.6,2.2-23.3c-0.3-12.6,3.7-24.2,6.8-36.1c2.4-9.2,4.7-18.4,6.1-27.8
			c3.2-22.2,6-44.5,8.7-66.8c0.3-2.4-0.5-5-0.7-7.5c-0.5-0.1-1.1-0.2-1.6-0.3c-0.7,1.1-1.7,2.1-2.1,3.3c-1.7,5-3.5,10.1-4.9,15.2
			c-2.5,9.1-4.8,18.1-9.7,26.6c-6.5,11.3-9,24.2-11.8,36.8c-0.5,2.2-1.3,4.2-2,6.4c-0.6,0-1.1,0-1.7,0c-0.5-1.9-1.5-3.8-1.4-5.7
			c0.7-19.6,0.3-39.4,2.7-58.8c3.1-25.4,8.4-50.5,12.6-75.8c3.2-19,5.9-38.2,9.2-57.2c2-11.8,4.7-23.5,7-35.2
			c1.4-7.5,2.6-15.1,3.8-22.6c0.2-1.1-0.5-2.4-0.8-3.6c-1.1,0.6-2.6,0.8-3.1,1.7c-4.9,8.5-9.6,17.1-14.3,25.7
			c-4.7,8.8-9.4,17.6-14,26.4c-1.1,2.2-1.8,4.7-3,6.8c-1.9,3.2-4.2,6.1-6.2,9.3c-2.8,4.3-6.3,8.4-7.8,13.1
			c-1.8,5.4-2.8,10.1-7.7,14.3c-4.9,4.2-8,10.8-11.2,16.7c-7.4,13.7-14.7,27.6-21.4,41.7c-3,6.4-4.8,13.3-6.9,20.1
			c-0.9,2.8-0.5,6-5.3,5.4c-1.7-0.2-4,2.2-5.5,3.9c-6.3,7.7-12.4,15.6-18.5,23.5c-0.9,1.1-0.8,2.9-1.6,4.1c-1,1.6-2.2,3.1-3.5,4.4
			c-1.9,1.8-4.3,3.2-5.9,5.1c-8.4,10.3-16.7,20.7-24.9,31.1c-2.4,3.1-4.1,2-5.5-0.8c-1.8-3.5-3.4-7.2-5.5-10.6
			c-1.5-2.4-3.2-2.4-5.7-0.4c-2.5,2.1-6.1,3-9,4.6c-3.8,2.1-7.3,4.6-11.2,6.5c-4.5,2.2-7.8,1-9.6-3.7c-1.8-4.5-3.5-3.4-6.6-1.1
			c-3,2.2-6.7,3.7-10.3,5.1c-3.9,1.4-7.9,2.4-11.9,3.5c-2.4,0.6-5.1,1.8-7.1,1.2c-9.5-2.8-19-6-28.3-9.5c-5.6-2.2-8.8-6.9-10.4-12.7
			c-1.9-6.4-3.8-12.8-5.9-19.1c-0.5-1.4-2-2.4-3-3.5c-1.2,1.1-2.8,1.9-3.4,3.2c-2.3,5-4.2,10.1-6.4,15.2c-1.3,3-2.1,6.5-4.2,9
			c-9.8,11.8-12.7,26-15.4,40.4c-0.3,1.8-1.4,4.1-2.8,4.9c-6.6,3.6-9.6,9.9-11.8,16.2c-2.4,6.8-2.9,14.3-4.8,21.3
			c-3,11.3-5,23.1-13.3,32.4c-2.6,2.9-4.3,6.8-5.5,10.5c-2.1,6.5-4.9,12.4-10.7,16.3c-3.4,2.3-4.6,5.4-4.5,9.4
			c0.1,3.7,0.3,7.4-0.3,11c-0.5,3.1-2.5,5.9-3.3,9c-1.9,7.4-6.5,14.6-2,22.8c0.8,1.5,0.7,4,0.1,5.7c-2.5,7-5.6,13.9-8.1,20.9
			c-2.3,6.6-4.9,13.2-6.1,20c-2,10.6-3.2,21.4-4.2,32.1c-1,11.7-6,21.6-12.1,31.2c-2.1,3.3-8.7,3.3-13.1-0.5
			c-4.9-4.2-9.3-9-13.9-13.4c-1-1-2.3-1.7-3.5-2.5C4323,961.3,4323,944.7,4323,928z"/>
		<path d="M6442,383c-2.7-0.7-5.3-1.7-8-1.9c-1.5-0.1-3.8,0.9-4.5,2.1c-1.9,3.5-4.3,4.7-8.2,4.1c-4.7-0.7-8.6,1-12.4,3.9
			c-2.3,1.8-5.8,3.7-8.4,3.3c-12.1-1.9-22.2,2.2-31.9,8.6c-2.5,1.6-5.1,3.2-7.8,4.5c-8.1,3.8-13,9.8-16.7,18.1
			c-3.8,8.7-11.4,15.7-15.5,24.3c-5.7,12.1-10.1,24.9-14.5,37.6c-5.4,15.4-9.6,31.2-15.5,46.3c-3.8,9.8-10.5,18.4-14.5,28.1
			c-3.9,9.5-5.4,19.8-8.9,29.5c-5.9,16.5-8.9,34-17.6,49.7c-3.4,6.2-3.6,14.1-5.4,21.2c-0.8,3.3-2,6.6-3.1,9.8
			c-2.5,7.2-5.3,14.2-7.5,21.5c-3.9,13.6-7.9,27.2-11,40.9c-4.8,21.1-9.4,42.3-6,64.2c0.7,4.4,1.4,8.9,2.6,13.2
			c0.9,3.4,0.1,5.3-3.5,5.4c-5,0.1-5.5,1.4-3.1,6c1.4,2.6-0.2,6.7-0.4,10.1c-0.1,2.1-0.2,4.2-0.3,6.4c2.4,0,5,0.6,7.2-0.1
			c6.5-2,13-4.2,19.2-6.9c10.7-4.6,22.2-4.7,33.4-5c13.8-0.4,27.8,0.4,40.8,5.7c4,1.6,7.8,5.1,10.4,8.7c4.1,5.5,1.8,11.8-4.7,14
			c-5.6,1.9-10.8,3.8-14.1,9.4c-1.4,2.3-5.1,3-7.4,4.8c-6,4.7-11.7,9.7-17.7,14.4c-3.3,2.6-6.7,5.4-10.5,7.4
			c-5.2,2.7-6.3,5.1-3.4,10.2c3.1,5.4,6.2,10.9,4.9,17.4c-0.4,1.9-1.9,3.5-3,5.3c-1.5-1.2-3.8-2.1-4.5-3.7
			c-1.5-3.4-2.5-7.1-3.1-10.7c-0.5-3.6-2.3-5.2-5.1-3.1c-5.1,3.9-8.3,7.8-6,14.5c1.6,4.5,3.5,9,5.6,13.3c3.5,7.5,2.3,11-5.3,14.1
			c-0.7,0.3-1.3,0.9-2,1.5c0.5,0.8,0.8,1.3,1.1,1.9c0.9,1.6,1.8,3.2,2.7,4.7c-1.6,0.6-3.3,1-4.8,1.7c-1.1,0.6-2.2,1.4-3.1,2.4
			c-0.8,0.8-1.4,1.9-2,2.9c-1.3-0.9-3-1.6-3.7-2.8c-1.1-1.8-1.2-4.2-2.2-6.1c-1.4-2.6-2.8-2.9-5.2-0.3c-5.1,5.3-6.8,11.2-6.4,18.5
			c0.2,3.4-1.9,7.3-3.9,10.4c-1.8,2.8-4.8,4-8,0.9c-2.6-2.5-4.6-1.7-6.2,1.5c-0.8,1.6-2.5,2.7-3.9,4c-1.2-1.2-2.3-2.5-3.5-3.7
			c-0.9-0.9-2.2-2.5-2.7-2.3c-1.2,0.5-2.2,1.8-2.8,3c-0.5,1-0.3,2.3-0.4,3.4c-0.6,4.1-2.1,4.6-5.7,2.9c-4.4-2.1-9.5-3-13.7-5.2
			c-10.3-5.5-21.7-1.6-32.3-4.4c-16.8-4.5-34.2-7.9-48.2-19.3c-4.4-3.5-9.4-7.1-12-11.9c-3.3-5.9-6.5-11.1-12.3-15.2
			c-4.4-3.1-7.1-8.6-10.4-13.2c-0.8-1.1-1.3-2.8-1.4-4.2c-0.4-8.9,0-17.6,5.5-25.3c1.2-1.6,1.5-4,1.8-6.1c0.7-5.1,2.9-6.6,7.8-4.9
			c1.1,0.4,2.1,1,3.1,1.5c4.9,2.4,6.9,1.5,7.2-3.8c0.2-4.4,2.3-6.2,6.5-6.3c18.6-0.6,36.5-5,54.2-10.4c2.9-0.9,5.9-1.2,8.8-2
			c4-1.2,6-3.8,5.9-8.1c-0.8-22.9,1.7-45.6,4.1-68.3c2.5-23.2,3.6-46.5,5.8-69.7c2-22.1,4.7-44,6.9-66.1c2-20.1,3.5-40.2,5.5-60.2
			c1.2-12.1,3.3-24.1,4.5-36.2c2.2-23.4,4.2-46.8,5.6-70.2c0.4-6.7-1.2-13.5-2.2-20.2c-0.5-3.7-2.6-4.8-6.4-3.3
			c-7.4,2.9-14.9,3.7-21.9-1.5c-0.6-0.4-1.6-0.5-2.3-0.4c-3.6,0.5-7.1,1.5-10.7,1.6c-1.3,0-3.1-1.8-3.8-3.2c-1.4-2.6-2.8-4-5.9-2.8
			c-0.9,0.3-2.4,0.1-3.1-0.5c-2.9-2.7-5.5-5.5-8.2-8.3c-0.5-0.5-1.2-0.9-1.3-1.5c-2.4-10.9-13.9-16.3-16.2-27.3
			c-0.1-0.3-0.2-0.7-0.4-0.9c-7.6-8.1-2.9-16.2,0-24.4c0.7-1.9,1.4-3.8,2.2-5.6c2.5-5.5,5.3-10.4,11.8-12.6
			c4.2-1.4,7.5-5.2,11.6-7.4c4.2-2.2,8.7-3.8,13.2-5.6c8.3-3.3,16.6-6.8,25.1-9.7c7.8-2.6,15.8-4.9,23.9-6.4
			c6.7-1.2,12.7-2.1,15.1-9.9c1.2-4,5.1-3.4,7.5-1.6c10,7.6,21.3,6.1,32.6,5.3c31.2-2.4,62.5-4.7,93.7-6.9
			c5.7-0.4,11.7-0.9,16.2,4.4c0.6,0.7,3.5,0.2,4.9-0.5c6.5-3.4,10.3-3,15.9,1.5c1.8,1.5,4.3,3,6.6,3.1c17,0.6,30,9.6,42.7,19.5
			c1.4,1.1,3.1,1.8,4.6,2.7C6442,369,6442,376,6442,383z M6248.4,515c0.8,0,1.7,0.1,2.5,0.1c0.6-7.1,1.2-14.2,1.6-21.3
			c0-0.7-1.4-1.5-2.2-2.2c-0.6,0.7-1.8,1.3-1.8,2C6248.3,500.8,6248.4,507.9,6248.4,515z M6219,786.2c-1.5-1.7-2.5-2.7-3.4-3.8
			c-1,1.6-2.5,3.2-2.8,4.9c-0.2,1.3,1.3,2.9,2.1,4.3C6216.2,789.9,6217.5,788.3,6219,786.2z"/>

	</g>
</g>
<g id="text_3">
	<g>
		<g>
			<path d="M3150,587c0-13.7,0-27.3,0-41c1-1.2,2.6-2.2,3-3.6c1.8-8.1,3.6-16.2,4.8-24.4c0.6-3.7,0.9-6.9,5.5-7.5
				c1-0.1,2-1.6,2.7-2.7c5.3-7.3,9.5-15.1,13.7-23c6.4-11.8,15.5-22.5,25.1-32c17.4-17.2,35.9-33.1,56.3-46.9
				c13.6-9.2,28.3-17,39.4-29.6c1.2-1.4,3.4-2,5.2-2.8c14.2-5.6,28.4-11.1,42.6-16.7c14.2-5.7,28.3-11.4,42.4-17.3
				c5.1-2.1,11.2-2.8,14.2-8.4c2.8-5.3,7.7-7.7,13.1-9.1c3.4-0.9,5.1-2.2,4.3-6.2c-0.9-4.5,3-7.4,7.6-6c1.6,0.5,2.9,1.5,4.4,2.3
				c5.3,2.8,13.7,2.1,17.9-2.5c-3.4-0.8-6.1-1.6-8.8-2c-3.1-0.4-6.3-0.3-9.4-0.9c-0.9-0.2-1.9-1.7-2.3-2.8c-0.1-0.4,1.5-1.4,2.3-2.1
				c1.6-1.3,3.3-2.6,4.9-3.9c8,0,16,0,24,0c2.2,2.6,5,4.8,6.5,7.8c4.6,8.6,8.7,17.5,13,26.2c0.7,1.3,1.6,2.5,2.6,3.6
				c4.5,5.1,9,10.3,13.6,15.2c10.5,11.1,15.7,24.8,19.2,39.3c0.6,2.4,0.1,5.7,4.1,5.8c0,13,0,26,0,39c-1.4,2-3.5,3.7-4.1,5.9
				c-2.5,8.8-6.5,16.6-13.2,23.1c-11.2,10.7-25.4,16.1-38.9,22.9c-2.3,1.2-4.2,3.1-6.3,4.5c-2.9,2-5.8,4.1-8.9,6
				c-2.8,1.7-5.7,3.2-8.5,4.9c-2.4,1.5-4.6,3.3-7,4.7c-11,5.9-22.3,11.2-32.9,17.6c-13,7.8-25.5,16.3-38.1,24.7
				c-19.7,13-39.5,25.9-59,39.1c-5.6,3.8-12.6,7.7-12.9,15c-0.3,8.6,0.8,17.5,3.1,25.8c2.3,8.5,11,11.6,17.7,16.1
				c12.4,8.3,24.8,16.6,37.3,24.7c1.5,1,3.9,1.8,5.5,1.4c5.1-1.4,8.3,0.5,11,4.6c0.9,1.4,2,2.7,3.3,3.7
				c10.3,7.9,21.1,15.1,30.8,23.7c12.2,10.9,25.8,20.7,32.9,36.3c0.3,0.7,1,1.3,1.6,1.9c10.3,10.9,17.7,23.7,24.5,36.9
				c6.3,12.1,12.5,24.2,18.1,36.6c6.4,14.2,13.1,28.3,15.8,44c3.3,18.8,0.4,36.4-11,51.6c-8,10.7-17,20.9-26.5,30.5
				c-19,19.1-39.3,36.7-63.8,49c-12.4,6.2-24,14.4-34.8,23.1c-5.5,4.4-10.1,7.3-17.3,7.5c-4.9,0.1-10.5,1.9-13.2,7.3
				c-2.3,0-4.7,0-7,0c-0.6-2.6-0.9-5.3-1.9-7.7c-1-2.4-2.1-5.6-4.1-6.4c-6.3-2.5-12.8-5-19.4-5.7c-10.9-1.2-21.9-0.7-32.9-1.5
				c-3.5-0.3-6.8-2.6-10.3-3.7c-2-0.6-4.8-1.7-6.2-0.9c-3.9,2.4-7.7,5.3-10.6,8.8c-6,7.5-5.7,7.6-14.8,4.5
				c-3.4-1.2-7.8-0.8-10.4-2.8c-4.5-3.5-9.2-4.1-14.5-3.8c-3.7,0.3-5.3-1.4-5.7-5.2c-0.4-3.6-2-7-2.8-10.5
				c-1.9-8.4-4.5-16.7-5.3-25.2c-1.5-17.5,6.1-32.9,13.6-47.9c6.6-13.2,15-25.1,26.4-35.1c11.4-9.9,21.4-21.4,31.8-32.4
				c2.3-2.5,4-5.6,5.7-8.6c3.2-5.5,5.5-11.7,9.3-16.7c7.5-9.5,16.3-18.1,23.7-27.7c7.7-10,14.8-20.5,21.5-31.1
				c3.2-5.1,2.2-7.9-3.2-11.1c-6.6-3.9-13.4-7.2-20.2-10.7c-6.8-3.5-11.2-11.2-19.9-11.5c-0.3,0-0.5-0.4-0.8-0.6
				c-3.9-4.1-7.9-8.2-11.9-12.2c-0.9-0.9-2.1-1.6-3.2-2.3c-3.9-2.5-8.1-4.6-11.7-7.5c-19.1-15.6-38-31.3-56.8-47.2
				c-1.3-1.1-1.7-3.3-2.2-5.1c-0.7-2.3-0.5-5-1.6-7c-4.6-8.2-9.9-16.2-14.4-24.5c-3.7-6.7-7.2-13.5-10-20.6
				c-2.1-5.5-2.9-11.6-4.5-17.3C3152.4,589.4,3151,588.3,3150,587z"/>
		</g>
	</g>
</g>
<g id="text_3_copy">
	<g>
		<g>
			<path d="M6352,584c0-13.7,0-27.3,0-41c1-1.2,2.6-2.2,3-3.6c1.8-8.1,3.6-16.2,4.8-24.4c0.6-3.7,0.9-6.9,5.5-7.5
				c1-0.1,2-1.6,2.7-2.7c5.3-7.3,9.5-15.1,13.7-23c6.4-11.8,15.5-22.5,25.1-32c17.4-17.2,35.9-33.1,56.3-46.9
				c13.6-9.2,28.3-17,39.4-29.6c1.2-1.4,3.4-2,5.2-2.8c14.2-5.6,28.4-11.1,42.6-16.7c14.2-5.7,28.3-11.4,42.4-17.3
				c5.1-2.1,11.2-2.8,14.2-8.4c2.8-5.3,7.7-7.7,13.1-9.1c3.4-0.9,5.1-2.2,4.3-6.2c-0.9-4.5,3-7.4,7.6-6c1.6,0.5,2.9,1.5,4.4,2.3
				c5.3,2.8,13.7,2.1,17.9-2.5c-3.4-0.8-6.1-1.6-8.8-2c-3.1-0.4-6.3-0.3-9.4-0.9c-0.9-0.2-1.9-1.7-2.3-2.8c-0.1-0.4,1.5-1.4,2.3-2.1
				c1.6-1.3,3.3-2.6,4.9-3.9c8,0,16,0,24,0c2.2,2.6,5,4.8,6.5,7.8c4.6,8.6,8.6,17.5,13,26.2c0.7,1.3,1.6,2.5,2.6,3.6
				c4.5,5.1,9,10.3,13.6,15.2c10.5,11.1,15.7,24.8,19.2,39.3c0.6,2.4,0.1,5.7,4.1,5.8c0,13,0,26,0,39c-1.4,2-3.5,3.7-4.1,5.9
				c-2.5,8.8-6.5,16.6-13.2,23.1c-11.2,10.7-25.4,16.1-38.9,22.9c-2.3,1.2-4.2,3.1-6.3,4.5c-2.9,2-5.9,4.1-8.9,6
				c-2.8,1.7-5.7,3.2-8.5,4.9c-2.4,1.5-4.6,3.3-7,4.7c-11,5.9-22.3,11.2-32.9,17.6c-13,7.8-25.5,16.3-38.1,24.7
				c-19.7,13-39.5,25.9-59,39.1c-5.6,3.8-12.6,7.7-12.9,15c-0.3,8.6,0.8,17.5,3.1,25.8c2.3,8.5,11,11.6,17.7,16.1
				c12.4,8.3,24.8,16.6,37.3,24.7c1.5,1,3.9,1.8,5.5,1.4c5.1-1.4,8.3,0.5,11,4.6c0.9,1.4,2,2.7,3.3,3.7
				c10.3,7.9,21.1,15.1,30.8,23.7c12.2,10.9,25.8,20.7,32.9,36.3c0.3,0.7,1,1.3,1.6,1.9c10.3,10.9,17.7,23.7,24.5,36.9
				c6.3,12.1,12.5,24.2,18.1,36.6c6.4,14.2,13.1,28.3,15.8,44c3.3,18.8,0.4,36.4-11,51.6c-8,10.7-17,20.9-26.5,30.5
				c-19,19.1-39.3,36.7-63.8,49c-12.4,6.2-24,14.4-34.8,23.1c-5.5,4.4-10.1,7.3-17.3,7.5c-4.9,0.1-10.5,1.9-13.2,7.3
				c-2.3,0-4.7,0-7,0c-0.6-2.6-0.9-5.3-1.9-7.7c-1-2.4-2.1-5.6-4.1-6.4c-6.3-2.5-12.8-5-19.4-5.7c-10.9-1.2-21.9-0.7-32.9-1.5
				c-3.5-0.3-6.8-2.6-10.3-3.7c-2-0.6-4.8-1.7-6.2-0.9c-3.9,2.4-7.7,5.3-10.6,8.8c-6,7.5-5.7,7.6-14.8,4.5
				c-3.4-1.2-7.8-0.8-10.4-2.8c-4.5-3.5-9.2-4.1-14.5-3.8c-3.7,0.3-5.3-1.4-5.7-5.2c-0.4-3.6-2-7-2.8-10.5
				c-1.9-8.4-4.5-16.7-5.3-25.2c-1.5-17.5,6.1-32.9,13.6-47.9c6.6-13.2,15-25.1,26.4-35.1c11.4-9.9,21.4-21.4,31.8-32.4
				c2.3-2.5,4-5.6,5.7-8.6c3.2-5.5,5.5-11.7,9.3-16.7c7.5-9.5,16.3-18.1,23.7-27.7c7.7-10,14.8-20.5,21.5-31.1
				c3.2-5.1,2.2-7.9-3.2-11.1c-6.6-3.9-13.4-7.2-20.2-10.7c-6.8-3.5-11.2-11.2-19.9-11.5c-0.3,0-0.5-0.4-0.8-0.6
				c-3.9-4.1-7.9-8.2-11.9-12.2c-0.9-0.9-2.1-1.6-3.2-2.3c-3.9-2.5-8.1-4.6-11.7-7.5c-19.1-15.6-38-31.3-56.8-47.2
				c-1.3-1.1-1.7-3.3-2.2-5.1c-0.7-2.3-0.5-5-1.6-7c-4.6-8.2-9.9-16.2-14.4-24.5c-3.7-6.7-7.2-13.5-10-20.6
				c-2.1-5.5-2.9-11.6-4.5-17.3C6354.4,586.4,6353,585.3,6352,584z"/>
		</g>
	</g>
</g>
<g>
	<g>
		<path d="M663,269c1.9,1.2,3.7,2.5,5.6,3.6c3.7,2.3,8.3,3.8,11.1,6.9c8.9,9.6,18.2,19.2,25.4,30c6.5,9.7,11,20.8,15.3,31.7
			c11.5,28.9,8.6,58.9,5.7,88.8c-1.7,16.9-3.4,33.8-6.2,50.6c-2.9,17.2-7,34.2-10.8,51.3c-1.6,7.3-3.7,14.5-5.5,21.7
			c-1.6,6.4-0.4,8,6.3,7.5c16-1.1,31.9-2.8,47.8-3.6c16.6-0.8,33.3-0.4,49.9-1.4c10.9-0.6,21.8-2.4,32.6-4.2c1.7-0.3,3.9-3.1,4.2-5
			c2.6-17.8,5.2-35.6,7.2-53.5c3.5-31,6.8-61.9,9.8-92.9c0.6-6.4-0.3-13-1.1-19.4c-2.5-22.4,0-44.2,8.6-65.1c1.8-4.5,3.5-9,5.5-13.4
			c2.8-6.2,6.6-6.8,11.6-2.3c2.8,2.5,6.3,4.3,9.1,6.8c2.9,2.6,5.6,5.6,7.8,8.8c1.8,2.6,2.8,3.3,5.3,0.9c1.3-1.2,3.6-2.4,5.1-2
			c1.2,0.3,1.7,3,2.6,4.6c2.7,4.9,5.3,9.8,8.2,14.5c0.4,0.6,3.5,0.3,4.4-0.6c2.3-2.2,4.3-1.9,6.8-0.7c5.4,2.6,10.8,5.1,16.3,7.4
			c4.6,1.9,6.5,5.4,7.3,9.9c1.5,7.9,2.3,8.5,10,8.5c1.2,0,2.4-0.1,3.4,0.4c5.9,2.8,12,5.5,17.6,8.9c2.1,1.2,4,3.9,4.6,6.3
			c2.1,8.4,4.4,16.8,5.3,25.4c3.2,31.7,2.2,63.2-3.4,94.6c-2.9,16.4-5.2,32.9-7.8,49.3c-0.5,3.1,0.7,5.1,3.7,5.2
			c2.4,0.1,5.2,0,7.2-1.1c4.3-2.3,7.7-1.6,10.8,1.7c2.5,2.6,4.2,1.6,7.2,0c9.1-5,8.2-14.4,10.3-22.2c2.4-9,3.5-18.3,5.2-27.4
			c0.2-1.3,0.4-2.8,1.2-3.8c4.5-5.6,4.3-12,3.6-18.6c-0.4-3.6-0.6-7.3-1-11c-1.5-13.6,4.9-22.9,15.9-29.8c3.1-1.9,6.3-3.7,9.1-6
			c5.7-4.7,12.6-6.4,19.2-5c6.8,1.5,12.9,5.7,20.1,7.1c2.6,0.5,4.3,5,6.6,7.5c1.4,1.5,2.8,3.4,4.6,3.9c8.1,2.4,11.6,9.3,15.1,15.8
			c2.6,4.9-0.2,8.1-5.9,9.3c-1.4,0.3-3.2,2.1-3.5,3.5c-0.9,4.7-1.1,9.5-1.9,14.2c-2.1,12.7-6.4,24.6-10.8,36.6
			c-3.3,8.9-4.4,18.7-6,28.3c-1.1,7.1-1.1,14.1-4.1,21.2c-3.9,9.2-5.4,19.5-6.9,29.5c-2.3,15.5-3.6,31.1-5.7,46.6
			c-0.7,4.8-3.4,9.2-4.3,14c-3.2,17.3-7.4,34.7-8.5,52.1c-1.9,28.4-2.2,56.9-2.1,85.4c0,14.9,5.5,28.8,12.8,41.6
			c6.4,11.2,9,21.8,3.5,34.4c-5.3,12.1,0.6,25.9,11.8,32.8c4.6,2.8,9.9,2.1,13.3-2.3c11.1-14.4,20.9-29.6,28.2-46.3
			c6.3-14.5,12.6-28.9,19.2-43.3c8.9-19.3,18-38.5,27.3-57.6c1.5-3,4.9-5.1,7.4-7.7c2.3-2.5,5-4.9,6.7-7.8
			c9.2-15.4,17.3-31.5,22.6-48.7c4.7-15.4,9.7-30.7,13.8-46.3c2-7.8,2-16.1,3-24.2c1.7-12.9,2.4-26,5.6-38.5
			c3.4-13.6,6.9-27.1,7-41.2c0.1-11.2,0.3-22.4-0.9-33.5c-2.2-19.7-5.1-39.3-8.4-58.8c-0.9-5.4-4.1-10.5-6.8-15.4
			c-2.2-4-6.8-6.6-6.2-12c0-0.3-0.2-0.7-0.4-0.9c-7.4-7.4-12.3-17.2-21.7-22.8c-2.7-1.6-4.9-4-7.4-6c-0.8-0.6-1.6-1.8-2.4-1.7
			c-8.7,0.5-12.3-7.7-18.8-10.7c-3.9-1.8-8-3.1-11.9-4.8c-2.3-1-4.6-1.9-6.6-3.3c-7.3-4.8-14.6-9.8-21.8-14.9
			c-1.2-0.8-2-2.3-2.9-3.5c1.2-0.7,2.5-1.2,3.6-2c1.4-1.1,3-2.3,3.7-3.9c1.7-4.3,3.1-8.7,4.3-13.2c0.7-2.6,0.5-5.5,1.5-7.9
			c1-2.3,2.7-5.1,4.8-5.9c5.9-2.1,12.1-3.5,18.3-4.8c4.2-0.9,7.6,0.6,11.4,3.1c4.3,2.8,10.1,3.5,15.4,4.6c6.3,1.4,12.7,2.4,19.1,3.2
			c6.4,0.9,9.7,5.1,12.8,10.1c0.9,1.4,2.9,2.2,4.3,3.2c0.2-1.5-0.1-3.1,0.6-4.3c0.7-1.4,2.3-3.7,3.3-3.5c9.6,1.3,19.2,2.3,28.5,4.8
			c4.7,1.3,8.7,5.4,9.4,11.3c0.2,1.4,1.2,3.1,2.3,4c12.5,9.3,27.6,15.2,36.6,29c1.3,2,4.6,2.8,6.9,4.2c1,0.6,2,1.3,3,2
			c-0.9,1.1-1.5,2.6-2.6,3.1c-2,1-4.5,1.3-6.5,2.3c-0.9,0.5-1.7,2.1-1.7,3.2c0,0.7,1.4,1.7,2.4,2.1c3.5,1.4,7.1,2.5,10.7,3.8
			c3.1,1.1,5.9,1.5,7.3-2.4c1.5-4.3,4-3.4,6.2-0.7c1.2,1.3,1.7,3.2,2.6,4.8c3.6,6.6,8.1,11.7,16.6,11.3c1.5-0.1,3.5,1.6,4.6,2.9
			c12.4,15.5,22.3,32.6,30.6,50.7c0.8,1.8,1.3,3.8,1.5,5.7c2.5,36.7,4.7,73.5,7.5,110.2c1.9,25.3,0,50.4-3.8,75.2
			c-3.3,21.4-8.8,42.6-16.7,63c-5.4,14.1-10,28.5-16.3,42.3c-4.7,10.4-11.2,20-17.4,29.6c-15,23.1-30,46.3-45.7,69
			c-7.8,11.3-17.2,21.6-25.6,32.5c-9.2,12-18.1,24.3-27.1,36.4c-2.1,2.8-4.1,5.7-6.2,8.5c-4.3,5.7-9.9,10-12.7,17.4
			c-2.9,7.7-8.7,14.8-14.7,20.5c-6.2,5.8-14.1,9.9-21.5,14.3c-6.4,3.8-13.1,7.1-19.9,10.1c-2.9,1.3-6.4,1.1-9.6,1.7
			c-1.6,0.3-3.2,0.6-4.8,1.1c-4.8,1.3-9.5,2.8-14.3,3.8c-10.9,2.3-21.4-0.1-32-2.5c-3.1-0.7-6.2-1.6-3.6-5.9
			c0.4-0.6-0.1-2.4-0.5-2.6c-1.3-0.4-3.2-0.9-4.2-0.3c-13.3,8.7-25.5,3.1-37.5-3c-22.1-11.3-39.4-28.1-54.2-47.7
			c-8.8-11.7-14-25.2-18.5-39c-10.2-31.6-13.6-64.2-11.7-97.2c1.1-19.8,3.3-39.5,5.6-59.2c2.9-24.3,6.1-48.6,9.8-72.8
			c3.2-21.2,7.3-42.3,10.9-63.5c0.3-2-0.2-4.1-0.3-6.2c-1.9,0.7-4.1,0.9-5.7,2c-5.7,3.8-11,8.1-16.7,11.8c-3.1,2-6.8,3.3-10.4,4.5
			c-6.1,1.9-9.9,5-11.8,11.9c-3,10.6-6.4,21-13.4,30.3c-4.3,5.7-5.3,14.2-6.6,21.7c-3.7,20.5-7.1,41-10,61.6
			c-4.1,28.9-7.7,57.8-11.4,86.7c-2.7,21.5-5.1,43-7.4,64.5c-0.5,4.6-0.2,9.3,0.2,13.9c1.4,15.8-3.2,30.3-9,44.6
			c-0.4,0.9-1.8,2.2-2.4,2.1c-1.1-0.2-2.5-1.3-2.8-2.3c-1-3.3-1.3-6.9-2.6-10.1c-0.7-1.7-2.6-4.1-4-4.1c-1.6,0-3.5,2-4.7,3.6
			c-1.2,1.7-1.5,4.1-2.6,5.9c-0.7,1-2.4,1.9-3.6,1.9c-0.9,0-1.9-1.6-2.5-2.7c-0.6-1-0.5-2.3-1-3.3c-1.4-3.5-3.7-3.7-6.4-0.9
			c-2,2-4.4,3.6-6.6,5.4c-0.7-2.9-1.7-5.7-1.9-8.6c-0.3-5.8,0-11.7-0.4-17.5c-0.1-1.5-1.6-2.9-2.4-4.4c-0.9,1.4-2.5,2.7-2.7,4.2
			c-1,10.6-1.3,21.2-2.6,31.7c-0.8,6-1.7,12.6-5,17.4c-5.5,7.9-12.2,15.3-19.6,21.6c-6.1,5.2-18.6,2.4-23.5-4
			c-1.6-2.1-2.9-5.2-2.6-7.7c1-9.6-2.9-17.9-6.2-26.4c-3.5-8.9-6.6-18-9.5-27.2c-0.5-1.5,0.6-4.8,1.8-5.4c3.4-1.7,3.7-4.4,3.8-7.4
			c0.6-17.8,1.2-35.6,2.1-53.5c0.2-4.8,1.5-9.5,2.6-14.2c0.3-1.1,2-1.9,3-2.8c0.9,1.2,2.5,2.4,2.6,3.7c0.2,3.3-0.5,6.6-0.4,10
			c0,1.3,1,2.5,1.6,3.8c1-1.1,3-2.3,2.9-3.3c-0.6-5.9-1.6-11.8-2.5-17.7c-0.6-3.8-2.1-7.5-1.9-11.2c1.2-25.5,1.9-51,4.5-76.3
			c2.1-20.3,6.8-40.4,10.2-60.6c2.1-12.3,4.2-24.6,6-37c0.9-5.6-0.7-6.6-6.3-6.2c-9,0.6-18,0.4-26.9,1.4c-7.7,0.9-15.3,3-22.9,4.5
			c-6,1.2-12,2.3-18,3.2c-7.5,1.1-15.1,2.1-22.7,2.8c-7.6,0.7-15.2,1.2-22.8,1.5c-7.7,0.3-15.3,0.4-23,0.3c-5.1-0.1-7.6,2.1-8.3,7.1
			c-1.1,7.7-2.2,15.5-4,23.1c-1.6,7.1-3.8,14.1-6.4,20.9c-3.2,8.1-6.6,16-5.7,25c0.5,5.5,0.2,11,0.7,16.5c0.1,1.3,2.1,2.5,3.2,3.7
			c1-1.1,2.3-2.2,3-3.5c0.7-1.4,0.7-3.3,1.4-4.7c0.3-0.7,1.5-1.6,2.2-1.6c0.7,0.1,1.9,1.2,1.9,1.9c0.1,2.6,0.2,5.3-0.2,7.9
			c-3.1,18.2-6.6,36.4-9.4,54.6c-2.7,17.4-4.5,35-7,52.5c-3.8,26.2-8,52.3-12,78.5c-0.2,1.4-0.6,3.1-1.5,4.2
			c-1.4,1.7-3.3,2.9-5.1,4.4c-1.3-1.6-2.8-3-3.8-4.8c-1.3-2.1-1.9-4.6-3.2-6.8c-2.9-4.9-6.4-4.9-9.3,0.1c-1.8,3.2-3.2,6.6-5.3,9.5
			c-1.9,2.6-4.9,4.5-6.9,7.1c-2.2,2.8-3.6,6.2-5.6,9.2c-1.8,2.7-3.5,5.7-6,7.7c-4.8,3.9-8,8.7-10.4,14.3c-3.8,8.9-11.5,10-19,3.6
			c-12.7-10.6-17.9-24.1-18.2-40.4c-0.5-24.7,1.6-49.3,4.6-73.8c4.8-39,10.2-77.9,15.3-116.9c3-23,5.8-45.9,8.5-68.9
			c0.8-6.9,0.8-14,1.2-20.9c0.3-4-2-5.9-5.4-6.6c-5.4-1-10.9-1.3-16.2-2.6c-10.9-2.7-22.1-5-32.5-9.1c-9-3.5-17.4-9-25.6-14.2
			c-7-4.5-13.2-10.1-22.1-10.6c-1.6-0.1-4.1-3-4.5-5c-2.5-13.8-2.8-27.8-1.1-41.8c0.5-3.9,2-6.9,6-8.4c3.1-1.2,4.4-3.5,2.7-6.7
			c-1.5-2.8-0.3-4.5,2.4-5.2c2.2-0.6,4.7-1.3,6.9-0.9c19.4,3.3,38.9,1.3,58.3,0.2c14.3-0.8,28.6-1.8,42.8-3c8-0.7,9.6-2.9,10.8-11
			c3.4-23.4,7.1-46.7,10.6-70.1c2.3-15.3,4.4-30.7,6.5-46c3.7-28.1,7.2-56.2,11.1-84.2c2.9-20.3,6.5-40.4,9.6-60.7
			c1.6-10.8,4.7-20.8,12.6-28.7c0.8-0.8,1-2,1.5-3.1C657.7,269,660.3,269,663,269z M894.3,741.5c-0.6,0-1.2,0.1-1.8,0.1
			c-0.4,0.7-1.1,1.3-1.2,2c-5.4,20.1-11.3,40-15.7,60.3c-1.9,9.1-1.4,18.9-0.3,28.3c0.5,4.4,1.3,8-0.3,12.3
			c-1.3,3.4-0.9,7.4-0.9,11.2c0,0.8,1.6,1.7,2.5,2.5c0.7-0.8,1.8-1.6,2.1-2.5c1.5-5.4,3.1-10.9,4.1-16.4c2.4-12.6,4.9-25.2,6.7-37.9
			c2.4-17.5,4.1-35,5.9-52.6C895.7,746.4,894.7,743.9,894.3,741.5z M904.5,850.6c-0.3,0-0.5-0.1-0.8-0.1c0.4-7.8,0.9-15.6,1-23.4
			c0-1.8-1.5-3.6-2.3-5.4c-1.3,1.5-3.4,2.9-3.8,4.6c-1.9,9.1-4.2,18.2-5,27.4c-1.3,16.9-1.8,33.8-2.2,50.8c-0.1,2.4,2.2,6.8,3.7,7
			c4.2,0.4,3.6-3.9,3.9-6.7C901.1,886.7,902.8,868.7,904.5,850.6z M1256.2,344.3c-0.6,0.5-1.5,1.1-1.5,1.3c0.2,0.8,0.7,1.7,1.3,2.3
			c2.3,2.3,5.1,4.1,6.8,6.7c2,3,2.8,6.7,4.4,10c1.2,2.5,3.2,5.1,6.1,3.2c1.1-0.8,1.4-4.9,0.4-6.3c-3.1-4.4-6.9-8.4-10.7-12.3
			C1261.2,347.3,1258.7,346,1256.2,344.3z M854.1,540.5c-0.9-0.1-1.7-0.2-2.6-0.3c-0.9,2.8-2,5.5-2.5,8.4c-0.2,0.8,1.2,2.5,2,2.7
			c0.9,0.2,2.8-1,2.9-1.7C854.3,546.6,854.1,543.6,854.1,540.5z M852,889.4c-1,0-2.1,0.1-3.1,0.1c0,3.1-0.3,6.1,0,9.2
			c0.1,0.7,1.5,1.6,2.5,1.8c0.5,0.1,1.8-1.3,1.8-1.9C852.9,895.5,852.4,892.5,852,889.4z M1339.1,423.4c-0.7,0.1-1.4,0.1-2.1,0.2
			c0.4,2.6,0.7,5.1,1.1,7.7c1-0.3,2.6-0.2,2.8-0.8C1342.3,427.7,1341.7,425.2,1339.1,423.4z M1094.1,443.8c-1.7-1.5-2.9-3.3-3.6-3.1
			c-1.3,0.3-2.7,1.7-3.1,2.9c-0.2,0.8,1.5,3,2.2,3C1091,446.5,1092.2,445.1,1094.1,443.8z M1287.7,375.7c-1.6-1.2-2.6-2.5-3.4-2.4
			c-0.9,0.1-1.8,1.4-2.7,2.2c0.9,1,1.6,2.3,2.7,2.7C1284.9,378.4,1286,377,1287.7,375.7z"/>
		<path d="M2337,1056c-1.7-1.3-3.3-3.4-5.2-3.8c-7.2-1.7-12.1-5-12.9-13c-0.4-4.4-2.5-8.8-2.5-13.2c-0.1-4.3,1.3-8.7,2.3-12.9
			c1.4-5.3,3.3-10.5,4.6-15.8c3.4-13.7,6.3-27.6,9.9-41.2c3-11.2,7-22.2,10.4-33.3c3.4-11.3,6.7-22.7,10-34
			c4-13.6,7.8-27.2,11.9-40.7c0.3-1.1,1.8-1.9,2.8-2.9c0.7,1.1,1.8,2.1,1.9,3.2c0.1,3.3,0.1,6.6-0.6,9.8c-2.4,11-5.1,21.9-7.8,32.8
			c-1.9,7.4-4.2,14.6-6.2,22c-2.3,8.5-4.4,17-6.6,25.5c-0.6,2.2-1.7,4.3-2.2,6.5c-0.7,3-1.1,6-1.6,9.1c0.7,0.2,1.4,0.4,2.1,0.6
			c0.7-1.1,1.6-2.1,2-3.4c1.4-3.9,2.8-7.7,3.8-11.7c3.3-12.8,6.5-25.7,9.7-38.5c2.1-8.5,4.2-17,6.3-25.5c0.2-1,0.6-1.9,0.8-2.9
			c3.6-24.2,10.6-47.6,16-71.4c3.9-17.5,6.7-35.3,9.7-53c2.5-14.4,4.7-28.9,6.7-43.5c4.3-30.6,7.5-61.3,5.4-92.1
			c-0.6-8.7,0.9-17.1,0.2-25.6c-0.6-7.8-0.6-15.7-0.2-23.5c0.9-17.4,2.3-34.8,3.5-52.2c0.2-2.5,0.5-5,1.1-7.4c1.8-7,5.1-9.7,12.2-10
			c21-0.9,41.7,1.2,61.4,8.8c9.4,3.6,18.2,8.8,27.2,13.4c9.5,4.9,18.8,9.9,28.2,15c1.6,0.9,3.5,2.5,3.8,4
			c2.3,11.5,8.6,21.2,14.4,31.1c7.4,12.7,12.9,25.9,11.6,41.1c-0.5,6-0.4,12-1.1,18c-1.9,16.3,2,31.6,6.3,47.1
			c3.3,12,5.3,24.5,6.2,36.9c2.7,36.2,4.8,72.5,6.6,108.7c0.6,11.3-0.4,22.6-0.7,33.9c-0.1,4.7-0.4,9.3-0.2,14
			c0.1,1.4,1.4,2.7,2.1,4.1c1.4-0.9,3.5-1.6,4.1-2.9c3.1-6.6,6-13.4,8.7-20.1c5.4-13.2,10.8-26.4,16-39.7c4.6-11.9,9-23.9,13.5-35.9
			c1.9-5,3.7-9.9,5.6-14.9c1.9,0.8,3.7,1.5,5.5,2.3c0.5-2,0.9-4,1.6-6c1.6-5,3.5-9.9,5-14.9c2.4-8.1,4.7-16.3,7-24.5
			c4-14.5,8.1-29,11.8-43.7c2.1-8.5,3.4-17.3,5.1-25.9c0.8-3.8,0.7-8,6.5-9.9c-1.3,10.1-2.7,20.2-4,30.3c0.4,0.2,0.8,0.4,1.3,0.6
			c1.4-2.1,3.5-4,4.1-6.3c3.6-13.7,6.9-27.4,10.4-41.1c2.8-11,5.9-21.8,8.6-32.8c3.7-15,7.2-30.1,10.7-45.2
			c5.4-23.3,10.8-46.7,16.2-70c1.4-6,2.8-11.9,4.1-17.9c0.3-1.5-0.1-3.1-0.2-5c-1.2,0.5-1.9,0.6-2,0.8c-2,6.1-3.8,12.3-5.9,18.4
			c-2.9,8.7-6,17.3-9,25.9c-0.2,0.5-0.4,1-0.8,1.3c-1.5,1.2-3,2.3-4.5,3.4c-0.3-2-1.3-4.1-0.8-5.8c4.7-16,9.6-31.8,14.4-47.8
			c7.4-24.8,14.5-49.8,22.3-74.5c3.7-11.9,8-23.7,13.2-34.9c5.8-12.5,12.7-24.4,19.7-36.3c3.7-6.3,8.4-11.9,12.7-17.8
			c2.9-3.9,11.3-4.4,16.1-1.2c1.5,1,3.2,1.5,4.8,2.2c0,1.7,0,3.3,0,5c-0.7,0.1-1.3,0.3-2,0.2c-6.6-0.9-6.2-0.8-6.5,5.9
			c-0.3,8-1.7,16-2.6,24c-0.6,5.6-1.6,11.2-1.8,16.8c-0.2,3.9,1.6,4.3,5.1,2.6c2.3-1.1,5.2-1.1,7.8-1.5c0,1,0,2,0,3
			c-1,0.7-2.6,1.2-3,2.1c-3.2,8.4-7.4,16.7-8.8,25.4c-3.6,23-5.9,46.2-9,69.3c-0.5,3.8-2.2,7.5-3.2,11.2c-0.9,3.3-1.7,6.7-2.1,10.1
			c-0.7,6.7-0.7,13.6-1.6,20.2c-1.5,10.5-3.8,21-5.5,31.5c-0.3,2.2,0.6,4.6,1,6.9c0.7,0,1.4,0,2.1,0.1c1.7-4.4,3.4-8.9,5-13.3
			c1.6-4.5,2.9-9.2,4.8-13.6c0.6-1.3,3-1.8,4.6-2.6c0.3,1.5,0.7,3,0.9,4.5c0.1,0.8-0.4,1.6-0.6,2.4c-1.8,12.5-3.6,25.1-5.5,37.6
			c-0.5,3.3-0.8,7.8-3,9.6c-5,4.2-5.2,9.1-5.3,14.7c-0.1,8.9,0.9,18-3.8,26.4c-1,1.8-0.6,5.8,0.8,7.3c3.8,4.4,4.3,9.2,3.6,14.5
			c-1.7,13-3.2,26.1-4.9,39.2c-0.2,1.4-0.9,2.9-1.8,4c-5.6,7.2-5.5,16,0.2,23.3c1.1,1.4,2.2,3.3,2.1,4.9c-0.6,5.7-1.5,11.5-2.8,17.1
			c-2.4,10.2-3,20.3-1.3,30.7c0.6,3.8,0.7,7.8,0.3,11.6c-0.7,6.3-4.2,12.7,2.4,18c0.7,0.6,0.9,2.1,1,3.3c1.5,18.5-1.9,36.5-6.4,54.3
			c-0.4,1.6-2.4,2.9-3.7,4.3c-1-1.4-2-2.7-3-4.1c-1.1-1.5-2.2-3-3.3-4.5c-1.3,1.5-3.3,2.9-3.8,4.6c-5,19-11.2,37.6-13.8,57.2
			c-0.9,6.9-3.2,13.6-5.6,20.2c-3.1,8.6-6.2,17.3-10.7,25.2c-7.2,12.7-9.6,27.7-19.2,39.1c-0.6,0.7-0.4,1.9-0.8,2.8
			c-1.1,2.5-1.8,5.3-3.6,7.2c-4.2,4.5-8.5,9.1-13.5,12.6c-7.1,5.1-14.3,11.3-22.4,13.4c-7.6,2-14.7,4.6-21.8,7.5
			c-12.9,5.3-25.7,10.2-40,5.5c-1.9-0.6-4.3,0.4-6.4,0.1c-2.8-0.4-5.6-1.2-8.2-2.3c-4.5-2-8.7-4.6-13.2-6.4c-3.7-1.4-7.7-2.2-11.6-3
			c-1.6-0.3-4.1-0.4-4.9,0.5c-0.9,1-0.6,3.4-0.2,5c0.5,2.4,1.6,4.8,2.4,7.1c-0.6,0.5-1.2,1-1.8,1.5c-4.4-3-9.4-5.4-13-9.1
			c-11.3-12-19.8-26.1-26.5-41.2c-7.2-16.4-14.8-32.7-21.6-49.2c-5.5-13.4-10.3-27-14.8-40.7c-4.9-14.8-9.2-29.9-13.9-44.8
			c-1-3.3-2-6.8-3.7-9.8c-1-1.8-3.1-3.8-5-4.1c-1.3-0.2-3.6,2.1-4.4,3.8c-1.3,3-1.9,6.4-2.5,9.6c-1.4,8.2-2,16.6-4.3,24.6
			c-1.5,5-5.3,9.3-8.4,13.7c-0.7,1-2.6,1-3.9,1.5c-0.4-1.3-1-2.6-1.3-4c-0.3-1.6-0.3-3.2-0.4-4.8c-0.5-0.1-1-0.2-1.5-0.3
			c-1.8,3.3-3.9,6.5-5.2,9.9c-2.5,7.1-5.1,14.2-6.5,21.5c-2,10.1-6.3,20.7,4.6,29.3c4.4,3.5,1.4,11.1-4.3,12c-0.3-1.4-0.3-3-0.9-4.3
			c-0.5-1-1.6-2-2.6-2.4c-0.4-0.1-2.1,1.4-2.1,2.2c0,4.1-0.8,8.8,0.8,12.2c2.3,4.7,2.5,8.9,1.2,13.5c-1.9,6.5-4.1,13-6.2,19.5
			c-1.6,4.9-4.5,9.7-4.6,14.6c-0.2,5.9-2.8,10.6-5.9,14.4c-7.9,9.7-12.8,20.5-16.4,32.2c-1.6,5.1-1.6,11-7.3,14.1
			c-0.6,0.3-1,1.3-1.3,2.1c-1.4,4.1-3.9,7-8,9c-3.9,2-7.4,4.9-10.9,7.7c-0.9,0.7-1.2,2.2-1.7,3.3C2353,1056,2345,1056,2337,1056z"/>
		<path d="M191,548c1.2-1.6,3.1-3.1,3.5-4.9c1.8-8.1,3.1-16.3,4.8-24.4c0.4-1.6,2-3,3.3-4.3c1.6-1.7,3.4-3.1,4.9-4.8
			c1.2-1.3,1.8-3.3,3.2-4.3c4-2.9,6.2-6.8,7.4-11.5c2.8-10.9,10.2-19,17.5-27c24.6-27.2,53.1-49.7,83.8-69.6
			c7.7-5,14.1-12.1,21.7-17.4c4.2-3,9.5-4.4,14.3-6.4c8.8-3.5,17.7-6.8,26.4-10.4c11.7-4.8,23.2-9.9,34.9-14.7
			c7.5-3.1,15.3-5.6,22.7-8.7c2.2-0.9,4-2.9,5.6-4.8c3.9-4.7,7.9-8.9,14.4-10c2.9-0.5,4.7-2.3,3.9-5.8c-0.3-1.2-0.1-3.3,0.5-3.6
			c6.1-3.4,8.8-11.9,16.6-12.5c8.2-0.6,16.5-0.4,24.7,0.3c2,0.2,4.3,3.5,5.4,5.8c8.4,17.2,17.6,33.5,31.2,47.6
			c6.9,7.2,11.2,17.7,14.8,27.4c5.9,16,6.8,32.9,4.6,49.8c-2.1,16-8.9,29.8-22.7,38.7c-10.3,6.6-21.5,11.7-32.3,17.7
			c-2.4,1.3-4.5,3.3-6.6,5.1c-1,0.8-1.5,2.3-2.6,2.9c-12.8,7.2-25.8,14.1-38.6,21.4c-12.4,7.1-24.8,14.1-36.9,21.7
			c-16.5,10.3-32.9,20.8-48.9,31.8c-12.6,8.7-24.6,18.1-36.5,27.7c-2.2,1.8-3.6,5.8-3.5,8.7c0.1,6.8,0.7,13.6,2.2,20.2
			c2,9,9.7,13.2,16.8,17.5c13.5,8.1,27.6,15.4,39.5,26c1.3,1.2,4,0.8,6,1.2c2.3,0.4,5.2,0.2,6.9,1.4c7.6,5.6,15.1,11.3,22.1,17.6
			c14.1,12.6,28.7,24.9,41.6,38.8c8.9,9.6,16.2,21.1,22.8,32.5c10,17.4,19.3,35.2,28,53.3c8,16.6,15.2,33.6,17.1,52.3
			c1.8,17.4-3.4,32.9-13.7,46.8c-17.1,23.1-38.1,42.3-61,59.3c-12.9,9.5-27.5,16.6-40.9,25.5c-9.1,6-17.4,13.2-26.2,19.7
			c-1.2,0.9-2.9,1.8-4.4,1.8c-7.9,0-15,2.3-21.5,6.7c-3.7,2.5-7.6,1-8.3-3.4c-0.9-5.7-3.9-8.5-9.1-10.5c-7.5-3-14.9-5.4-23.2-5.2
			c-9.1,0.1-18.3-0.3-27.4-0.7c-2.1-0.1-4.6-1.1-6.2-2.5c-3.6-3-7.3-3-10.4-0.3c-4,3.4-7.6,7.4-10.9,11.5c-2.7,3.4-4.4,3.8-8.9,1.8
			c-7.1-3.1-15-4.1-21.6-8.5c-0.2-0.2-0.7-0.1-1-0.1c-9.1,0-8.9,0-11.4-8.8c-1.8-6.6-4.4-12.9-6.1-19.5c-3.5-13.9-1.6-27.4,3.9-40.4
			c4.1-9.8,8.1-19.7,13.5-28.8c4.9-8.3,10.4-16.3,17.7-23.1c13.2-12.2,25.3-25.6,37.7-38.5c1.1-1.2,2.5-2.6,2.7-4.1
			c1.5-10.5,9-17.2,15.2-24.7c11-13.4,22.2-26.5,33-40.1c3-3.7,5.1-8.2,7.1-12.5c2.5-5.3,1.2-8.8-4-11.6c-7.5-4-15-7.8-22.4-12
			c-2.7-1.5-4.8-4.1-7.3-6c-1.4-1.1-3.1-2.3-4.7-2.5c-7.6-1.1-12.4-5.9-16.4-11.8c-0.9-1.3-1.9-3.1-3.2-3.7
			c-12.9-5.5-21.8-16.2-32.4-24.7c-12.6-10.1-25-20.4-37.5-30.7c-1.2-1-2.7-2.8-2.5-3.8c1.6-5.9-2.2-9.8-4.7-14.2
			c-6.2-10.7-13.1-21-18.4-32c-3.2-6.6-4-14.4-6.2-21.5c-0.7-2.3-2.5-4.2-3.8-6.3C191,576.7,191,562.3,191,548z M472,312.4
			c5.6,5.4,17.4,5.5,21.7,0.1C489.6,309.2,475.8,309.1,472,312.4z"/>
		<path d="M1753.2,395.6c1.9-0.2,3.4-0.1,4.7-0.6c5.7-2.1,10.1,0.5,14.1,3.9c0.7,0.6,0.7,3.1,0,3.9c-1.1,1.3-2.9,2.3-4.6,2.8
			c-5.4,1.6-11,2.5-16.4,4.3c-4.2,1.3-8.3,3.1-12,5.3c-5,2.9-10.2,5.9-14.4,9.8c-5.9,5.5-11.5,11.5-16.4,17.9
			c-8.3,10.8-15.1,22.7-26.6,30.8c-2,1.4-3.1,5.1-3.3,7.9c-0.5,6.9-3.5,12.4-7,18.3c-8,13.6-14.9,27.8-22.3,41.7
			c-5.9,11.3-11.9,22.7-17.7,34.1c-2.6,5.2-4.9,10.5-7.4,15.8c-4.6,9.9-9.3,19.8-13.7,29.9c-2.4,5.5-4.2,11.2-6.5,16.7
			c-2,4.9-4.3,9.7-6.3,14.5c-2.2,5.1-3.8,10.6-6.6,15.4c-2.2,3.7-6.1,6.3-8.7,9.8c-2.8,3.6-5.4,7.5-7.3,11.6
			c-4.9,10.5-9.5,21.2-14.1,31.8c-1.1,2.6-2.4,5.4-2.4,8.1c-0.1,10.9-4.8,20.1-9.9,29.4c-4.6,8.4-7.9,17.6-11.1,26.6
			c-4.2,11.6-9.1,22.7-16.8,32.6c-3,3.9-4.7,9-6.4,13.7c-1,2.8,2.7,4.6,6.5,3c3.4-1.4,6.8-2.9,9.7-5c23.6-16.8,47.3-33.4,70.5-50.6
			c18.7-13.9,36.7-28.7,55.1-42.9c8.5-6.6,17.5-12.7,25.7-19.6c12.8-10.8,25.2-22.3,37.8-33.4c4-3.5,8.4-6.6,12.4-10.1
			c3.4-3,6.3-6.3,9.6-9.4c2.9-2.7,5.9-5.2,9-7.7c5.4-4.4,10.9-8.8,16.4-13c6.8-5.1,13.7-10,20.4-15.1c1.8-1.4,3.1-3.4,4.7-5.1
			c-0.4-0.7-0.8-1.3-1.2-2c-4.4,1.5-8.7,2.9-13.1,4.4c-3.8,1.3-7.5,3.4-11.3,3.6c-3.5,0.1-7.7-1-10.5-3.1
			c-7.4-5.5-15.6-8.5-24.6-10.4c-12.1-2.5-24.3-5.1-35.9-9.3c-6.6-2.4-12.4-7.5-18-12c-1.4-1.1-2-5.6-0.9-7c5-6.8,4.2-13.8,1.7-20.9
			c-1.7-4.8-1.3-9.1,1.8-13.2c0.4-0.5,0.8-1.1,1-1.7c2.9-6.9,3.2-6.1,10.4-5.3c9,1.1,18.2,0.9,27.2,0.2c17.2-1.3,33.3-7.6,49.7-12.6
			c24.6-7.5,49.2-15.5,74.9-18.7c4.9-0.6,9.9-1.2,11.8,5.2c6.4-5.9,6.4-5.7,14.8-1.8c6.6,3.1,11.6,7.5,12.7,14.8
			c1.1,7.2,4.6,12.1,11.7,13.9c5.1,1.3,6.5,4.6,5.8,9.4c-0.4,3.1-0.5,6.3-0.9,9.4c-0.8,5.4,1.2,9.3,6.3,11c5.2,1.8,6.7,5.5,6.6,10.4
			c-0.1,5,0.1,10,0.2,15.1c0.7,0.1,1.4,0.2,2.1,0.3c0.6-1.9,1-3.8,1.8-5.6c0.7-1.5,1.9-2.8,2.8-4.2c1.4,1.3,3.8,2.4,4,3.8
			c0.6,4,1.1,8.4,0.1,12.3c-4.5,18.2-9.4,36.4-14.5,54.4c-4.3,15.2-9.2,30.2-14.1,45.2c-2.4,7.4-5.1,14.8-8.6,21.8
			c-3.3,6.7-1.1,12,2,17.8c1.9,3.5,3,7.7,3.7,11.7c0.8,4.8-1,9.1-5.5,11.4c-10.6,5.3-13.2,15.3-15.5,25.4
			c-4.6,20.3-8,40.9-13.7,60.8c-2.6,9.3-9,17.7-14.3,26.1c-2.9,4.5-7,8.4-11.2,11.9c-10.8,8.9-18.2,20.3-24.2,32.6
			c-2.5,5.1-5.1,9.3-10.5,12.6c-6.9,4.3-12.2,11.1-18.3,16.8c-4.7,4.3-9.4,8.6-14.3,12.8c-3.4,2.9-7,5.7-10.6,8.2
			c-5.2,3.6-10.6,5.9-17.3,3.9c-1.8-0.5-4.1,0.6-6.1,1.3c-0.9,0.3-1.6,1.6-2.5,1.6c-8,0.2-7.6,5.8-7.3,11.2
			c0.5,8.7-4.1,15.7-10.2,20.2c-4,2.9-11,1.8-16.7,2.3c-0.4,0-1.5-2.3-1.3-3.3c2.1-6.8-1.7-11-6-15.2
			c-12.1-11.7-15.1-25.9-10.9-41.7c3.6-13.5,7.5-26.9,11.7-40.2c1.5-4.8,1.5-8.9-0.6-13.5c-2.3-4.8-1.4-5.8,3.8-7.1
			c1.7-0.4,3.7-1.7,4.5-3.2c5.1-9.4,8.5-19.5,9.3-30.2c0.5-6.1-2-7.5-7.8-5.5c-12.5,4.5-22.9,11.7-32,21.4c-4,4.3-10.3,6.5-15.8,9.3
			c-6,3.1-12.7,5.3-16.6,11.4c-0.3,0.5-1,0.9-1.5,1.3c-8.4,5.1-16.5,10.3-23.6,17.3c-4.6,4.6-10.3,6.6-17.3,3.7
			c-4.4-1.8-9.2-0.9-12.5,3.6c-1.6,2.1-3.3,4.3-5.4,5.9c-2,1.4-4.5,2.1-6.8,3.1c-0.8-2.5-1.7-5.1-2.2-7.7c-0.2-1,0.5-2.3,1.1-3.2
			c1.3-1.9,4.8-4,1.8-6c-1.6-1.1-5.8-0.1-7.8,1.4c-3,2.2-4.7,6.2-7.6,8.5c-3.5,2.8-7.5,5.8-11.7,6.7c-8.8,1.8-17.8,2.9-26.8,3.2
			c-7.2,0.2-14.5-1.1-21.7-1.8c-3-0.3-6-1.3-8.9-1.1c-19.7,1.4-35.4-7.7-50.1-19c-5.8-4.4-10.9-9.7-15.9-15c-2-2.1-3.4-5-4.3-7.7
			c-3.2-8.9-6.2-17.8-9-26.8c-1.5-4.9-3.3-10,3.4-13.3c1.3-0.6,1.9-4.3,1.5-6.3c-4.6-21.2-0.5-41.8,3.7-62.3
			c2.9-14.2,6.2-28.3,10.2-42.2c4.4-15.2,9.6-30.1,14.7-45c4.6-13.4,9.4-26.6,14.2-39.9c2.6-7.2,5.7-14.2,8.5-21.3
			c3.7-9.4,6.9-19.1,11-28.3c4.7-10.5,10.3-20.5,15.3-30.8c6.4-13.3,12.7-26.7,19-40.1c6.2-13,12.4-26.1,18.7-39.1
			c6.4-13.2,12.9-26.2,19.2-39.4c3.4-7,5.3-15,9.8-21.1c10.9-14.9,18.8-31.5,29-46.8c7-10.5,12.6-21.9,19.3-32.6
			c8.3-13.4,16.9-26.7,25.7-39.8c3.4-5.1,12.1-6,17.7-2.7c3.6,2.1,7.4,3.7,10.9,5.8c4.1,2.4,8.5,4.5,12,7.6c7.9,7,10.8,7.4,18.9,1.2
			c7.3-5.5,7.3-5.5,14.6-0.6c0.6,0.4,1.8,1,2.2,0.7c3.7-2.6,6.2-1.1,8.7,1.9c0.7,0.8,2.8,0.8,4.2,0.5c10.3-1.8,19.3,1.3,27.6,7.2
			c2.1,1.5,5.1,1.7,7.4,3c1.5,0.9,3.5,2.6,3.6,4.1c0.3,4.5,2.4,5.8,6.5,5c10-2,14.7,4.3,18.3,13.2c1.6,3.8,2.5,7.9,3.9,11.8
			c2,5.6,1.3,8.4-4.4,9.9c-5.4,1.5-11.1,1.7-16.7,2.6C1757.9,390.5,1754.3,390.7,1753.2,395.6z M1726.2,841.6
			c-0.7-1-1.4-2.1-2.2-3.3c-1.1,0.8-2.7,1.4-3.3,2.5c-2.1,4.2-4.4,8.3-5.5,12.8c-2.5,9.6-8.4,18.3-8,28.7c0,0.9-0.7,1.8-1.1,2.7
			c-4.2,9.9-8.5,19.8-12.5,29.8c-0.6,1.6,0.1,3.7,0.1,5.5c1.7-1,4.2-1.6,5-3.1c3.1-5.5,6.2-11.1,8.4-16.9c5.6-14.9,10.8-30,15.9-45
			C1724.5,851,1725.1,846.5,1726.2,841.6z M1558.8,472.9c-0.8-1.5-1-2.6-1.6-2.8c-0.8-0.3-2.2-0.2-2.6,0.4c-1.8,2.4-3.4,4.9-4.8,7.5
			c-0.3,0.6,0.3,1.8,0.8,2.6c0.2,0.3,1.5,0.3,1.8,0C1554.6,478,1556.7,475.4,1558.8,472.9z"/>
		<path d="M2304.8,920.9c0,4.7,0.5,8.4-0.1,11.9c-1,5.6-2.8,11.1-4.1,16.7c-1,4.4-1.8,8.8-2.5,13.2c-0.3,2.1,0.2,4.4-0.4,6.5
			c-0.4,1.5-1.9,2.7-2.9,4c-0.9-1.3-2.1-2.5-2.5-3.9c-0.8-3-0.8-6.3-1.9-9.3c-0.6-1.5-2.7-3.4-4.1-3.4c-1.2,0-2.9,2.3-3.5,3.9
			c-0.8,2-0.3,4.3-1,6.4c-0.4,1.3-1.8,2.4-2.8,3.6c-1.1-1.1-3-2.3-3-3.4c0.1-3.4,1-6.7,1.4-10.1c0.2-2-0.1-4.1-0.2-6.2
			c-2.1,1.1-5.7,1.8-6.1,3.4c-1.4,5.4-7.2,9.7-4.3,16.3c0.2,0.5-0.3,1.6-0.8,2.3c-3.6,4.9-7.2,9.8-11,14.9c-2.1-2-2.6-5.4-1.8-9.1
			c0.3-1.5,0.8-2.9,0.8-4.4c0-0.8-0.7-2.1-1.3-2.4c-0.7-0.3-2.2,0.2-2.5,0.8c-1.8,3.5-5.2,6.7-2.4,11.4c2.2,3.7,0.1,5.7-3.5,5.2
			c-7.2-0.9-14.6-1.8-21.5-3.9c-2.2-0.7-3.5-5.1-4.7-8c-0.8-2.1-0.4-4.6-1-6.9c-1.3-4.8-0.7-5.5,4.4-6.2c2.4-0.3,6.8-1.5,6.8-2.2
			c-0.1-2.9-1.2-5.9-2.5-8.6c-1-2.2-3.3-3.9-4.2-6.1c-1.3-3.3-1.2-6.5,2.7-8.5c1-0.5,1.8-2.9,1.6-4.2c-1.4-6.9-3.2-13.7-5-20.5
			c-0.3-1-0.9-2.4-1.7-2.8c-4.3-2.2-4.4-5.7-3.9-9.8c1.8-16.1,2.9-32.2,5.2-48.2c1.5-10.3,4.6-20.4,6.8-30.7
			c1.9-8.9,3.7-17.9,5.3-26.9c0.3-1.9-0.4-4-0.6-6.1c-0.6-0.1-1.3-0.1-1.9-0.2c-0.4,2-1.2,4-1.2,6.1c0,3.2-1.6,4.8-4,6.8
			c-3.2,2.8-5.6,6.6-8,10.3c-4.5,6.9-8.8,14-13.1,21c-3.1,5.1-6.2,10.1-9.1,15.3c-4,6.9-7.7,14-11.6,20.9
			c-6.5,11.4-12.6,23-19.5,34.2c-7.9,12.7-16.3,25-24.7,37.4c-4.5,6.7-9.2,13.4-14.3,19.7c-1.5,1.8-4.4,3-6.9,3.4
			c-6.1,1-10.4,4.2-13.6,9.2c-2.2,3.4-4.4,6.7-9.3,6.2c-1-0.1-2.6,1.4-3.3,2.5c-2.9,4.3-5.3,8.8-8.3,13c-1.7,2.4-3.8,4.7-6.1,6.4
			c-5.6,3.9-7,3.5-10.4-2.5c-1.9-3.3-4.2-3.1-6.5-1.2c-5.1,4.2-9.8,9-15.1,13c-3.2,2.4-7,4.4-10.9,5.7c-3.2,1.1-4.5-1.7-5.3-4.5
			c-1.6-5.8-1.6-5.6-7-3.2c-1.6,0.7-4.2,0.3-6-0.5c-2.4-1.1-4.5-2.9-6.5-4.6c-2.8-2.3-5.3-2.4-8,0c-1,0.9-2.6,2.2-3.3,1.9
			c-6.7-3-15.3-1.5-20.3-8.7c-1.1-1.6-3.1-2.6-4.8-3.8c-0.8,1.5-2,2.9-2.4,4.5c-0.8,3.6-3.4,5-6.2,4.1c-5.9-2-12.2-3.8-17.1-7.4
			c-9.8-7.1-16.3-17-19.1-29c-2.5-10.5-4.7-21.1-7-31.6c-1.9-8.4,2.8-15.2,6.2-22.1c0.7-1.4,3.9-1.7,5.9-2.5
			c0.2,1.8,0.8,3.7,0.6,5.5c-0.3,3.8-1.4,7.5-1.6,11.3c-0.2,3.6-0.5,6.5-6.6,5.1c1.8,5.4,2.9,9.9,4.9,13.9c1.2,2.5,4.1,2.8,5.4-0.2
			c2.1-4.7,4-9.6,5.4-14.6c0.6-2.3-0.4-4.9-0.6-7.4c-0.3-3-0.5-6-0.7-9c-0.3-4.3-1.3-7.6-6.1-9.6c-2.6-1.1-5.4-4.7-5.7-7.4
			c-1.1-8.2-1.8-16.6-1.2-24.8c1.9-27.9,4.7-55.8,6.7-83.7c0.7-9.9,0.1-19.9,0.2-29.9c0-1.8,0.4-3.6,1-5.3c2.1-6.7,5-13.3,6.3-20.2
			c2.4-13.6,3.9-27.3,5.9-41c5.2-36.3,10.3-72.5,15.6-108.8c3.3-22.7,6.9-45.4,10.3-68.2c0.7-4.9,1.2-9.9,1.6-14.9
			c0.3-4.9,2.2-8.8,5.8-12.3c1.9-1.9,3.4-4.9,3.8-7.6c0.9-6,7.3-14.1,13-16.3c5.5-2.1,10.6-5.3,16.1-7.5c3.1-1.3,6.8-2.3,10.1-1.9
			c6.9,0.6,13.7,2.5,20.7,3.3c5.3,0.6,10.8,0.3,16.2,0.4c1.5,0,3.6-0.8,4.3-0.1c5.4,5.6,14.5,7.4,16.8,16.2c1,3.9,3.4,5.6,7.7,5.5
			c5.7-0.1,9.7,3.3,12.2,8.2c0.6,1.2,1.1,3.2,0.6,4.2c-2.6,4.5-2,8.2,2.4,11c-4.6,7.8-5.1,17.6-1.3,21.8c6.4-5.5,7.2-11.9,4.2-19.6
			c-1.2-2.9-0.8-6.5-1.4-11.1c2.2,1.3,3.2,1.6,3.5,2.1c2.2,4.6,4.5,9.3,6.4,14c0.6,1.6,1,3.8,0.4,5.3c-3.2,7.7-7.1,15.2-10.2,23
			c-2.2,5.5-3.4,11.4-5.1,17.2c-1.7,5.6-3.9,11-5,16.7c-2.9,14.3-5.2,28.7-8,43.1c-1.4,7.3-3.2,14.6-5.1,21.9
			c-1.1,4.3-4,7.3-8.7,7.9c-6.2,0.8-9.6,4.5-11.6,10.3c-2,5.8-4.6,11.4-7.2,17c-0.7,1.5-2.7,2.3-4,3.4c-0.6-1.8-1.7-3.5-1.9-5.3
			c-0.2-2.4,0.4-5,0.4-7.4c0-0.6-0.7-1.3-1.9-3.3c-2.1,6.6-4.1,11.9-5.6,17.4c-3.7,14-7.4,28-10.8,42c-1.9,7.9-3.8,15.9-4.9,24
			c-2.4,17.5-4.4,35-6.6,52.5c-0.2,1.8-0.3,3.7-1.1,5.3c-5,10.8-6.7,22.4-7,34.1c-0.2,6.2,2,12.5,2,18.7c0.1,13.3-0.5,26.6-0.8,40
			c-0.1,3.8,0,7.7,0.4,11.5c0.2,1.6,1.4,3.1,2.1,4.7c1.7-0.8,4-1.2,5-2.5c4.4-5.7,8.5-11.6,12.4-17.5c12.8-19.1,24.2-39.2,38.6-56.9
			c12-14.7,21.8-30.6,32.4-46c12.1-17.8,23-36.5,33.9-55.2c9.5-16.2,18.2-32.9,27.1-49.4c9.1-16.8,18.1-33.7,27.1-50.5
			c9.2-17.1,18.4-34.3,27.5-51.4c10.4-19.5,20.8-39,31.3-58.5c1.9-3.5,4.1-6.9,5.9-10.4c0.7-1.3,0.8-3,1.1-4.5
			c-1.4-0.2-2.7-0.6-4.1-0.6c-3.2,0.1-4.1-1.8-2.5-5.3c4.3-9.5,8.8-19,12.6-28.6c6.2-15.6,9-32,10.9-48.6c1.4-12.6,1.7-25.3,7-37.1
			c1.1-2.5,0.8-5.6,1.2-8.4c1-6.5,3.5-12.1,10.1-14.9c3.4-1.4,3.7-4,2.2-7c-0.4-0.7-1.2-1.3-1.4-2c-0.7-2.6-1.3-5.3-1.9-8
			c2.2,0.9,4.5,1.8,6.7,2.8c4.8,2.1,9.7,5.7,14.5,5.8c4.6,0.1,10-2.7,13.9-5.7c7.9-6,15.1-13.1,22.5-19.7c1.4-1.2,2.7-2.5,4.3-3.4
			c5.9-3.8,10.7-1.5,10.5,5.6c-0.1,3.7-2,7.5-3.7,11c-1.7,3.6-4.3,6.7-6,10.3c-1.5,3.2-1.3,6.1,3.4,6.1c3.4-0.1,4.5,2,4.5,4.7
			c0.1,6.8-0.1,13.6-0.2,20.4c0,3.1-0.4,6.3,0,9.4c0.2,1.4,1.5,3.4,2.7,3.6c1.2,0.3,3-0.9,4.1-2c2.9-2.8,5.2-6,8.2-8.6
			c4.4-3.8,8.6-3.3,11.1,1.7c2.2,4.3,2.9,9.3,4.3,14c0.8,2.8,1.6,5.6,2.4,8.5c1.2,4.1,2.9,8.2,3.4,12.4c0.9,7.6,8.6,14.1,3.8,22.6
			c2.4,6.8,0.9,13-2.2,19.3c-1.5,3.1-1.9,6.7-2.9,10.1c-1.6,5.9-3.4,11.8-4.8,17.7c-1.1,4.5-2.2,9.2-2.2,13.8
			c-0.1,13.5-6.3,25-11.9,36.6c-0.9,1.8-3.1,2.9-4.6,4.4c-3.5,3.5-2.6,7.2,2.1,8.8c1.3,0.5,3,1.9,3.3,3.1c1.2,5.7,1.5,11.4-3.3,15.8
			c-4.5,4.2-6.4,9.2-5.2,15.3c1.4,6.8-1.9,12.2-4.5,18c-2.2,4.8-4.6,9.7-5.7,14.8c-2.5,11.5-4.6,23.1-3.3,35
			c0.5,5.2-0.6,10.5-1.2,15.8c-1.7,14.5-3.8,29-5.2,43.6c-1.9,19.9-3,39.8-5.1,59.7c-0.9,8.7-3.3,17.3-4.8,26
			c-1.2,7-2.6,14.1-2.9,21.2c-0.8,17.4-5.6,33.3-15.9,47.5c-1.7,2.4-2,6.3-1.8,9.4c0.3,6.4,1,12.5-2.3,18.5c-1.1,2-1,4.8-1.4,7.3
			c-0.4,2.3-0.4,4.7-1.2,6.8C2313.4,919.5,2311.4,923.3,2304.8,920.9z M1997,856.3c0.8,0,1.5-0.1,2.3-0.1c0.5,2.5,1.7,5.2,1.4,7.6
			c-1.2,11.6-2.7,23.1-4.1,34.7c-0.4,3.3-0.9,6.6-1,9.9c0,1,1.2,2.7,2.1,2.8c0.9,0.1,2.5-1,2.9-2c0.9-2.1,1.5-4.4,1.8-6.7
			c1.8-13,3.8-26,5.2-39.1c0.6-5.2,0-10.6-0.5-15.9c-0.1-1-2-2.5-3.2-2.6c-4.3-0.4-4.8-1.5-3.2-5.6c1.4-3.5,2.2-7.2,2.9-10.9
			c0.6-2.9,0.5-6,0.9-8.9c3.6-21.8,7.4-43.6,10.9-65.5c0.3-1.6-0.8-3.5-1.3-5.3c-1.3,1.1-3.1,2-3.8,3.4c-6,11.8-10,24.2-11.2,37.5
			c-0.8,8.7-1.9,17.5-3.3,26.2c-1.9,12-4.2,23.9-6.1,35.9c-0.5,3.1-0.2,6.3,0.3,9.4c0.2,1.3,1.8,2.3,2.8,3.5
			c0.8-1.1,1.9-2.1,2.5-3.4C1996.2,859.7,1996.5,857.9,1997,856.3z M1979.9,867.9c0.5,0,1.1,0,1.6-0.1c0.2-1.7,0.5-3.4,0.6-5.1
			c0.5-14.8,1-29.6,1.4-44.4c0-1.7-1.1-3.3-1.5-5c-0.6-2.9-2-6-1.4-8.8c1.1-5.7,3.3-11.1,4.8-16.8c0.9-3.4,1.4-6.8,1.7-10.3
			c0.1-1-0.8-2.8-1.7-3.1c-0.8-0.3-2.6,0.7-3.2,1.6c-1.4,2.2-2.8,4.7-3.2,7.2c-2.8,17.6-5.4,35.2-7.7,52.8
			c-0.9,6.7-0.8,13.6-0.9,20.4c0,2.1,0.8,4.1,1.3,6.2c0.6,0,1.1,0,1.7,0c1.1-3.5,2.2-7,3.4-10.5c0.5,0.1,0.9,0.1,1.4,0.2
			C1978.6,857.4,1979.2,862.6,1979.9,867.9z M2250.3,700.2c-1.5,2.2-2.4,3.3-3,4.5c-2.9,6.6-5.9,13.3-8.6,20c-1,2.6-1.6,5.4-1.9,8.2
			c-0.2,1.4,0,3.5,0.9,4.2c3.6,2.7,3.1,6.2,2.8,9.9c-0.1,1.4,1.3,2.9,2.1,4.3c1-1.3,2.5-2.5,2.8-4c0.6-2.7,0.2-5.7,0.8-8.4
			c1.8-7.2,4.2-14.3,5.7-21.6C2253.2,712.2,2253.9,706.7,2250.3,700.2z M1937.8,864.4c5.7-23.4,8.3-63.1,4.8-73
			C1936.3,816.2,1934.6,840.1,1937.8,864.4z M1959.5,982.9c0.5-0.2,0.9-0.3,1.4-0.5c0.1-1.5,0.7-3.1,0.3-4.4
			c-1.4-3.7-2.8-7.6-5.1-10.7c-2-2.8-5.1-4.7-7.7-7c-2.2,2.9-5,5.5-6.5,8.8c-2,4.2-0.5,8.2,2.8,11.3c2.5,2.3,4.6,1.6,5.2-1.8
			c0.3-1.6,0.4-3.3,0.8-6.4C1954.2,976.6,1956.8,979.8,1959.5,982.9z M2239.8,931.8c0.4,3,0.5,5.4,1.1,7.6c0.9,3.2,3.3,4.5,5.1,1.3
			c2.7-4.8,5-10,6.4-15.4c0.5-1.8-1.8-5.6-3.7-6.4c-3.2-1.4-6.1,0.9-7.2,4.3C2240.7,926.2,2240.3,929.3,2239.8,931.8z M2272.5,657.8
			c-5.2,11.6-8,23.6-8.8,36.2C2271.2,682.9,2277.8,671.7,2272.5,657.8z M1980.5,974.1c0.1-5.1-3.6-8.7-7.6-8.7
			c-3.1,0-6.2,0.5-6.6,4.5c-0.3,3,5.8,8.4,9.2,7.7C1977.7,977.1,1979.4,974.9,1980.5,974.1z M2283,618c-0.9-1.8-1.8-3.5-2.8-5.3
			c-0.9,0.8-2.3,1.5-2.6,2.6c-2,6.8-3.9,13.6-5.6,20.5c-0.2,0.8,0.2,2.2,0.8,2.6c0.6,0.4,2,0.2,2.7-0.3c1-0.7,2.2-1.8,2.5-3
			C2279.8,629.6,2281.3,624,2283,618z M2256.2,657.9c-0.7-3.5-1-5.8-1.8-8c-0.5-1.2-1.8-2.1-2.8-3.1c-0.9,1.1-2.3,2.1-2.5,3.3
			c-0.4,2.4-0.6,5-0.1,7.4c0.4,1.8,2,3.4,3,5.1C2253.6,660.8,2255,659.2,2256.2,657.9z M1983.6,924.5c0.8-0.3,1.5-0.6,2.3-0.9
			c-1.3-4.4-2.4-8.9-4-13.3c-0.3-0.9-2.3-1.2-3.5-1.8c-0.4,1.3-1.4,2.9-1,3.9C1979.2,916.5,1981.5,920.5,1983.6,924.5z
			 M2074.3,982.6c2-2.8,3.7-4.8,4.8-7.1c0.2-0.5-1.5-2-2.3-3c-2.2,2.2-4.4,4.5-6.7,6.7C2071.1,980,2072.1,980.8,2074.3,982.6z
			 M1963.3,832.2c-1-0.2-2-0.3-3-0.5c-0.7,4.1-1.3,8.2-2,12.4c0.9,0.2,1.8,0.3,2.7,0.5C1961.7,840.4,1962.5,836.3,1963.3,832.2z
			 M2308.4,901.2c4.6-3.4,4-6.8,3.2-10.1c0-0.2-3.1,0.1-3.1,0.2C2308.4,894.3,2308.4,897.2,2308.4,901.2z M2266.5,930
			c2.6,1.4,4.9,2.7,7.1,3.9c0.3-0.8,0.9-2.3,0.8-2.3c-2.1-1.2-4.2-2.2-6.4-3.2C2267.9,928.4,2267.8,928.6,2266.5,930z"/>
		<path d="M2697.8,564.4c0.6,2.1,1,2.8,0.8,3.3c-1.9,8.2-3.8,16.4-6,24.5c-0.8,3.2-2.7,5.6-6.6,5.8c-1.1,0-2.1,1.4-3.3,1.9
			c-1.1,0.5-2.2,0.9-3.3,1.3c-0.3-1.4-1.1-2.9-0.7-4c0.5-1.4,1.9-2.6,3.3-3.4c4.9-3.1,8.3-6.9,9.4-13.1
			C2692.4,575.5,2695.3,570.7,2697.8,564.4z"/>
		<path d="M2651.3,710.9c-2.4-5.2-0.5-12.5,2.7-14.2c0.6-0.3,1.8-0.4,2.2,0c0.6,0.6,1.3,2,1,2.5
			C2655.6,702.9,2653.7,706.4,2651.3,710.9z"/>
		<path d="M2688.2,617.4c-1.9,2.2-3.2,3.8-4.6,5.4c-0.7-1.1-2.1-2.4-1.9-3.3c0.6-2.2,1.9-4.2,2.9-6.3
			C2685.6,614.4,2686.7,615.6,2688.2,617.4z"/>
		<path d="M2404.9,640.1c-2,1.7-3.2,2.8-4.4,3.8c-1.1-1.4-2.8-2.8-3-4.3c-0.1-1.1,2-3.1,3.3-3.2
			C2401.9,636.3,2403.1,638.4,2404.9,640.1z"/>
		<path d="M2401.1,668.2c-1.5,1.6-2.5,2.7-3.5,3.7c-0.9-1.1-2.6-2.2-2.6-3.2c0.1-1.2,1.6-2.3,2.5-3.5
			C2398.6,666,2399.6,666.9,2401.1,668.2z"/>
		<path d="M2397.1,694.9c-1.6,1.6-2.7,2.6-3.8,3.5c-0.8-1-2.3-2-2.3-3.1c0-1.1,1.2-2.7,2.3-3
			C2394.1,692.1,2395.4,693.7,2397.1,694.9z"/>
	</g>
</g>
<g>
	<g>
		<path class="st1" d="M4134,1200c-2.5-3.9-6-4.6-10.5-5c-3.8-0.4-7.5-2.8-11-4.9c-6.2-3.7-12.2-8-18.4-11.8
			c-1.3-0.8-3.4-0.9-5.1-0.7c-5.6,0.6-7.4-1.1-6.4-6.4c0.1-0.4-0.4-0.8-1-1.9c-0.8,1.6-1.4,2.8-1.9,3.7c-9.1-3.9-18.2-7.7-27.3-11.7
			c8.7-2.4,15.4,1.8,22.2,6.1c1.9,0.5,3.9,1,5.8,1.5c0-0.5,0.1-0.9,0.1-1.4c-2,0-4,0-5.9,0c-0.4-2.5-4.9-5.9-7.9-6.4
			c-11.8-2-23.5-4.1-35.3-6.2c-1.2-0.2-2.8-0.5-3.5-1.4c-3.7-4.6-8.7-4.5-13.9-4.5c-1.3,0-3.3-1.1-3.6-2.1
			c-1.7-5.4-5.4-7.1-10.6-6.8c-1,0.1-2,0-2.5,0c-2.4-7.4-11.2-1.6-13.8-7.9c0.7-0.4,1.8-1.1,2.9-1.8c0.1-0.4,0.2-0.8,0.2-1.2
			c-6.1-0.9-12.1-1.9-18.4-2.8c1.6-1,3.3-2,4.9-3c-3-0.7-6.3-3.3-7.5,1.3c-2.2-0.7-4.5-1.4-7.5-2.3c1.8-1.6,2.8-2.5,3.8-3.4
			c-7.7-5.4-15.2-10.7-22.8-16.1c1.8-0.1,3.6-0.3,6.5-0.5c-5.7-5.6-15.1-4.8-17.2-13.5c1.4-0.1,3-0.3,6.2-0.6
			c-5.3-2.9-9.6-5.3-14.2-7.8c0.9-1.8,1.7-3.2,2.4-4.6c7,1.7,13.7,3.4,20.5,4.9c3,0.6,6.2,0.8,9.3,0.6c0.6,0,1-2.5,1.9-5
			c5.9,0.5,13.1,1.5,20.2,1.5c9.2,0,18.5-0.4,27.7-1.2c3.4-0.3,7.3-1.4,5.5-6.8c-0.5-1.4,0.6-3.4,1.1-5.7c3.6-0.7,8.2-1.4,12.7-2.5
			c1.5-0.4,3.4-1.3,4-2.5c2.8-6.2,8.3-8.4,14.2-9.4c12-2,18.6-9,20.9-20.7c1.8-9.4,6-19,5.3-28.2c-0.7-9.3,4.6-16.5,4.7-25.1
			c0-1.5,0-3,0-5.8c-2.4,2.1-4.1,3.5-7,6c-0.3-3-1-5.1-0.6-6.9c4.1-20.6,9-41,12.3-61.8c1.4-8.7-0.3-17.9-1-26.8
			c-0.6-8-2.2-15.9-2.7-23.9c-1.2-17.5-2-34.9-3.1-52.4c-0.2-2.8-0.9-5.6-1.4-8.4c0.4-0.4,0.9-0.7,1.3-1.1c-2.9,0-5.8,0-8.8,0
			c0-0.3-0.1-0.6-0.1-0.9c2.7-1.4,5.4-2.8,9.6-4.9c-2.5-1-4-2.2-4.7-1.8c-8,4.2-17.8,4.9-24.9,10.8c0.3,0.7,0.6,1.4,0.8,2.2
			c4-1.1,8.1-2.3,12.1-3.4c0.2,0.4,0.3,0.7,0.5,1.1c-1.8,1.1-3.6,2.4-5.6,3.2c-5.1,2.1-10.3,3.8-15.3,6.1c-1.6,0.8-2.5,3.1-4.2,5.4
			c-0.3-0.9-0.8-2.6-1-3.3c-7.3,2.3-15,4.5-22.5,7.1c-2.5,0.8-4.6,2.7-6.8,4.1c0.2,0.6,0.5,1.1,0.7,1.7c4.8-1.3,9.5-2.7,14.3-4
			c0.2,0.5,0.3,1.1,0.5,1.6c-7.2,2.3-14.5,4.6-21.7,7c-0.2-0.3-0.3-0.7-0.5-1c0.9-1.2,1.9-2.5,2.8-3.7c-0.1-0.4-0.3-0.7-0.4-1.1
			c-2.5,0.6-5.1,1.1-7.5,1.8c-1.9,0.6-3.5,2-5.4,2.3c-4.8,0.8-3.4,3.1-1.7,5.7c-4.4,1.3-8.8,2.6-12.9,3.8c-1.1-1.1-2.3-2.5-3.6-3.8
			c-0.4,0.3-0.8,0.6-1.2,1c0.2,1,0.4,2.1,0.6,3.3c-0.5,0-1.1,0.2-1.4,0c-2.8-1.6-4.6-0.5-7,1.3c-6.5,4.9-13.1,12-20.4,13.1
			c-11.6,1.8-21.2,7.2-31.4,11.6c-8.4,3.6-16.8,6.9-25.2,10.5c-5.2,2.2-8.6,5.8-10.4,11.5c-2.5,7.6-9.8,9-16.6,10.1
			c-6.6,1-12-1.6-16.2-7c-0.8-1.1-3.4-1.9-4.6-1.5c-3.4,1.1-4.8,0-7.4-2.4c-5.2-4.8-8.4-10.1-9.6-16.9c-0.2-0.9-1.3-1.7-2.1-2.4
			c-3.2-2.6-6-5.2-3.7-10c0.5-1.1-0.2-3.7-1.2-4.5c-5-3.8-5.4-9.4-6.6-14.8c-1.6-7.1-2.7-14.3-5.1-21c-2.3-6.3-5.7-12.3-9.3-18
			c-1.5-2.4-1.6-4.2,0.2-5.4c2.6-1.7,4.3-6.3,8.5-3.7c8.7,5.4,16.2,0.4,23.7-2.1c8.8,7,18.3,9.9,29.2,5.7c3.2-1.2,5.5-1,2.9,4
			c2.1-0.3,3.8-0.2,5.2-0.7c17.1-6.1,34.2-12.4,51.4-18.4c3-1.1,7.2-3.8,9.2,1.9c0.2,0.6,1.7,1,2.6,1c2.4-0.1,5-0.1,7.2-1
			c2.1-0.9,3.9-2.8,5.8-4.2c-0.7-0.3-1.5-0.6-3.7-1.5c13-5.1,24.7-9.6,36.4-14.2c0.3,0.3,0.6,0.5,1,0.8c-2.9,1.8-5.8,3.6-9.6,5.9
			c2,0.2,3.8,0.9,5.2,0.4c14.1-4.9,28.2-9.9,42.2-15.2c5.9-2.2,11.4-5.5,17.2-7.8c6.8-2.6,13.9-4.5,20.7-7.1
			c8.2-3,16.2-6.2,24.3-9.6c4.4-1.9,1.4-6.1,2.3-9.2c0.7-2.5-0.2-5.4-0.3-8.1c-0.3-6.8-0.1-13.6-1.1-20.2c-0.5-3.3-2.7-6.7-5.1-9.2
			c-12.5-13.2-25.2-26-37.9-39.1c-1.2-1.3-2.2-2.8-3.7-4.6c-19.8,8.5-39.6,17-59.4,25.5c0.1,1.9,0.2,3.3,0.4,5.2
			c-1.8-1-2.9-1.7-4.3-2.4c-6.9,7.6-16.3,11-25.2,15.3c-2.9,1.4-5.5,3.5-8.4,5.1c-17.9,10.2-35.9,20.2-53.7,30.6
			c-6.7,3.9-11.3,10-15.4,16.6c-1.5,2.4-4.6,4.7-7.2,5.1c-11.5,1.9-22.7,1.8-32.5-6.5c-3.1-2.6-7.4-4.1-11.2-5.6
			c-6.8-2.8-9.9-8.7-13.7-14.5c-6.1-9.4-13.2-18.3-19.3-27.7c-7.4-11.5-14-23.5-21.4-34.9c-5-7.7-10.9-14.8-11.9-24.3
			c-0.5-5.3-0.1-10.7,0.5-16c0.1-1.1,2.8-2,4.3-2.8c5.6-3,11.1-3.1,17.5-1.7c3.4,0.7,7.7,3,11.8,0.2c1.4-0.9,4,0.2,5.9-0.4
			c19.3-5.6,38.7-10.8,57.7-17.3c16.8-5.7,33-13,49.5-19.5c13.6-5.4,27.3-10.5,40.8-16c2.8-1.2,5-4,7.7-5.4c6.5-3.2,5.4-10.7,9-15.5
			c0.8-1-0.2-3.4-0.5-5.2c-0.3-1.9-0.7-3.8-1.3-5.6c-0.7-1.8-1.7-3.6-2.6-5.3c-0.4-0.7-1.1-1.3-1.2-2c-1.2-7.8-5.4-12-13.5-12.9
			c-2.8-0.3-5.4-2.9-7.8-4.7c-12-8.7-24.1-17.4-36-26.2c-3.8-2.8-6.9-6.7-10.9-9.3c-10.1-6.9-18.3-16-27.7-23.8
			c-4.1-3.4-4.1-8.1-4.9-12.4c-0.2-1.2,3.7-4.3,5.8-4.4c5.5-0.3,11.1,0.7,16.7,1c3.2,0.1,6.5,0.1,9.6-0.3c8.4-1.3,17.3-1.6,25.1-4.5
			c10.4-3.9,19.8-10.2,29.8-15.1c4.1-2,8.8-2.9,13.3-4.1c5.9-1.5,8.3-5.3,8.4-11.1c0-0.4,0.3-0.9,0.7-1.3c0.4-0.4,1-0.7,2.2-1.4
			c0.2,3.8,0.3,7,0.5,10.2c7.1-0.1,8.4-1.4,8.6-7.7c0.1-2.6,0.2-5.4,1.1-7.7c2.8-7,0.5-13.8,0.2-20.8c-0.5-10.3-0.2-20.6,0-30.9
			c0.1-4.5,0.6-8.9,0.8-13.4c0.7-14,1.2-28.1,1.9-42.1c0.6-11.4,1.1-22.8,2-34.2c1.1-14.9,2.7-29.8,3.9-44.7c0.1-1.5-1-3.2-1.5-4.8
			c-1.1,1.2-2.5,2.2-3.1,3.5c-1.5,3.4-1,7.3-4.6,10.2c-1.6,1.3-0.1,6.1-0.5,9.2c-0.2,1.6-1.5,3.1-2.2,4.7c-0.5-1.5-1.2-3.1-1.5-4.6
			c-1-5.8,0.2-12.1-4.5-16.9c-0.4-0.4-1-1.3-0.8-1.7c3.2-8.1-3.4-14.4-3.8-21.9c-0.2-3.6-1.7-7.1,3.9-8.2c4.2-0.8,6.3-9,4.4-13.8
			c-1.8-4.5,0-6.8,1.6-9.8c2,0,4,0,6,0c1,1.3,1.7,3,3,3.7c1.8,1,4.1,1,6.1,1.8c13.3,5.7,26.7,10.6,41.6,9.4
			c3.8-0.3,8.3,1.1,11.4-0.4c3.3-1.6,5.4-1,8.2,0c1.5,0.5,3.1,1.1,4.7,1.3c11.1,1.8,22.3,3.3,33.4,5.2c3.9,0.7,7.9,1.7,11.6,3.3
			c2.8,1.2,5,3.7,7.6,5.3c9.2,5.3,10.2,7.7,6.9,17.8c-1.5,4.6,0.3,6.5,5.4,7.6c2.9,0.6,5.5,2.7,8.2,4.2c-2.1,2-4.2,4.1-6.4,6
			c-1.3,1.2-3.3,1.8-4.3,3.2c-1.1,1.6-2.5,4.1-2,5.6c1.3,3.7-0.4,3.9-3.2,4.1c-5.5,0.4-9.9,5-8.9,10.6c0.8,4.5-0.6,8.2-1.6,12.2
			c-0.8,3.5-1.8,7-2.5,10.5c-2.8,13.5-0.7,27.9-7.9,40.5c-0.2,0.4,0,1-0.1,1.5c-0.5,6.9-1.1,13.8-1.6,20.7
			c-0.6,7.8-1.2,15.6-1.8,24.1c11.8-6.6,20.5-14.9,27.4-25.4c-1.9-0.8-3.5-1.5-5.3-2.2c4.4-2.8,6.7-2.5,10.2,2.5
			c2.6,3.8,4.5,2.6,7.1-0.2c-1.2-1-2.1-1.8-3.1-2.7c4.3-2.9,8.5-5.7,12.6-8.5c-0.4-0.7-0.7-1.3-1.1-2c-2.8,0.7-5.6,1.3-8.5,2
			c2-2.2,4.7-3.3,6.8-5c3.1-2.5,5.9-5.5,8.7-8.4c1.4-1.5,2-3.9,3.6-5.1c2.6-2.1,5.6-3.5,8.4-5.2c0,0.5,0,0.9,0,1.4
			c2.5,0.3,5,0.6,7.5,0.8c1.9,0.2,3.9,0,5.7,0.6c6.1,2.2,12,5.2,18.3,6.8c12.1,3.1,24.6,3.1,36.7,7.5c7.7,2.8,14.9,6,21.9,10
			c1.8,1,3.6,2.8,4.3,4.6c1.5,4.2,2.1,8.8,3.4,13.1c1.1,3.8,0.7,8.7,6.2,10c0.8,0.2,1.3,2.4,1.6,3.7c0.3,1.3-0.2,3,0.4,3.9
			c2.8,3.8,1.4,7-0.4,10.6c-0.9,1.7-1.7,4-1.4,5.8c0.7,3.9-0.8,6.5-3.7,8.7c-3.7,3-7.3,6.1-11,9.3c2.2,1.1,4.2,2,6.3,3
			c-2,2.2-3.5,4-5.6,6.4c3.1,0,5.1,0,8.4,0c-5.1,2.7-8.9,6.2-12.8,6.4c-6.9,0.3-10.8,6-17.1,7.7c-4.8,1.3-9,4.8-14.7,3.9
			c-5.8-0.8-9.4,6.9-15.8,4.7c-0.1,0-0.2,0.2-0.4,0.3c-2.1,2.2-4,5-7.7,2.9c-0.4-0.2-1.2,0.4-1.8,0.6c-6.7,2.8-13.3,6.2-20.3,8.3
			c-10.8,3.2-12.2,3.3-16.1,6.9c-0.2,0.2-0.6,0-0.1,0c-1.2-1.6-2.5-3.7-2.9-3.5c-4.8,1.8-9.4,3.9-14,6c-0.6,0.3-0.9,1.3-1.4,1.9
			c-0.4,0.6-1.2,1.6-1.3,1.6c-4-2.5-3.1,2.3-5,2.8c-2.3,0.2-4.4,0.8-6.5,1.5c-3.8,1.3-6.2,4.6-10.5,6c-9.5,3.1-18.3,8.3-27.3,12.8
			c-2.1,1-3.7,3-5.3,4.3c-0.2-0.2-1.2-1.2-1.4-1.1c-4,2.6-9.4,4.5-11.4,8.2c-2.6,4.8-2.4,11.1-3.4,16.7c-0.2,0.9-0.4,1.9-0.7,2.7
			c-0.7,2-1.7,3.9-2.3,5.9c-0.5,1.9-0.7,3.9-0.8,5.8c-0.3,4.7-0.6,9.3-0.9,14.5c11.7-4.4,22.4-8.4,33.2-12.5
			c0.2,2.6-0.5,5.2,3.4,3.7c3.7-1.4,5.9,0,5.4,4.2c3.8,0.4,7.3,1.4,10.6,1.1c3-0.3,5.7-2.6,8.7-3.3c8.4-2,17-3.4,25.3-5.7
			c7.5-2.1,14.8-5,22.2-7.5c4.6-1.5,9.2-2.9,13.8-4.3c-0.4,0.8-0.6,1.9-1.2,2.2c-3.6,1.8-7.2,3.5-10.9,5c-6.1,2.5-12.3,4.7-18.4,7.1
			c-0.6,0.2-0.9,1.3-1.5,2.2c4.3,1,8.5-5.1,11,0.8c7.1-2,13.9-3.7,20.6-5.9c1.9-0.6,3.5-2.6,5.1-4.1c1.3-1.2,2.4-2.7,3.4-4.1
			c0.9-1.2,1.6-2.6,2.4-3.9c-1.7-0.3-3.4-0.9-5-0.8c-1.9,0.1-3.7,1-5.6,1.5c7.4-5.4,15.6-8.3,25.7-9.2c-2.5,2.6-4.3,4.4-6,6.2
			c0.4,0.5,0.9,1,1.3,1.5c6.3-3.1,12.7-6.1,19-9.2c-0.2-0.6-0.3-1.3-0.5-1.9c-3.4,0.5-6.8,0.9-9.8,1.3c0.1-1.3,0.5-2.8,0.1-4
			c-0.4-1.4-1.4-2.7-2.1-3.9c5.4,0.4,10.5,0.8,15.6,1.3c0.1-0.6,0.3-1.1,0.4-1.7c-3.5-3.5-7.2-6.9-10.5-10.5c-1-1.1-2.5-3.7-2.1-4.1
			c4.2-4.6,0.3-8.2-1.5-12.5c6.7-3.4,13.8-3.2,20.3-1.5c8.7,2.2,17,6,25.4,9.4c4.6,1.9,8.9,4.8,13.6,6.7c2.4,0.9,5.5-0.2,7.9,0.7
			c4.9,1.9,9.5,4.7,14.3,6.9c2.4,1.1,5,1.6,8.4,2.6c-0.4,2.9,2.8,1.9,5.3,2.1c1.9,0.2,4.1,0.1,5.6,1c6.4,4,11.5,10,18.5,13.2
			c4.5,2,6.2,6.3,9.2,9.5c4.9,5.3,10.4,10.2,16.1,14.7c4.3,3.4,7.3,9,14.1,8.9c1.6,0,3.2,3.4,4.7,5.4c0.9,1.2,1.6,2.7,2.5,4
			c0.8,1.1,2.1,2,2.5,3.2c2.1,5.5,0.1,10.8-1.1,16.1c-0.5,2.2-1.6,4.5-3.1,6.1c-3,3.3-7.2,5.7-9.6,9.3c-3.6,5.4-7.4,9.5-14.5,8.9
			c-0.2,0-0.5,0.4-0.8,0.8c0.3,1.2,0.7,2.4,0.7,2.5c-2.3,2.5-4.1,4.5-5.5,6c-2.7,0.2-5.1,0.1-7.3,0.6c-6.1,1.5-12.2,4.6-18.6,2.8
			c-7.2-2-14.3-0.8-21.4-0.7c-4.2,0.1-8.5,0.9-12.6,1.8c-9.3,2.2-18.5,4.9-27.8,7.2c-3.3,0.8-6.9,0.6-10.3,1.3
			c-12.6,2.4-24,9.8-37.3,9.1c-6.3-0.3-11.8,7.9-18.6,1.6c-0.1-0.1-0.3,0-0.5,0c-9.8,2.7-19.7,5.2-29.4,8.2
			c-7.6,2.3-15,5.2-22.6,7.6c-1.5,0.5-3.4-0.2-5.7-0.3c5-4.1,9.1-7.5,13.6-11.2c-3.9-1.5-6.5,1.3-9.4,2.6c-2.9,1.4-5.6,3-9,4.9
			c0.6-1.2,0.9-2,1.3-2.7c-0.3-0.1-0.6-0.1-0.9-0.2c-0.4,1.3-0.9,2.7-1.2,3.7c-2.2-0.4-5.1-1.9-6.3-1c-10.3,6.8-22.6,7.7-33.7,12.3
			c-3.7,1.5-7.6,2.5-11.3,4c-0.9,0.4-1.3,1.8-1.9,2.7c1.1,0.7,2.4,2.2,3.1,1.9c5.4-2,10.3,0.8,15.4,0.9c12.6,0.2,24.2,4,35.5,8.7
			c8.4,3.4,17.4,5.8,23.8,13.2c2.3,2.6,5.6,5,8.8,5.9c11,2.9,19.3,10,28.1,16.4c7.4,5.4,7.4,5.6,15.2,0c2.2-1.6,3.7-4.5,6-5.5
			c5.3-2.2,10.9-3.9,16.5-5.4c4.2-1.1,7.4-3.1,9.8-6.7c0.6-1,1.8-1.7,2.8-2.3c2.2-1.1,4.7-1.7,6.7-3.1c3.6-2.6,8.7-2.2,9.6,1.2
			c0.9,3.4,1.2,7,1.9,10.8c1.2,0,2.9-0.1,4.5,0c3.7,0.4,8.9-2.2,9.2,4.8c0,0.4,1.4,0.7,2,1.2c4.2,3.3,8.3,6.6,12.4,9.9
			c0.2,0.1,0,0.7,0.1,1c0.8,1.4,1.6,2.9,2.4,4.2c2.8,4.4,6,8.7,8.5,13.3c1.2,2.3,1.1,5.3,1.6,8.5c-0.6,0.7-1.6,2-2.9,3.5
			c2.1,3.8,4.4,7.4,6,11.3c1,2.4,1,4.9-2.3,6.5c-4.4,2.2-7.5,5.9-6.3,11.1c1.3,5.5-1,6.6-5.8,7c-9.8,0.7-12,3.9-8.5,12.3
			c-2.7-0.5-5.1-1.1-7.4-1.4c-2.9-0.4-5.9-0.9-8.8-0.7c-5.7,0.3-11.3,1.2-17,1.7c-2,0.2-4.5-0.6-5.9,0.3c-3.3,2.2-7,1.1-10.3,1.9
			c-8.2,1.9-16.4,4.2-24.5,6.5c-0.8,0.2-1.8,1.5-1.9,2.3c-1.1,7.7-2.1,15.5-3,23.2c-0.8,6.9-0.7,13.9-2.3,20.6
			c-1.2,4.9-1.3,6.4,4.3,4.2c-0.5,3.9-2.7,7.8,1.7,10.5c0.3,0.2,0.3,1.7-0.1,2.2c-3.8,5,1.9,9.9,0.2,15.2c-0.7,2.2,0.3,5-0.7,8.5
			c-0.5,1.6,0.1,3.6,0.3,5.4c0.2,2.4,0.9,4.9,0.6,7.2c-1.1,8.2-2.6,16.3-3.9,24.4c-0.1,0.6-0.2,1.6,0.2,1.9
			c4.4,3.9,2.6,8.6,1.8,13.3c-0.4,2.3-0.1,4.7-0.1,7.1c0.4,0,0.9,0,1.3,0.1c0.8-3.6,1.6-7.1,2.5-11.3c4.2,9.3,0.4,18.6,3.9,27.1
			c0.3,0.7-0.1,2.3-0.6,2.7c-3.1,1.8-1.3,4.1-1,6.3c-0.7-0.2-1.4-0.4-2.1-0.6c0,0.3-0.1,0.5-0.1,0.8c0.7-0.1,1.5-0.2,2.2-0.3
			c0.2,0,0.3,0,0.5,0c0.1,0,0.2,0.2,0.2,0.3c-0.3,2.1-0.4,4.2-0.8,6.3c-0.4,2.1-1,4.2-1.6,6.7c2.5,1.3,2.6,8.3-1.2,13
			c1,0.7,1.9,1.5,2.8,2.2c-4.3,8-4.1,10.6,0.5,12.7c-4.8,5.9-4.8,5.8,0.6,10.5c0.7,0.6,0.9,2.1,0.7,3.1c-0.8,3.5-2.6,7-2.7,10.5
			c-0.6,12.4-1,24.9-1,37.4c-0.1,7.9,0.7,15.9,0.8,23.8c0,7.6-0.7,15.2-0.7,22.8c0,2.2,1.3,4.4,2.1,6.8c-1.2,3.1-2.8,6.6-3.9,10.2
			c-0.3,1.1,0.4,3.5,1.2,3.8c4.4,1.6,1.6,4,1.4,6.5c-0.3,3.8-0.5,9.2,1.7,11.2c2.6,2.4,2.2,3.4,1.4,5.8c-0.5,1.4-0.3,3-0.3,4.5
			c-0.1,7.8,0.8,15.5-3.9,22.7c-2.7,4.1-5,8.8-4.9,14.3c0.1,3.3-1.3,7.1-3.1,10c-4.6,7.4-9.9,14.4-14.9,21.5
			C4146,1200,4140,1200,4134,1200z M4093.3,583.6c-6.1,2.3-11.8,4.5-17.5,6.5c-1.2,0.4-2.7,0.2-4,0.3c-2.7-0.4-5.4-1.1-7.6-0.3
			c-6.7,2.7-13.2,5.9-19.7,9c-1.9,0.9-3.7,2.2-5.6,3.3c-2.7,1.6-5.6,4.6-8.2,4.5c-5.4-0.2-7.2,3.9-11.8,6.4c4.3,2.2,7.5,3.8,10,5.1
			c1.4-2,2.4-3.5,3.5-5c0.4,0.3,0.8,0.5,1.2,0.8c0,0.9,0,1.8,0,3.2c1.7-1,3.3-2.5,3.7-2.2c4.4,3.1,8.1,0.4,11.6-1.4
			c8.6-4.4,16.8-9.8,25.7-13.7c7.5-3.2,15.6-4.9,23.4-7.3c5.4-1.6,11.1-2.7,16.4-4.4c17.9-5.9,35.2-13.7,53.3-19.1
			c2.9-0.9,5.2-3.7,7.9-5.7c-1-0.9-2.3-1.5-2.5-2.3c-0.9-4.1-0.8-4.1-4.6-3.1c-4.1,1.1-8.2,1.7-12.2,3c-7.6,2.5-15.1,5.3-22.4,7.9
			c0.8,0.9,1.6,1.7,1.8,1.9c3-0.4,5.7-1,8.4-1c2.3,0,5-4.6,7.3,0.3c-0.6,0.3-0.9,0.7-1.4,0.8c-9.1,3-18.3,5.9-27.4,9
			c-2.9,1-5.4,2.9-8.3,3.8c-5.9,1.8-12,3.1-18,4.6c-1.2,0.3-2.4,0.6-3.7,0.8C4092.8,587.9,4093,586.5,4093.3,583.6z M3976.3,636.2
			c11.1-4.2,21.7-7.7,31.8-12.3c3.4-1.5,5.5-5.7,8.5-9.1C4008.7,613.9,3978.2,630.1,3976.3,636.2z M3963.6,361.2
			c-0.4-6.9-0.8-12.9-1.1-19c-0.1-2.9,0.3-5.8,0.2-8.6c0-0.8-1.2-1.5-1.9-2.3c-0.5,0.7-1.5,1.5-1.5,2.2c-0.2,3.3-0.1,6.6-0.2,9.9
			c-0.3,12.4-0.8,24.8-1.1,37.2c0,1,0.3,2.8,0.6,2.8c1.2,0.2,2.6,0,3.6-0.6c0.6-0.3,0.6-1.7,0.7-2.7c0.1-1.2-0.1-2.4,0-3.5
			C3963.1,371.2,3963.4,365.8,3963.6,361.2z M4100.3,583.7c8.4-0.1,15.3-3,21.9-7.1c-0.7-0.3-1.4-0.6-2.2-0.9c1-0.7,1.7-1.3,2.4-1.8
			c-2.5,0.5-4.6,1.6-6.8,2.5c-2.7,1.1-5.4,2.6-8.2,2.7C4103.1,579,4103.1,578.6,4100.3,583.7z M3968.8,167.7
			c-4.3-4.9-4.3-4.9-11.1,2.4c1.6,1.9,3.2,3.8,4.8,5.8C3964.4,171.8,3966.9,168.5,3968.8,167.7z M4101.8,500c0.2,0.5,0.3,1,0.5,1.5
			c5.6,0.6,12.2-2.8,11.9-6.9C4110,496.5,4105.9,498.3,4101.8,500z M4064.9,768.9c-0.1-0.4-0.3-0.8-0.4-1.3c-5.6,0-11.3-0.4-15.4,6
			C4054.9,771.9,4059.9,770.4,4064.9,768.9z M4063.5,749.4c-9.4,3.5-11.1,4.8-11.4,8.3C4058.7,755.7,4063,752.5,4063.5,749.4z
			 M4021.6,804.1c0.4,0.8,0.7,1.5,1.1,2.3c3.4-1.8,6.8-3.6,10.2-5.4c-0.3-0.6-0.5-1.1-0.8-1.7
			C4028.6,800.9,4025.1,802.5,4021.6,804.1z M4192.6,754.9c2.7-1.2,4.9-2.2,7.1-3.2c-0.1-0.5-0.3-1-0.4-1.4
			c-4.2,0.8-8.3,1.6-12.5,2.5c0.1,0.4,0.1,0.7,0.2,1.1c2-0.6,4-1.1,6.3-1.7C4193,753.2,4192.9,753.8,4192.6,754.9z M4157.1,583.8
			c-0.3-0.6-0.6-1.3-0.8-1.9c-3,1.3-6,2.6-9,3.9c0.3,0.6,0.5,1.2,0.8,1.8C4151.1,586.2,4154.1,585,4157.1,583.8z M3960.8,307.6
			c0.7,0,1.5,0.1,2.2,0.1c0.3-2.7,0.5-5.5,0.8-8.2c-0.8-0.1-1.6-0.1-2.4-0.2C3961.2,302.1,3961,304.9,3960.8,307.6z M3999.6,1129.2
			c-3.6-0.4-6.4-0.7-9.1-1.1c-0.1,0.5-0.1,0.9-0.2,1.4C3993.2,1129,3995.4,1134.6,3999.6,1129.2z"/>
		<path class="st1" d="M3722.2,482.1c-1.2,1.3-2.4,2.7-3.9,4.4c-2.5-4-4.8-2.2-6.2,0.3c-2.3,3.9-4,8.2-6,12.3
			c-0.4,0.9-1.2,1.6-1.8,2.3c-3.3,3.3-6.6,6.7-10,10c-0.5,0.5-1.5,0.5-2.3,0.7c-2.6-2.6-3.7-5.2,0.3-7.6c0.7-0.5,1.4-1,2.1-1.5
			c0,0.8,0.1,1.6,0.1,2.4c4.5-4.5,5.7-7.9,3.8-10.1c-1.7,2-3.5,4-5.1,6.1c-0.6,0.8-0.7,2-1,3c-1.3,1-3.7,2.4-3.6,2.9
			c0.6,1.7-0.4,5.1,3.3,4.5c1,3.4,1.8,6.9,3.1,10.2c2.9,7.5,5.1,15.4,9.1,22.2c8,13.5,14,27.7,18.9,42.5c1.5,4.6,3.4,9.1,4.9,13.8
			c1.3,3.9,2.1,7.8-0.5,11.8c-0.9,1.4-0.6,3.9-0.4,5.9c0.9,7.2-4,12.1-6.8,17.9c-0.2,0.5-1.6,0.9-2,0.7c-4.9-2.8-5.6,1.5-6,4.2
			c-1.4,7.6-2.4,15.4-3.1,23.1c-1.5,15.4-3.2,30.8-3.9,46.3c-0.6,13.7-1.6,27.6,0.4,41c1.4,9.5,0.9,18.5-0.1,27.7
			c-0.4,3.3-1.1,6.5-1.2,9.7c0,1.2,1.6,2.5,2.5,3.8c-2.1,3.6-3.9,7.3,1.5,10.3c0.5,0.3,0.8,1.4,0.8,2.1c0.7,11.8,1.9,23.7,2,35.5
			c0.1,16.9-0.7,33.7-1,50.6c-0.1,6.5,0,13.1,0,19.6c0.5,0,0.9,0,1.4-0.1c-0.2-1.4-0.4-2.8-0.7-4.4c3.7,1.2,3.7,3.9,2.9,6.6
			c-0.7,2.5-2.1,4.9-3.4,8.1c2.2-0.4,2.9-0.5,3.9-0.6c0,6.6,0.1,13.1,0,19.6c-0.1,4.4-0.4,8.9-0.7,13.3c0,0.5-0.2,1.1,0,1.4
			c6,7.5,0.4,15.8,1.4,23.7c0.7,5.8-0.6,11.8-0.6,17.8c0,2-4.3,7.8,3.4,5.2c0,0,1.2,2.1,0.9,2.7c-3.1,6.3-1.6,13-2.3,19.6
			c-0.7,5.7-0.9,11.5-1.1,17.3c-0.1,1.7,0.8,3.5,1,5.2c0.2,1.8,0.7,4.2-0.2,5.3c-2.5,2.9-2.1,5.3,0.8,8c-1.7,0.7-2.9,1.3-4.1,1.8
			c0.4,2.5,3.8,5-0.6,7c-0.5,0.2-0.3,2.6-0.1,4c0.8,5.7,2.1,11.3-0.6,16.8c-3.2,6.5-6.3,13.1-9.9,19.4c-1.6,2.8-4.2,5.1-6.6,7.4
			c-0.3,0.3-2-0.5-2.8-1.1c-1-0.8-1.7-1.9-3.3-3.6c-0.2,2.3-0.7,3.4-0.3,4.1c1.8,3.4-0.5,4.9-3,5c-3.8,0.1-4.6,2-4.5,5.1
			c0.1,3.6-1.5,5.3-5.3,5.1c-2.5-0.1-4.9,0.7-6.3,0.9c-3.7-0.9-6.7-1.5-9.6-2.3c-0.4-0.1-0.9-0.5-1.2-0.8
			c-5.6-6.3-12.9-10.8-16.7-19.1c-3.9-8.5-9.5-16.3-13.8-24.7c-2.3-4.5-3.4-9.6-5-14.4c-0.3-1-0.3-2.6-1-3.1
			c-8.1-5.8-8.9-14.9-11.2-23.4c-0.9-3.4-3.8-6.2-4.7-9.6c-1.8-7.2-2.7-14.7-4.3-22c-0.5-2.3-2.1-4.3-2.9-5.8
			c0.9-6.6,1.7-12.8,2.6-19c-0.3,0.1-0.5,0.1-0.8,0.2c1.9-3.1,3.5-6.3,5.7-9.1c1.5-2,3.4-4.2,5.7-5c3.3-1.1,3.6-3,3.9-5.9
			c0.4-3.7,1.5-7.3,2.2-10.9c0.9-4.8,2.2-9.6,2.6-14.4c0.4-6.8-0.2-13.7,0.2-20.6c0.7-11.2,2.1-22.3,2.8-33.4
			c0.4-5.7,0.1-11.5,0.1-16.7c0.1,0.6,0.4,1.7,0.8,3.1c0.1-0.3,0.3-0.5,0.3-0.7c1.3-16.1,2.8-32.1,4-48.2c1.1-15,2.3-29.9,3-44.9
			c0.9-20.1,1.3-40.3,2.2-60.5c0.7-14.7,2-29.3,2.8-43.9c0.3-6.2-0.2-12.4,0.2-18.6c0.7-12.5,1.7-25.1,2.5-37.6
			c0.1-1,0.3-1.9,0.4-2.9c0.3-12.8,0.8-25.5,0.9-38.3c0.1-5.1-0.7-10.2-0.8-15.3c0-1.2,1.1-2.4,1.5-3.6c0.5-1.9,1.3-4,1.1-5.9
			c-0.1-1-2-2-3.2-2.5c-0.4-0.1-1.5,1.6-2.1,2.6c-0.7,1.1-1.2,2.3-1.8,3.4c-0.4-0.1-0.8-0.3-1.2-0.4c0.6-3.2,0.9-6.6,1.9-9.6
			c0.4-1.3,2.6-1.9,4.5-3.3c0.3,2.2,0.5,3.4,0.8,5c0.7-0.4,1.5-0.6,1.7-1c0.6-1.4,1.6-4,1.3-4.2c-2.2-1.3-4.7-2.2-7.1-3.2
			c1.2-2.8,2.6-6.3,4.1-9.8c-0.6-0.4-1.3-0.7-1.9-1.1c-1.6,2-3.3,3.9-4.9,5.9c-0.3-0.2-0.7-0.4-1-0.5c1.1-2.4,2.2-4.7,3.2-7.1
			c0.4-0.9,0.2-2,0.4-3c-1.2,0.1-2.6-0.3-3.4,0.3c-1.7,1.3-3.9,2.7-4.4,4.6c-3,10-11.6,16.4-16.1,25.4c-3.9,7.7-8.5,15.1-13.1,22.5
			c-1.4,2.3-3.7,4-5.9,6.3c0.5,0.8,1.2,1.9,2.4,3.8c-5.6-0.7-7.3,2.9-8.8,6.5c-0.3,0.3-0.7,0.5-1,0.8c-2.2,1.8-4.7,3.2-6.4,5.3
			c-7.2,8.6-14.2,17.4-21.3,26.1c-3.5,4.3-7.2,8.6-11.2,13.4c-1.3-3.4-2.1-5.3-4.8-1.6c-3.3,4.6-7.7,8.4-11.8,12.7
			c-1.2-4.1,0.3-6.5,2.9-9.3c7.9-8.6,15.5-17.5,22.7-26.6c9.3-11.8,18.1-24,27.1-36.1c0.5-0.7,0.5-1.8,0.7-2.7
			c0.4,0.2,0.8,0.5,1.3,0.7c0.1-0.2,0.1-0.5,0.2-0.7c-0.5,0-1,0.1-1.4,0.1c-2.8,0.8-5.9,0.8-6.7,4.8c-0.3,1.5-2.1,2.6-3.2,3.9
			c-1.3,1.6-2.5,3.3-3.6,5c-0.5,0.8-0.1,2.1-0.6,2.8c-5.8,7.3-11.1,15-17.7,21.5c-11.5,11.4-22.5,23.4-35.6,33
			c-1,0.8-1.3,2.5-2.2,4.3c-0.6,0.2-2,0.6-3.4,0.9c-0.3-0.3-0.5-0.7-0.8-1c1.5-7.5,3.8-14.2,9.4-20.2c5.4-5.7,9-13.1,13.6-19.6
			c3.6-5.1,7.6-10,11.4-14.9c-0.4-0.4-0.8-0.9-1.2-1.3c-1.5,1.2-3.4,2.1-4.4,3.5c-3.8,5.2-7.1,10.8-11.2,15.9c-1.8,2.2-4.9,3.2-8,4
			c8.2-12.3,17.2-23.6,27.3-33.9c0.6,0.5,1.3,0.9,1.9,1.4c-1.2,2-2.4,3.9-4,6.4c0.9,0,2.3,0.3,2.7-0.2c8.9-12.1,17.7-24.2,26.5-36.3
			c1.4-2,3-3.8,4.5-5.7c0.4,0.2,0.7,0.4,1.1,0.7c-5,9-9.9,18-14.9,27c0.4,0.5,0.7,0.9,1.1,1.4c1.4-0.5,3.4-0.5,4.1-1.5
			c3-4.2,5.6-8.8,8.5-13c1.3-1.8,3.3-3.1,4.5-4.9c4.1-6.2,8.1-12.5,12-18.8c0.7-1.2,1-2.8,1.2-4.2c0.2-1.8,0.1-3.7,0.2-5.5
			c-1.5,0-3,0.2-4.4-0.1c-1.5-0.3-3.1-0.9-4.2-1.9c-0.6-0.5-0.8-2.4-0.4-3.2c2.6-4.9,5.1-9.9,8.2-14.4c3.6-5.3,4.4-12.1,9.2-16.7
			c1.1-1.1,1.2-3.4,1.3-5.1c0-1-1.1-2.1-1.7-3.2c-0.8,0.6-1.7,1.1-2.4,1.8c-5.1,6-10.2,12-14.5,17c-7.2,0.7-7.3-5.1-10-7.7
			c10-15.1,20-30.2,29.9-45.3c0.4-0.7,1.1-1.4,1.2-2.1c0.4-10.6,8.7-17.2,13.1-25.7c4.4-8.5,9.2-16.5,9.5-26.3c0-1.4,0.8-2.8,1.5-4
			c6-10.1,12.3-20,18-30.2c3.3-5.9,5.6-12.4,8.8-18.5c5-9.7,10.7-19.1,15.4-28.9c5.1-10.7,9.4-21.7,14.3-32.5c1.4-3.1,3.7-5.8,4.9-9
			c2.5-7,4.6-14.1,6.8-21.2c3.3-11.2,7.1-22.3,9.7-33.7c2.3-10.3,4.3-20.8-1-31.1c-0.6-1.2-0.4-2.9-0.6-5.3c5.9,0.5,11.4,1,17,1.3
			c7.6,0.4,15.3,1.3,22.9,0.9c8.7-0.5,16.4,2.5,24.4,4.7c8.6,2.3,17.2,4.7,25.7,7.5c6.3,2,12.4,4.6,18.5,7.2
			c0.9,0.4,1.3,1.9,2.1,2.5c2.4,2,4.9,3.8,7.5,5.6c5.2,3.6,10.8,6.7,15.5,10.9c5.8,5.1,10.9,11,16,16.8c1.1,1.2,0.7,3.7,1.1,5.7
			c0.2,0.9,0.1,2.1,0.7,2.7c1.3,1.4,2.6,2.5,0.5,4.4c-0.5,0.4-0.3,1.9-0.1,2.9c1.9,8-2.7,15-3.9,22.5c-0.4,2.4-4.3,4.6-7.1,6.1
			c-7,3.8-12.9,8.5-18.7,14.2c-8.8,8.7-14.4,19.3-21.4,28.9c-6.3,8.7-14.4,16-19.9,25.3c-4,6.8-7.5,13.9-11.3,20.8
			c-2,3.6-4.2,7-6.1,10.6c-0.4,0.7-0.1,1.7-0.1,2.6c-0.3,0.3-0.7,0.5-1,0.8c-7.5,11.7-15,23.4-22.3,35.2c-0.6,0.9-1.9,3.6,1.5,4.4
			c0.8,0.2,1.1,2.9,1.8,4.8c0.8-0.3,1.8-0.7,3.2-1.2c-0.1,1.3,0.2,2.7-0.3,3.5c-2.6,3.7-4.9,7.3-5.9,11.8c-0.9,3.9-4.1,6.3-7.6,8.8
			c-4.5,3.2-7.6,8.4-11.1,12.8c-2.5,3.2-4.7,6.6-7,9.9c-0.3-0.3-0.6-0.6-0.9-0.9c0.1-0.9,0.2-1.8,0.3-2.7c-0.9,0.1-2.1-0.1-2.6,0.4
			c-1.5,1.7-2.8,3.6-4.1,5.5c0.4,0.4,0.8,0.7,1.2,1.1c1.1-0.4,2.2-0.8,3.2-1.2C3721.5,481.6,3721.8,481.8,3722.2,482.1z M3600.5,545
			c-0.4-0.3-0.8-0.5-1.3-0.8c-4.2,5.1-8.9,9.7-11.2,16.1c0.5,0.4,1,0.8,1.5,1.2c3.2-4.1,6.3-8.3,9.5-12.4c0.2,0.2,0.5,0.4,0.7,0.5
			c-0.5,3.1-0.9,6.2-1.4,9.4c0.3,0,0.7,0.1,1,0.1c4-6.7,8-13.4,12-20.1c-0.6-0.4-1.2-0.7-1.8-1.1c-2.7,3.9-5.5,7.8-8.2,11.7
			c-0.3-0.1-0.6-0.3-0.9-0.4C3600.5,547.7,3600.5,546.3,3600.5,545z M3580.2,574.6c3-4.1,5.2-7.2,7.7-10.6
			C3583.3,564,3580.8,567.3,3580.2,574.6z"/>
		<path class="st1" d="M3867,1001c-2.4-0.7-4.4-1.3-6.3-1.9c-4.3-1.3-8.7-2.4-12.8-4.1c-4.3-1.7-8.3-4.6-12.7-5.7
			c-2.4-0.7-5.5,1.7-8.2,1.6c-2.4-0.2-2.2-5.7-6.5-4.1c-0.6,0.2-1.6-0.2-2.2-0.7c-11.8-8.6-26.1-9.1-39.6-12.1
			c-5.1-1.1-10.2-1.9-15.3-3c-2.8-0.6-3.5-2.3-1.5-4.7c1.6-1.9,2.9-4.1,4.7-5.6c2.6-2.1,4.5-4,3.1-6.1c3.9-3.2,7.8-5.8,10.9-9.1
			c9.9-10.6,23.1-15,36.2-19.7c6.9-2.4,13.9-4.3,20.9-6.4c13.8-4,27.6-8.6,41.6-11.6c8.7-1.8,17.9-0.9,26.9-1.2
			c9.3-0.3,18.3,1.4,26.5,6.1c3.3,1.9,6,4.8,8.6,7.7c3.2,3.5,6,7.4,9.2,10.9c1.3,1.4,3.2,2.2,4.9,3.2c6.5,3.9,13.3,7.5,19.6,11.8
			c4.2,2.9,6.9,7.5,11.2,10.7c3.3,2.5,4.1,8.3,6.1,12.5c1.1,2.4,2.6,4.7,3.5,7.3c0.5,1.3,0.6,3.6-0.2,4.3c-3.1,3-6.1,5.6-1.8,10.1
			c0.6,0.6-0.4,3.3-1.2,4.6c-1,1.6-3.4,2.6-3.7,4.2c-2.2,10.4-11.4,10.7-18.9,12.9c-14.2,4.3-27.7-1-41.5-3.2
			c-7-1.1-14.2-1.6-20.8-3.9c-6.6-2.3-13.6-1.1-20.5-4.4C3881.5,998.8,3873.4,996.9,3867,1001z"/>
		<path class="st1" d="M3500.1,633.7c2.8-10.6,11.4-18.3,16.2-27.9c-0.5-0.4-1-0.8-1.5-1.2c-3.2,3.2-6.4,6.5-10,10.2
			c0.3-1.3,0.3-2.2,0.7-2.8c5.3-7.8,10.7-15.5,16.1-23.3c0.4-0.6,1-1.8,1.4-1.7c8.3,0.9,8.1-8.7,13.8-11.2c0.7-0.3,0.5-3,0.5-3.5
			c3.7-2.2,6.9-4,10.2-6c-4-5.6,5.5-0.8,5-4.2C3539.1,588.9,3521.3,612.4,3500.1,633.7z"/>
		<path class="st1" d="M3940.9,1061.2c-7.8-0.4-15.6-0.7-24-1.1c0.8,1.5,1.3,2.4,1.8,3.4c-0.3,0.2-0.5,0.5-0.7,0.6
			c-4.3,0.7-8.5,1.7-12.8,1.9c-2.4,0.1-4.9-1.3-7.3-1.8c-4.5-1-9.1-2-13.7-2.9c4.3-2.2,8.2-4.6,12.5-6.1c2.1-0.7,4.8,0.2,7.2,0.7
			c10.4,2.5,20.8,2.5,31.4,1.2c1.9-0.2,4,1.6,6,2.5C3941.1,1060.1,3941,1060.7,3940.9,1061.2z"/>
		<path class="st1" d="M3565.7,541c-3.9,6.9-7.8,13.9-11.8,21c-1.2-3.9-2.9-7.3-3.2-10.8c-0.2-2.2,1-5.1,2.5-6.6
			c1.4-1.4,4.2-1.4,6.4-2.1c0.2,0.4,0.3,0.9,0.5,1.3c1.4-1.2,2.9-2.5,4.3-3.7C3564.8,540.3,3565.3,540.7,3565.7,541z"/>
		<path class="st1" d="M3579.7,504.8c1.5,0.5,2.7,0.9,5.1,1.8c-3.8,3.8-7.2,7.2-10.6,10.6c-0.2-0.2-0.4-0.3-0.6-0.5
			c3-1.3,6-2.5,9-3.8c0.3,0.3,0.5,0.5,0.8,0.8c-1.6,2.1-3.3,4.2-5.2,6.7c-2.3-3.6-3.7-1.8-4.7,0.9c-5.6-3.3-2.7-6,0-8.8
			C3575.6,510.2,3577.5,507.5,3579.7,504.8z"/>
		<path class="st1" d="M3763.3,425.6c-2.6,2.6-4.7,4.6-6.8,6.7c-2.7-3.9,1.1-6,2.4-8.9c0.9-1.9,1.8-3.8,2.9-5.6
			c1.5-2.6,3.2-5.2,4.8-7.8c0.5,0.2,0.9,0.5,1.4,0.7C3766.4,415.8,3764.8,421,3763.3,425.6z"/>
		<path class="st1" d="M3986.1,1072.1c-4.4,4.3-4.4,4.3-16.8-2.5C3976.1,1068.6,3984.4,1069.8,3986.1,1072.1z"/>
		<path class="st1" d="M3620.1,552.8c4.4-5.9,8.7-11.8,13.1-17.6c0.5,0.4,1,0.7,1.6,1.1c-1.9,2.8-3.8,5.6-5.7,8.4
			c-0.9,1.3-2.3,2.5-2.7,3.9C3625.4,552.1,3624.4,553,3620.1,552.8z"/>
		<path class="st1" d="M3751.3,427.8c3.2-5.4,6.3-10.7,9.5-16.1c0.6,0.4,1.2,0.7,1.9,1.1c-3,5.4-6.1,10.8-9.1,16.3
			C3752.7,428.6,3752,428.2,3751.3,427.8z"/>
		<path class="st1" d="M3959.9,1065.8c0.7-0.6,1.3-1.2,2.3-2.1c-1.3-1-2.3-1.8-4.5-3.6c4.4,0.4,7.3,0.7,10.3,1
			c0.2,0.5,0.4,0.9,0.7,1.4c-2.6,1.4-5.3,2.9-7.9,4.3C3960.4,1066.5,3960.1,1066.2,3959.9,1065.8z"/>
		<path class="st1" d="M3973.8,1058.2c-4.3,0-8.5,0-12.8,0c0-0.5,0-1.1,0-1.6c4.3,0,8.5,0,12.8,0
			C3973.7,1057.1,3973.8,1057.7,3973.8,1058.2z"/>
		<path class="st1" d="M3499.7,619.2c1.2-1.3,2.4-2.6,3.6-3.9c0.4,0.3,0.8,0.6,1.2,1c-1.1,1.4-2.2,2.8-3.3,4.3
			C3500.6,620.1,3500.1,619.6,3499.7,619.2z"/>
		<path class="st1" d="M3767.8,410.3c0.2-1.3,0.5-2.7,0.7-4c0.5,0.1,0.9,0.2,1.4,0.2c-0.2,1.3-0.4,2.7-0.6,4
			C3768.8,410.5,3768.3,410.4,3767.8,410.3z"/>
		<path class="st1" d="M3960.6,1066.8c-0.8,0.7-1.6,1.4-2.4,2c-0.4-0.5-0.7-1-1.1-1.5c0.9-0.5,1.8-1,2.8-1.6
			C3960.1,1066.2,3960.4,1066.5,3960.6,1066.8z"/>
		<path class="st1" d="M3724.2,479.2c-0.7,1-1.3,2-2,3c-0.3-0.3-0.6-0.6-0.9-0.9c0.7-1,1.3-2,2-3
			C3723.5,478.6,3723.8,478.9,3724.2,479.2z"/>
		<path class="st1" d="M3961.8,755.8c0.9-0.6,1.9-1.2,2.8-1.7c0.2,0.3,0.4,0.6,0.6,0.9c-0.8,0.5-1.7,1.1-2.5,1.6
			C3962.5,756.4,3962.2,756.1,3961.8,755.8z"/>
		<path class="st1" d="M3511.6,652.8c-0.3,0.7-0.7,1.4-1,2c-0.3-0.1-0.6-0.2-0.9-0.3c0.4-0.9,0.7-1.8,1.1-2.8
			C3511.1,652.2,3511.4,652.5,3511.6,652.8z"/>
		<path class="st1" d="M3772.9,388.4c0.3,0.5,0.6,1,0.8,1.5c-0.6-0.2-1.3-0.5-1.9-0.7C3772.2,388.9,3772.5,388.7,3772.9,388.4z"/>
		<path class="st1" d="M3587.9,594.4c0.3,0.5,0.6,1,0.9,1.4c-0.6-0.2-1.3-0.4-1.9-0.7C3587.2,594.9,3587.5,594.6,3587.9,594.4z"/>
		<path class="st1" d="M3636.6,542.9c-0.5,0.4-0.9,0.6-1.2,0.9c-0.2-0.4-0.4-0.8-0.4-1.2c0-0.2,0.6-0.6,0.7-0.6
			C3636,542.1,3636.3,542.5,3636.6,542.9z"/>
		<path class="st1" d="M4080.9,1174.3c-0.1,0.1-0.1,0.2-0.2,0.4c-0.2-0.1-0.3-0.2-0.5-0.4c0.1-0.1,0.2-0.3,0.4-0.3
			C4080.7,1174,4080.8,1174.2,4080.9,1174.3z"/>
	</g>
</g>
</svg>
